# Blender 4.1.1
# www.blender.org
mtllib Player.mtl
o 球
v 0.000000 0.523837 -0.555570
v 0.000000 0.350017 -0.831470
v 0.000000 0.122909 -0.980785
v 0.000000 0.000000 -1.000000
v 0.000000 -0.122909 -0.980785
v 0.000000 -0.350017 -0.831470
v 0.014775 0.886919 -0.074280
v 0.074658 0.582056 -0.375330
v 0.108386 0.523837 -0.544895
v 0.137950 0.445487 -0.693520
v 0.162212 0.350017 -0.815493
v 0.180240 0.241096 -0.906127
v 0.191342 0.122909 -0.961940
v 0.195090 0.000000 -0.980785
v 0.191342 -0.122909 -0.961940
v 0.180240 -0.241096 -0.906127
v 0.162212 -0.350017 -0.815493
v 0.137950 -0.445487 -0.693520
v 0.108386 -0.523837 -0.544895
v 0.074658 -0.582056 -0.375330
v 0.038060 -0.617908 -0.191342
v 0.028983 0.886919 -0.069970
v 0.146447 0.582056 -0.353553
v 0.212608 0.523837 -0.513280
v 0.270598 0.445487 -0.653281
v 0.318190 0.350017 -0.768178
v 0.353553 0.241096 -0.853553
v 0.375330 0.122909 -0.906127
v 0.382683 0.000000 -0.923879
v 0.375330 -0.122909 -0.906127
v 0.353553 -0.241096 -0.853553
v 0.318190 -0.350017 -0.768178
v 0.270598 -0.445487 -0.653281
v 0.212608 -0.523837 -0.513280
v 0.146447 -0.582056 -0.353553
v 0.074658 -0.617908 -0.180240
v 0.042076 0.886919 -0.062971
v 0.212608 0.582056 -0.318190
v 0.308658 0.523837 -0.461940
v 0.392847 0.445487 -0.587938
v 0.461940 0.350017 -0.691342
v 0.513280 0.241096 -0.768178
v 0.544895 0.122909 -0.815493
v 0.555570 0.000000 -0.831469
v 0.544895 -0.122909 -0.815493
v 0.513280 -0.241096 -0.768178
v 0.461940 -0.350017 -0.691342
v 0.392847 -0.445487 -0.587938
v 0.308658 -0.523837 -0.461940
v 0.212608 -0.582056 -0.318190
v 0.108386 -0.617908 -0.162212
v 0.053553 0.886919 -0.053553
v 0.270598 0.582056 -0.270598
v 0.392847 0.523837 -0.392847
v 0.500000 0.445487 -0.500000
v 0.587938 0.350017 -0.587938
v 0.653281 0.241096 -0.653281
v 0.693520 0.122909 -0.693520
v 0.707107 0.000000 -0.707107
v 0.693520 -0.122909 -0.693520
v 0.653281 -0.241096 -0.653281
v 0.587938 -0.350017 -0.587938
v 0.500000 -0.445487 -0.500000
v 0.392847 -0.523837 -0.392847
v 0.270598 -0.582056 -0.270598
v 0.137950 -0.617908 -0.137950
v 0.062971 0.886919 -0.042076
v 0.318190 0.582056 -0.212608
v 0.461940 0.523837 -0.308658
v 0.587938 0.445487 -0.392847
v 0.691342 0.350017 -0.461940
v 0.768178 0.241096 -0.513280
v 0.815493 0.122909 -0.544895
v 0.831470 0.000000 -0.555570
v 0.815493 -0.122909 -0.544895
v 0.768178 -0.241096 -0.513280
v 0.691342 -0.350017 -0.461940
v 0.587938 -0.445487 -0.392847
v 0.461940 -0.523837 -0.308658
v 0.318190 -0.582056 -0.212608
v 0.162212 -0.617908 -0.108386
v 0.000000 0.931785 0.000000
v 0.069970 0.886919 -0.028982
v 0.353553 0.582056 -0.146447
v 0.513280 0.523837 -0.212607
v 0.653281 0.445487 -0.270598
v 0.768178 0.350017 -0.318190
v 0.853553 0.241096 -0.353553
v 0.906127 0.122909 -0.375330
v 0.923879 0.000000 -0.382683
v 0.906127 -0.122909 -0.375330
v 0.853553 -0.241096 -0.353553
v 0.768178 -0.350017 -0.318190
v 0.653281 -0.445487 -0.270598
v 0.513280 -0.523837 -0.212607
v 0.353553 -0.582056 -0.146447
v 0.180240 -0.617908 -0.074658
v 0.074280 0.886919 -0.014775
v 0.375330 0.582056 -0.074658
v 0.544895 0.523837 -0.108386
v 0.693520 0.445487 -0.137950
v 0.815493 0.350017 -0.162212
v 0.906127 0.241096 -0.180240
v 0.961940 0.122909 -0.191342
v 0.980785 0.000000 -0.195090
v 0.961940 -0.122909 -0.191342
v 0.906127 -0.241096 -0.180240
v 0.815493 -0.350017 -0.162212
v 0.693520 -0.445487 -0.137950
v 0.544895 -0.523837 -0.108386
v 0.375330 -0.582056 -0.074658
v 0.191342 -0.617908 -0.038060
v 0.075735 0.886919 0.000000
v 0.382683 0.582056 0.000000
v 0.555570 0.523837 0.000000
v 0.707107 0.445487 -0.000000
v 0.831469 0.350017 0.000000
v 0.923879 0.241096 -0.000000
v 0.980785 0.122909 0.000000
v 1.000000 0.000000 0.000000
v 0.980785 -0.122909 0.000000
v 0.923879 -0.241096 -0.000000
v 0.831469 -0.350017 0.000000
v 0.707107 -0.445487 -0.000000
v 0.555570 -0.523837 0.000000
v 0.382683 -0.582056 0.000000
v 0.195090 -0.617908 0.000000
v 0.074280 0.886919 0.014775
v 0.375330 0.582056 0.074658
v 0.544895 0.523837 0.108386
v 0.693520 0.445487 0.137950
v 0.815493 0.350017 0.162212
v 0.906127 0.241096 0.180240
v 0.961940 0.122909 0.191342
v 0.980785 0.000000 0.195090
v 0.961940 -0.122909 0.191342
v 0.906127 -0.241096 0.180240
v 0.815493 -0.350017 0.162212
v 0.693520 -0.445487 0.137950
v 0.544895 -0.523837 0.108386
v 0.375330 -0.582056 0.074658
v 0.191342 -0.617908 0.038060
v 0.069970 0.886919 0.028983
v 0.353553 0.582056 0.146447
v 0.513280 0.523837 0.212608
v 0.653281 0.445487 0.270598
v 0.768178 0.350017 0.318190
v 0.853553 0.241096 0.353553
v 0.906127 0.122909 0.375330
v 0.923879 0.000000 0.382683
v 0.906127 -0.122909 0.375330
v 0.853553 -0.241096 0.353553
v 0.768178 -0.350017 0.318190
v 0.653281 -0.445487 0.270598
v 0.513280 -0.523837 0.212608
v 0.353553 -0.582056 0.146447
v 0.180240 -0.617908 0.074658
v 0.062971 0.886919 0.042076
v 0.318190 0.582056 0.212608
v 0.461940 0.523837 0.308658
v 0.587938 0.445487 0.392847
v 0.691341 0.350017 0.461940
v 0.768178 0.241096 0.513280
v 0.815493 0.122909 0.544895
v 0.831469 0.000000 0.555570
v 0.815493 -0.122909 0.544895
v 0.768178 -0.241096 0.513280
v 0.691341 -0.350017 0.461940
v 0.587938 -0.445487 0.392847
v 0.461940 -0.523837 0.308658
v 0.318190 -0.582056 0.212608
v 0.162212 -0.617908 0.108386
v 0.053553 0.886919 0.053553
v 0.270598 0.582056 0.270598
v 0.392847 0.523837 0.392847
v 0.500000 0.445487 0.500000
v 0.587938 0.350017 0.587938
v 0.653281 0.241096 0.653281
v 0.693520 0.122909 0.693520
v 0.707106 0.000000 0.707107
v 0.693520 -0.122909 0.693520
v 0.653281 -0.241096 0.653281
v 0.587938 -0.350017 0.587938
v 0.500000 -0.445487 0.500000
v 0.392847 -0.523837 0.392847
v 0.270598 -0.582056 0.270598
v 0.137950 -0.617908 0.137950
v 0.042076 0.886919 0.062971
v 0.212607 0.582056 0.318190
v 0.308658 0.523837 0.461940
v 0.392847 0.445487 0.587938
v 0.461940 0.350017 0.691342
v 0.513280 0.241096 0.768178
v 0.544895 0.122909 0.815493
v 0.555570 0.000000 0.831469
v 0.544895 -0.122909 0.815493
v 0.513280 -0.241096 0.768178
v 0.461940 -0.350017 0.691342
v 0.392847 -0.445487 0.587938
v 0.308658 -0.523837 0.461940
v 0.212607 -0.582056 0.318190
v 0.108386 -0.617908 0.162212
v 0.028982 0.886919 0.069970
v 0.146447 0.582056 0.353553
v 0.212607 0.523837 0.513280
v 0.270598 0.445487 0.653281
v 0.318189 0.350017 0.768178
v 0.353553 0.241096 0.853553
v 0.375330 0.122909 0.906127
v 0.382683 0.000000 0.923879
v 0.375330 -0.122909 0.906127
v 0.353553 -0.241096 0.853553
v 0.318189 -0.350017 0.768178
v 0.270598 -0.445487 0.653281
v 0.212607 -0.523837 0.513280
v 0.146447 -0.582056 0.353553
v 0.074658 -0.617908 0.180240
v 0.014775 0.886919 0.074280
v 0.074658 0.582056 0.375330
v 0.108386 0.523837 0.544895
v 0.137950 0.445487 0.693520
v 0.162212 0.350017 0.815493
v 0.180240 0.241096 0.906127
v 0.191342 0.122909 0.961939
v 0.195090 0.000000 0.980785
v 0.191342 -0.122909 0.961939
v 0.180240 -0.241096 0.906127
v 0.162212 -0.350017 0.815493
v 0.137950 -0.445487 0.693520
v 0.108386 -0.523837 0.544895
v 0.074658 -0.582056 0.375330
v 0.038060 -0.617908 0.191342
v 0.000000 0.886919 0.075735
v -0.000000 0.582056 0.382683
v -0.000000 0.523837 0.555570
v -0.000000 0.445487 0.707107
v -0.000000 0.350017 0.831469
v 0.000000 0.241096 0.923879
v -0.000000 0.122909 0.980785
v -0.000000 0.000000 0.999999
v -0.000000 -0.122909 0.980785
v 0.000000 -0.241096 0.923879
v -0.000000 -0.350017 0.831469
v -0.000000 -0.445487 0.707107
v -0.000000 -0.523837 0.555570
v -0.000000 -0.582056 0.382683
v -0.000000 -0.617908 0.195090
v -0.014775 0.886919 0.074280
v -0.074658 0.582056 0.375330
v -0.108386 0.523837 0.544895
v -0.137950 0.445487 0.693520
v -0.162212 0.350017 0.815493
v -0.180240 0.241096 0.906127
v -0.191342 0.122909 0.961939
v -0.195091 0.000000 0.980785
v -0.191342 -0.122909 0.961939
v -0.180240 -0.241096 0.906127
v -0.162212 -0.350017 0.815493
v -0.137950 -0.445487 0.693520
v -0.108386 -0.523837 0.544895
v -0.074658 -0.582056 0.375330
v -0.038060 -0.617908 0.191342
v -0.028982 0.886919 0.069970
v -0.146447 0.582056 0.353553
v -0.212608 0.523837 0.513280
v -0.270598 0.445487 0.653281
v -0.318190 0.350017 0.768177
v -0.353553 0.241096 0.853553
v -0.375330 0.122909 0.906127
v -0.382683 0.000000 0.923879
v -0.375330 -0.122909 0.906127
v -0.353553 -0.241096 0.853553
v -0.318190 -0.350017 0.768177
v -0.270598 -0.445487 0.653281
v -0.212608 -0.523837 0.513280
v -0.146447 -0.582056 0.353553
v -0.074658 -0.617908 0.180240
v -0.042076 0.886919 0.062971
v -0.212608 0.582056 0.318190
v -0.308658 0.523837 0.461939
v -0.392847 0.445487 0.587938
v -0.461940 0.350017 0.691341
v -0.513280 0.241096 0.768178
v -0.544895 0.122909 0.815493
v -0.555570 0.000000 0.831469
v -0.544895 -0.122909 0.815493
v -0.513280 -0.241096 0.768178
v -0.461940 -0.350017 0.691341
v -0.392847 -0.445487 0.587938
v -0.308658 -0.523837 0.461939
v -0.212608 -0.582056 0.318190
v -0.108386 -0.617908 0.162212
v -0.053553 0.886919 0.053553
v -0.270598 0.582056 0.270598
v -0.392847 0.523837 0.392847
v -0.500000 0.445487 0.500000
v -0.587938 0.350017 0.587937
v -0.653281 0.241096 0.653281
v -0.693520 0.122909 0.693520
v -0.707106 0.000000 0.707106
v -0.693520 -0.122909 0.693520
v -0.653281 -0.241096 0.653281
v -0.587938 -0.350017 0.587937
v -0.500000 -0.445487 0.500000
v -0.392847 -0.523837 0.392847
v -0.270598 -0.582056 0.270598
v -0.137950 -0.617908 0.137950
v 0.000000 -0.630013 0.000000
v -0.062971 0.886919 0.042076
v -0.318190 0.582056 0.212607
v -0.461940 0.523837 0.308658
v -0.587938 0.445487 0.392847
v -0.691341 0.350017 0.461939
v -0.768177 0.241096 0.513280
v -0.815493 0.122909 0.544895
v -0.831469 0.000000 0.555569
v -0.815493 -0.122909 0.544895
v -0.768177 -0.241096 0.513280
v -0.691341 -0.350017 0.461939
v -0.587938 -0.445487 0.392847
v -0.461940 -0.523837 0.308658
v -0.318190 -0.582056 0.212607
v -0.162212 -0.617908 0.108386
v -0.069970 0.886919 0.028983
v -0.353553 0.582056 0.146447
v -0.513280 0.523837 0.212607
v -0.653281 0.445487 0.270598
v -0.768177 0.350017 0.318189
v -0.853553 0.241096 0.353553
v -0.906127 0.122909 0.375330
v -0.923879 0.000000 0.382683
v -0.906127 -0.122909 0.375330
v -0.853553 -0.241096 0.353553
v -0.768177 -0.350017 0.318189
v -0.653281 -0.445487 0.270598
v -0.513280 -0.523837 0.212607
v -0.353553 -0.582056 0.146447
v -0.180240 -0.617908 0.074658
v -0.074280 0.886919 0.014775
v -0.375330 0.582056 0.074658
v -0.544895 0.523837 0.108386
v -0.693520 0.445487 0.137950
v -0.815493 0.350017 0.162211
v -0.906127 0.241096 0.180240
v -0.961939 0.122909 0.191341
v -0.980784 0.000000 0.195090
v -0.961939 -0.122909 0.191341
v -0.906127 -0.241096 0.180240
v -0.815493 -0.350017 0.162211
v -0.693520 -0.445487 0.137950
v -0.544895 -0.523837 0.108386
v -0.375330 -0.582056 0.074658
v -0.191342 -0.617908 0.038060
v -0.075735 0.886919 0.000000
v -0.382683 0.582056 -0.000000
v -0.555570 0.523837 -0.000000
v -0.707107 0.445487 -0.000000
v -0.831469 0.350017 -0.000000
v -0.923879 0.241096 -0.000000
v -0.980785 0.122909 -0.000000
v -0.999999 0.000000 -0.000000
v -0.980785 -0.122909 -0.000000
v -0.923879 -0.241096 -0.000000
v -0.831469 -0.350017 -0.000000
v -0.707107 -0.445487 -0.000000
v -0.555570 -0.523837 -0.000000
v -0.382683 -0.582056 -0.000000
v -0.195090 -0.617908 -0.000000
v -0.074280 0.886919 -0.014775
v -0.375330 0.582056 -0.074658
v -0.544895 0.523837 -0.108386
v -0.693520 0.445487 -0.137950
v -0.815493 0.350017 -0.162212
v -0.906127 0.241096 -0.180240
v -0.961939 0.122909 -0.191342
v -0.980784 0.000000 -0.195091
v -0.961939 -0.122909 -0.191342
v -0.906127 -0.241096 -0.180240
v -0.815493 -0.350017 -0.162212
v -0.693520 -0.445487 -0.137950
v -0.544895 -0.523837 -0.108386
v -0.375330 -0.582056 -0.074658
v -0.191342 -0.617908 -0.038060
v -0.069970 0.886919 -0.028982
v -0.353553 0.582056 -0.146447
v -0.513279 0.523837 -0.212607
v -0.653281 0.445487 -0.270598
v -0.768177 0.350017 -0.318190
v -0.853553 0.241096 -0.353553
v -0.906127 0.122909 -0.375330
v -0.923878 0.000000 -0.382683
v -0.906127 -0.122909 -0.375330
v -0.853553 -0.241096 -0.353553
v -0.768177 -0.350017 -0.318190
v -0.653281 -0.445487 -0.270598
v -0.513279 -0.523837 -0.212607
v -0.353553 -0.582056 -0.146447
v -0.180240 -0.617908 -0.074658
v -0.062971 0.886919 -0.042076
v -0.318189 0.582056 -0.212607
v -0.461939 0.523837 -0.308658
v -0.587938 0.445487 -0.392847
v -0.691341 0.350017 -0.461940
v -0.768177 0.241096 -0.513280
v -0.815493 0.122909 -0.544895
v -0.831468 0.000000 -0.555570
v -0.815493 -0.122909 -0.544895
v -0.768177 -0.241096 -0.513280
v -0.691341 -0.350017 -0.461940
v -0.587938 -0.445487 -0.392847
v -0.461939 -0.523837 -0.308658
v -0.318189 -0.582056 -0.212607
v -0.162212 -0.617908 -0.108386
v -0.053553 0.886919 -0.053553
v -0.270598 0.582056 -0.270598
v -0.392847 0.523837 -0.392847
v -0.500000 0.445487 -0.500000
v -0.587937 0.350017 -0.587938
v -0.653281 0.241096 -0.653281
v -0.693519 0.122909 -0.693520
v -0.707106 0.000000 -0.707106
v -0.693519 -0.122909 -0.693520
v -0.653281 -0.241096 -0.653281
v -0.587937 -0.350017 -0.587938
v -0.500000 -0.445487 -0.500000
v -0.392847 -0.523837 -0.392847
v -0.270598 -0.582056 -0.270598
v -0.137950 -0.617908 -0.137950
v -0.042076 0.886919 -0.062971
v -0.212607 0.582056 -0.318190
v -0.308658 0.523837 -0.461939
v -0.392847 0.445487 -0.587938
v -0.461939 0.350017 -0.691341
v -0.513280 0.241096 -0.768177
v -0.544895 0.122909 -0.815493
v -0.555569 0.000000 -0.831469
v -0.544895 -0.122909 -0.815493
v -0.513280 -0.241096 -0.768177
v -0.461939 -0.350017 -0.691341
v -0.392847 -0.445487 -0.587938
v -0.308658 -0.523837 -0.461939
v -0.212607 -0.582056 -0.318190
v -0.108386 -0.617908 -0.162212
v -0.028982 0.886919 -0.069970
v -0.146446 0.582056 -0.353553
v -0.212607 0.523837 -0.513279
v -0.270598 0.445487 -0.653281
v -0.318189 0.350017 -0.768177
v -0.353553 0.241096 -0.853553
v -0.375330 0.122909 -0.906127
v -0.382683 0.000000 -0.923879
v -0.375330 -0.122909 -0.906127
v -0.353553 -0.241096 -0.853553
v -0.318189 -0.350017 -0.768177
v -0.270598 -0.445487 -0.653281
v -0.212607 -0.523837 -0.513279
v -0.146446 -0.582056 -0.353553
v -0.074658 -0.617908 -0.180240
v -0.014775 0.886919 -0.074279
v -0.074658 0.582056 -0.375330
v -0.108386 0.523837 -0.544895
v -0.137950 0.445487 -0.693520
v -0.162211 0.350017 -0.815493
v -0.180240 0.241096 -0.906127
v -0.191341 0.122909 -0.961939
v -0.195090 0.000000 -0.980784
v -0.191341 -0.122909 -0.961939
v -0.180240 -0.241096 -0.906127
v -0.162211 -0.350017 -0.815493
v -0.137950 -0.445487 -0.693520
v -0.108386 -0.523837 -0.544895
v -0.074658 -0.582056 -0.375330
v -0.038060 -0.617908 -0.191342
v 0.000000 0.886919 -0.075735
v 0.000000 0.582056 -0.382683
v 0.000000 0.445487 -0.707107
v 0.000000 0.241096 -0.923879
v 0.000000 -0.241096 -0.923879
v 0.000000 -0.445487 -0.707107
v 0.000000 -0.523837 -0.555570
v 0.000000 -0.582056 -0.382683
v 0.000000 -0.617908 -0.195090
v 0.042088 0.687093 -0.211593
v 0.082559 0.687093 -0.199316
v 0.119858 0.687093 -0.179380
v 0.152550 0.687093 -0.152550
v 0.179380 0.687093 -0.119858
v 0.199316 0.687093 -0.082559
v 0.211593 0.687093 -0.042088
v 0.215738 0.687093 0.000000
v 0.211593 0.687093 0.042088
v 0.199316 0.687093 0.082559
v 0.179380 0.687093 0.119858
v 0.152550 0.687093 0.152550
v 0.119858 0.687093 0.179380
v 0.082559 0.687093 0.199316
v 0.042088 0.687093 0.211593
v -0.000000 0.687093 0.215738
v -0.042088 0.687093 0.211593
v -0.082559 0.687093 0.199316
v -0.119858 0.687093 0.179380
v -0.152550 0.687093 0.152550
v -0.179380 0.687093 0.119858
v -0.199316 0.687093 0.082559
v -0.211593 0.687093 0.042088
v -0.215738 0.687093 -0.000000
v -0.211593 0.687093 -0.042088
v -0.199316 0.687093 -0.082559
v -0.179379 0.687093 -0.119858
v -0.152550 0.687093 -0.152550
v -0.119858 0.687093 -0.179380
v -0.082559 0.687093 -0.199316
v -0.042088 0.687093 -0.211593
v 0.000000 0.687093 -0.215738
v 0.031211 0.762928 -0.156908
v 0.061223 0.762928 -0.147805
v 0.088882 0.762928 -0.133021
v 0.113125 0.762928 -0.113125
v 0.133021 0.762928 -0.088881
v 0.147805 0.762928 -0.061223
v 0.156908 0.762928 -0.031211
v 0.159983 0.762928 0.000000
v 0.156908 0.762928 0.031211
v 0.147805 0.762928 0.061223
v 0.133021 0.762928 0.088882
v 0.113125 0.762928 0.113125
v 0.088881 0.762928 0.133021
v 0.061223 0.762928 0.147805
v 0.031211 0.762928 0.156908
v 0.000000 0.762928 0.159983
v -0.031211 0.762928 0.156908
v -0.061223 0.762928 0.147805
v -0.088881 0.762928 0.133021
v -0.113125 0.762928 0.113125
v -0.133021 0.762928 0.088882
v -0.147804 0.762928 0.061223
v -0.156908 0.762928 0.031211
v -0.159982 0.762928 0.000000
v -0.156908 0.762928 -0.031211
v -0.147804 0.762928 -0.061223
v -0.133020 0.762928 -0.088881
v -0.113125 0.762928 -0.113125
v -0.088881 0.762928 -0.133020
v -0.061223 0.762928 -0.147804
v -0.031211 0.762928 -0.156908
v 0.000000 0.762928 -0.159982
v 0.021684 0.832096 -0.109010
v 0.042534 0.832096 -0.102685
v 0.061749 0.832096 -0.092414
v 0.078592 0.832096 -0.078592
v 0.092414 0.832096 -0.061749
v 0.102685 0.832096 -0.042534
v 0.109010 0.832096 -0.021683
v 0.111146 0.832096 0.000000
v 0.109010 0.832096 0.021684
v 0.102685 0.832096 0.042534
v 0.092414 0.832096 0.061749
v 0.078592 0.832096 0.078592
v 0.061749 0.832096 0.092415
v 0.042534 0.832096 0.102685
v 0.021683 0.832096 0.109010
v 0.000000 0.832096 0.111146
v -0.021683 0.832096 0.109010
v -0.042534 0.832096 0.102685
v -0.061749 0.832096 0.092414
v -0.078592 0.832096 0.078592
v -0.092414 0.832096 0.061749
v -0.102685 0.832096 0.042534
v -0.109010 0.832096 0.021684
v -0.111146 0.832096 0.000000
v -0.109010 0.832096 -0.021683
v -0.102685 0.832096 -0.042534
v -0.092414 0.832096 -0.061749
v -0.078592 0.832096 -0.078592
v -0.061749 0.832096 -0.092414
v -0.042534 0.832096 -0.102685
v -0.021683 0.832096 -0.109010
v 0.000000 0.832096 -0.111146
v 0.058373 0.625595 -0.293462
v 0.114503 0.625595 -0.276435
v 0.166233 0.625595 -0.248785
v 0.211574 0.625595 -0.211574
v 0.248785 0.625595 -0.166233
v 0.276435 0.625595 -0.114503
v 0.293461 0.625595 -0.058373
v 0.299211 0.625595 0.000000
v 0.293461 0.625595 0.058373
v 0.276435 0.625595 0.114503
v 0.248785 0.625595 0.166233
v 0.211574 0.625595 0.211574
v 0.166233 0.625595 0.248785
v 0.114503 0.625595 0.276435
v 0.058373 0.625595 0.293461
v -0.000000 0.625595 0.299211
v -0.058373 0.625595 0.293461
v -0.114503 0.625595 0.276435
v -0.166233 0.625595 0.248785
v -0.211574 0.625595 0.211574
v -0.248785 0.625595 0.166232
v -0.276435 0.625595 0.114503
v -0.293461 0.625595 0.058373
v -0.299211 0.625595 -0.000000
v -0.293461 0.625595 -0.058373
v -0.276435 0.625595 -0.114503
v -0.248784 0.625595 -0.166233
v -0.211574 0.625595 -0.211574
v -0.166232 0.625595 -0.248785
v -0.114503 0.625595 -0.276435
v -0.058373 0.625595 -0.293461
v 0.000000 0.625595 -0.299211
vn -0.0000 0.9190 -0.3944
vn -0.0000 0.7209 -0.6931
vn -0.0000 0.2948 -0.9556
vn -0.0000 -0.0000 -1.0000
vn -0.0000 -0.2948 -0.9556
vn -0.0000 -0.7209 -0.6931
vn 0.1367 0.7136 -0.6871
vn 0.0757 0.9217 -0.3804
vn 0.0769 0.9190 -0.3868
vn 0.1054 0.8416 -0.5298
vn 0.1352 0.7209 -0.6797
vn 0.1640 0.5412 -0.8247
vn 0.1864 0.2948 -0.9372
vn 0.1951 -0.0000 -0.9808
vn 0.1864 -0.2948 -0.9372
vn 0.1640 -0.5412 -0.8247
vn 0.1352 -0.7209 -0.6797
vn 0.1054 -0.8416 -0.5298
vn 0.0769 -0.9190 -0.3868
vn 0.0503 -0.9662 -0.2530
vn 0.0252 -0.9916 -0.1265
vn 0.2681 0.7136 -0.6473
vn 0.1484 0.9217 -0.3583
vn 0.1509 0.9190 -0.3643
vn 0.2067 0.8416 -0.4990
vn 0.2652 0.7209 -0.6403
vn 0.3218 0.5412 -0.7769
vn 0.3657 0.2948 -0.8828
vn 0.3827 -0.0000 -0.9239
vn 0.3657 -0.2948 -0.8828
vn 0.3218 -0.5412 -0.7769
vn 0.2652 -0.7209 -0.6403
vn 0.2067 -0.8416 -0.4990
vn 0.1509 -0.9190 -0.3643
vn 0.0987 -0.9662 -0.2383
vn 0.0494 -0.9916 -0.1192
vn 0.3892 0.7136 -0.5825
vn 0.2155 0.9217 -0.3225
vn 0.2191 0.9190 -0.3279
vn 0.3001 0.8416 -0.4491
vn 0.3850 0.7209 -0.5763
vn 0.4672 0.5412 -0.6992
vn 0.5309 0.2948 -0.7945
vn 0.5556 -0.0000 -0.8315
vn 0.5309 -0.2948 -0.7945
vn 0.4672 -0.5412 -0.6992
vn 0.3850 -0.7209 -0.5763
vn 0.3001 -0.8416 -0.4491
vn 0.2191 -0.9190 -0.3279
vn 0.1433 -0.9662 -0.2145
vn 0.0717 -0.9916 -0.1072
vn 0.4954 0.7136 -0.4954
vn 0.2743 0.9217 -0.2743
vn 0.2789 0.9190 -0.2789
vn 0.3819 0.8416 -0.3819
vn 0.4901 0.7209 -0.4901
vn 0.5946 0.5412 -0.5946
vn 0.6757 0.2948 -0.6757
vn 0.7071 -0.0000 -0.7071
vn 0.6757 -0.2948 -0.6757
vn 0.5946 -0.5412 -0.5946
vn 0.4901 -0.7209 -0.4901
vn 0.3819 -0.8416 -0.3819
vn 0.2789 -0.9190 -0.2789
vn 0.1824 -0.9662 -0.1824
vn 0.0912 -0.9916 -0.0912
vn 0.5825 0.7136 -0.3892
vn 0.3225 0.9217 -0.2155
vn 0.3279 0.9190 -0.2191
vn 0.4491 0.8416 -0.3001
vn 0.5763 0.7209 -0.3850
vn 0.6992 0.5412 -0.4672
vn 0.7945 0.2948 -0.5309
vn 0.8315 -0.0000 -0.5556
vn 0.7945 -0.2948 -0.5309
vn 0.6992 -0.5412 -0.4672
vn 0.5763 -0.7209 -0.3850
vn 0.4491 -0.8416 -0.3001
vn 0.3279 -0.9190 -0.2191
vn 0.2145 -0.9662 -0.1433
vn 0.1072 -0.9916 -0.0717
vn -0.0000 1.0000 -0.0000
vn 0.6473 0.7136 -0.2681
vn 0.3583 0.9217 -0.1484
vn 0.3643 0.9190 -0.1509
vn 0.4990 0.8416 -0.2067
vn 0.6403 0.7209 -0.2652
vn 0.7769 0.5412 -0.3218
vn 0.8828 0.2948 -0.3657
vn 0.9239 -0.0000 -0.3827
vn 0.8828 -0.2948 -0.3657
vn 0.7769 -0.5412 -0.3218
vn 0.6403 -0.7209 -0.2652
vn 0.4990 -0.8416 -0.2067
vn 0.3643 -0.9190 -0.1509
vn 0.2383 -0.9662 -0.0987
vn 0.1192 -0.9916 -0.0494
vn 0.6871 0.7136 -0.1367
vn 0.3804 0.9217 -0.0757
vn 0.3868 0.9190 -0.0769
vn 0.5298 0.8416 -0.1054
vn 0.6797 0.7209 -0.1352
vn 0.8247 0.5412 -0.1640
vn 0.9372 0.2948 -0.1864
vn 0.9808 -0.0000 -0.1951
vn 0.9372 -0.2948 -0.1864
vn 0.8247 -0.5412 -0.1640
vn 0.6797 -0.7209 -0.1352
vn 0.5298 -0.8416 -0.1054
vn 0.3868 -0.9190 -0.0769
vn 0.2530 -0.9662 -0.0503
vn 0.1265 -0.9916 -0.0252
vn 0.7006 0.7136 -0.0000
vn 0.3879 0.9217 -0.0000
vn 0.3944 0.9190 -0.0000
vn 0.5401 0.8416 -0.0000
vn 0.6931 0.7209 -0.0000
vn 0.8409 0.5412 -0.0000
vn 0.9556 0.2948 -0.0000
vn 1.0000 -0.0000 -0.0000
vn 0.9556 -0.2948 -0.0000
vn 0.8409 -0.5412 -0.0000
vn 0.6931 -0.7209 -0.0000
vn 0.5401 -0.8416 -0.0000
vn 0.3944 -0.9190 -0.0000
vn 0.2580 -0.9662 -0.0000
vn 0.1290 -0.9916 -0.0000
vn 0.6871 0.7136 0.1367
vn 0.3804 0.9217 0.0757
vn 0.3868 0.9190 0.0769
vn 0.5298 0.8416 0.1054
vn 0.6797 0.7209 0.1352
vn 0.8247 0.5412 0.1640
vn 0.9372 0.2948 0.1864
vn 0.9808 -0.0000 0.1951
vn 0.9372 -0.2948 0.1864
vn 0.8247 -0.5412 0.1640
vn 0.6797 -0.7209 0.1352
vn 0.5298 -0.8416 0.1054
vn 0.3868 -0.9190 0.0769
vn 0.2530 -0.9662 0.0503
vn 0.1265 -0.9916 0.0252
vn 0.6473 0.7136 0.2681
vn 0.3583 0.9217 0.1484
vn 0.3643 0.9190 0.1509
vn 0.4990 0.8416 0.2067
vn 0.6403 0.7209 0.2652
vn 0.7769 0.5412 0.3218
vn 0.8828 0.2948 0.3657
vn 0.9239 -0.0000 0.3827
vn 0.8828 -0.2948 0.3657
vn 0.7769 -0.5412 0.3218
vn 0.6403 -0.7209 0.2652
vn 0.4990 -0.8416 0.2067
vn 0.3643 -0.9190 0.1509
vn 0.2383 -0.9662 0.0987
vn 0.1192 -0.9916 0.0494
vn 0.5825 0.7136 0.3892
vn 0.3225 0.9217 0.2155
vn 0.3279 0.9190 0.2191
vn 0.4491 0.8416 0.3001
vn 0.5763 0.7209 0.3850
vn 0.6992 0.5412 0.4672
vn 0.7945 0.2948 0.5309
vn 0.8315 -0.0000 0.5556
vn 0.7945 -0.2948 0.5309
vn 0.6992 -0.5412 0.4672
vn 0.5763 -0.7209 0.3850
vn 0.4491 -0.8416 0.3001
vn 0.3279 -0.9190 0.2191
vn 0.2145 -0.9662 0.1433
vn 0.1072 -0.9916 0.0717
vn 0.4954 0.7136 0.4954
vn 0.2743 0.9217 0.2743
vn 0.2789 0.9190 0.2789
vn 0.3819 0.8416 0.3819
vn 0.4901 0.7209 0.4901
vn 0.5946 0.5412 0.5946
vn 0.6757 0.2948 0.6757
vn 0.7071 -0.0000 0.7071
vn 0.6757 -0.2948 0.6757
vn 0.5946 -0.5412 0.5946
vn 0.4901 -0.7209 0.4901
vn 0.3819 -0.8416 0.3819
vn 0.2789 -0.9190 0.2789
vn 0.1824 -0.9662 0.1824
vn 0.0912 -0.9916 0.0912
vn 0.3892 0.7136 0.5825
vn 0.2155 0.9217 0.3225
vn 0.2191 0.9190 0.3279
vn 0.3001 0.8416 0.4491
vn 0.3850 0.7209 0.5763
vn 0.4672 0.5412 0.6992
vn 0.5309 0.2948 0.7945
vn 0.5556 -0.0000 0.8315
vn 0.5309 -0.2948 0.7945
vn 0.4672 -0.5412 0.6992
vn 0.3850 -0.7209 0.5763
vn 0.3001 -0.8416 0.4491
vn 0.2191 -0.9190 0.3279
vn 0.1433 -0.9662 0.2145
vn 0.0717 -0.9916 0.1072
vn 0.2681 0.7136 0.6473
vn 0.1484 0.9217 0.3583
vn 0.1509 0.9190 0.3643
vn 0.2067 0.8416 0.4990
vn 0.2652 0.7209 0.6403
vn 0.3218 0.5412 0.7769
vn 0.3657 0.2948 0.8828
vn 0.3827 -0.0000 0.9239
vn 0.3657 -0.2948 0.8828
vn 0.3218 -0.5412 0.7769
vn 0.2652 -0.7209 0.6403
vn 0.2067 -0.8416 0.4990
vn 0.1509 -0.9190 0.3643
vn 0.0987 -0.9662 0.2383
vn 0.0494 -0.9916 0.1192
vn 0.1367 0.7136 0.6871
vn 0.0757 0.9217 0.3804
vn 0.0769 0.9190 0.3868
vn 0.1054 0.8416 0.5298
vn 0.1352 0.7209 0.6797
vn 0.1640 0.5412 0.8247
vn 0.1864 0.2948 0.9372
vn 0.1951 -0.0000 0.9808
vn 0.1864 -0.2948 0.9372
vn 0.1640 -0.5412 0.8247
vn 0.1352 -0.7209 0.6797
vn 0.1054 -0.8416 0.5298
vn 0.0769 -0.9190 0.3868
vn 0.0503 -0.9662 0.2530
vn 0.0252 -0.9916 0.1265
vn -0.0000 0.7136 0.7006
vn -0.0000 0.9217 0.3879
vn -0.0000 0.9190 0.3944
vn -0.0000 0.8416 0.5401
vn -0.0000 0.7209 0.6931
vn -0.0000 0.5412 0.8409
vn -0.0000 0.2948 0.9556
vn -0.0000 -0.0000 1.0000
vn -0.0000 -0.2948 0.9556
vn -0.0000 -0.5412 0.8409
vn -0.0000 -0.7209 0.6931
vn -0.0000 -0.8416 0.5401
vn -0.0000 -0.9190 0.3944
vn -0.0000 -0.9662 0.2580
vn -0.0000 -0.9916 0.1290
vn -0.1367 0.7136 0.6871
vn -0.0757 0.9217 0.3804
vn -0.0769 0.9190 0.3868
vn -0.1054 0.8416 0.5298
vn -0.1352 0.7209 0.6797
vn -0.1640 0.5412 0.8247
vn -0.1864 0.2948 0.9372
vn -0.1951 -0.0000 0.9808
vn -0.1864 -0.2948 0.9372
vn -0.1640 -0.5412 0.8247
vn -0.1352 -0.7209 0.6797
vn -0.1054 -0.8416 0.5298
vn -0.0769 -0.9190 0.3868
vn -0.0503 -0.9662 0.2530
vn -0.0252 -0.9916 0.1265
vn -0.2681 0.7136 0.6473
vn -0.1484 0.9217 0.3583
vn -0.1509 0.9190 0.3643
vn -0.2067 0.8416 0.4990
vn -0.2652 0.7209 0.6403
vn -0.3218 0.5412 0.7769
vn -0.3657 0.2948 0.8828
vn -0.3827 -0.0000 0.9239
vn -0.3657 -0.2948 0.8828
vn -0.3218 -0.5412 0.7769
vn -0.2652 -0.7209 0.6403
vn -0.2067 -0.8416 0.4990
vn -0.1509 -0.9190 0.3643
vn -0.0987 -0.9662 0.2383
vn -0.0494 -0.9916 0.1192
vn -0.3892 0.7136 0.5825
vn -0.2155 0.9217 0.3225
vn -0.2191 0.9190 0.3279
vn -0.3001 0.8416 0.4491
vn -0.3850 0.7209 0.5763
vn -0.4672 0.5412 0.6992
vn -0.5309 0.2948 0.7945
vn -0.5556 -0.0000 0.8315
vn -0.5309 -0.2948 0.7945
vn -0.4672 -0.5412 0.6992
vn -0.3850 -0.7209 0.5763
vn -0.3001 -0.8416 0.4491
vn -0.2191 -0.9190 0.3279
vn -0.1433 -0.9662 0.2145
vn -0.0717 -0.9916 0.1072
vn -0.4954 0.7136 0.4954
vn -0.2743 0.9217 0.2743
vn -0.2789 0.9190 0.2789
vn -0.3819 0.8416 0.3819
vn -0.4901 0.7209 0.4901
vn -0.5946 0.5412 0.5946
vn -0.6757 0.2948 0.6757
vn -0.7071 -0.0000 0.7071
vn -0.6757 -0.2948 0.6757
vn -0.5946 -0.5412 0.5946
vn -0.4901 -0.7209 0.4901
vn -0.3819 -0.8416 0.3819
vn -0.2789 -0.9190 0.2789
vn -0.1824 -0.9662 0.1824
vn -0.0912 -0.9916 0.0912
vn -0.0000 -1.0000 -0.0000
vn -0.5825 0.7136 0.3892
vn -0.3225 0.9217 0.2155
vn -0.3279 0.9190 0.2191
vn -0.4491 0.8416 0.3001
vn -0.5763 0.7209 0.3850
vn -0.6992 0.5412 0.4672
vn -0.7945 0.2948 0.5309
vn -0.8315 -0.0000 0.5556
vn -0.7945 -0.2948 0.5309
vn -0.6992 -0.5412 0.4672
vn -0.5763 -0.7209 0.3850
vn -0.4491 -0.8416 0.3001
vn -0.3279 -0.9190 0.2191
vn -0.2145 -0.9662 0.1433
vn -0.1072 -0.9916 0.0717
vn -0.6473 0.7136 0.2681
vn -0.3583 0.9217 0.1484
vn -0.3643 0.9190 0.1509
vn -0.4990 0.8416 0.2067
vn -0.6403 0.7209 0.2652
vn -0.7769 0.5412 0.3218
vn -0.8828 0.2948 0.3657
vn -0.9239 -0.0000 0.3827
vn -0.8828 -0.2948 0.3657
vn -0.7769 -0.5412 0.3218
vn -0.6403 -0.7209 0.2652
vn -0.4990 -0.8416 0.2067
vn -0.3643 -0.9190 0.1509
vn -0.2383 -0.9662 0.0987
vn -0.1192 -0.9916 0.0494
vn -0.6871 0.7136 0.1367
vn -0.3804 0.9217 0.0757
vn -0.3868 0.9190 0.0769
vn -0.5298 0.8416 0.1054
vn -0.6797 0.7209 0.1352
vn -0.8247 0.5412 0.1640
vn -0.9372 0.2948 0.1864
vn -0.9808 -0.0000 0.1951
vn -0.9372 -0.2948 0.1864
vn -0.8247 -0.5412 0.1640
vn -0.6797 -0.7209 0.1352
vn -0.5298 -0.8416 0.1054
vn -0.3868 -0.9190 0.0769
vn -0.2530 -0.9662 0.0503
vn -0.1265 -0.9916 0.0252
vn -0.7006 0.7136 -0.0000
vn -0.3879 0.9217 -0.0000
vn -0.3944 0.9190 -0.0000
vn -0.5401 0.8416 -0.0000
vn -0.6931 0.7209 -0.0000
vn -0.8409 0.5412 -0.0000
vn -0.9556 0.2948 -0.0000
vn -1.0000 -0.0000 -0.0000
vn -0.9556 -0.2948 -0.0000
vn -0.8409 -0.5412 -0.0000
vn -0.6931 -0.7209 -0.0000
vn -0.5401 -0.8416 -0.0000
vn -0.3944 -0.9190 -0.0000
vn -0.2580 -0.9662 -0.0000
vn -0.1290 -0.9916 -0.0000
vn -0.6871 0.7136 -0.1367
vn -0.3804 0.9217 -0.0757
vn -0.3868 0.9190 -0.0769
vn -0.5298 0.8416 -0.1054
vn -0.6797 0.7209 -0.1352
vn -0.8247 0.5412 -0.1640
vn -0.9372 0.2948 -0.1864
vn -0.9808 -0.0000 -0.1951
vn -0.9372 -0.2948 -0.1864
vn -0.8247 -0.5412 -0.1640
vn -0.6797 -0.7209 -0.1352
vn -0.5298 -0.8416 -0.1054
vn -0.3868 -0.9190 -0.0769
vn -0.2530 -0.9662 -0.0503
vn -0.1265 -0.9916 -0.0252
vn -0.6473 0.7136 -0.2681
vn -0.3583 0.9217 -0.1484
vn -0.3643 0.9190 -0.1509
vn -0.4990 0.8416 -0.2067
vn -0.6403 0.7209 -0.2652
vn -0.7769 0.5412 -0.3218
vn -0.8828 0.2948 -0.3657
vn -0.9239 -0.0000 -0.3827
vn -0.8828 -0.2948 -0.3657
vn -0.7769 -0.5412 -0.3218
vn -0.6403 -0.7209 -0.2652
vn -0.4990 -0.8416 -0.2067
vn -0.3643 -0.9190 -0.1509
vn -0.2383 -0.9662 -0.0987
vn -0.1192 -0.9916 -0.0494
vn -0.5825 0.7136 -0.3892
vn -0.3225 0.9217 -0.2155
vn -0.3279 0.9190 -0.2191
vn -0.4491 0.8416 -0.3001
vn -0.5763 0.7209 -0.3850
vn -0.6992 0.5412 -0.4672
vn -0.7945 0.2948 -0.5309
vn -0.8315 -0.0000 -0.5556
vn -0.7945 -0.2948 -0.5309
vn -0.6992 -0.5412 -0.4672
vn -0.5763 -0.7209 -0.3850
vn -0.4491 -0.8416 -0.3001
vn -0.3279 -0.9190 -0.2191
vn -0.2145 -0.9662 -0.1433
vn -0.1072 -0.9916 -0.0717
vn -0.4954 0.7136 -0.4954
vn -0.2743 0.9217 -0.2743
vn -0.2789 0.9190 -0.2789
vn -0.3819 0.8416 -0.3819
vn -0.4901 0.7209 -0.4901
vn -0.5946 0.5412 -0.5946
vn -0.6757 0.2948 -0.6757
vn -0.7071 -0.0000 -0.7071
vn -0.6757 -0.2948 -0.6757
vn -0.5946 -0.5412 -0.5946
vn -0.4901 -0.7209 -0.4901
vn -0.3819 -0.8416 -0.3819
vn -0.2789 -0.9190 -0.2789
vn -0.1824 -0.9662 -0.1824
vn -0.0912 -0.9916 -0.0912
vn -0.3892 0.7136 -0.5825
vn -0.2155 0.9217 -0.3225
vn -0.2191 0.9190 -0.3279
vn -0.3001 0.8416 -0.4491
vn -0.3850 0.7209 -0.5763
vn -0.4672 0.5412 -0.6992
vn -0.5309 0.2948 -0.7945
vn -0.5556 -0.0000 -0.8315
vn -0.5309 -0.2948 -0.7945
vn -0.4672 -0.5412 -0.6992
vn -0.3850 -0.7209 -0.5763
vn -0.3001 -0.8416 -0.4491
vn -0.2191 -0.9190 -0.3279
vn -0.1433 -0.9662 -0.2145
vn -0.0717 -0.9916 -0.1072
vn -0.2681 0.7136 -0.6473
vn -0.1484 0.9217 -0.3583
vn -0.1509 0.9190 -0.3643
vn -0.2067 0.8416 -0.4990
vn -0.2652 0.7209 -0.6403
vn -0.3218 0.5412 -0.7769
vn -0.3657 0.2948 -0.8828
vn -0.3827 -0.0000 -0.9239
vn -0.3657 -0.2948 -0.8828
vn -0.3218 -0.5412 -0.7769
vn -0.2652 -0.7209 -0.6403
vn -0.2067 -0.8416 -0.4990
vn -0.1509 -0.9190 -0.3643
vn -0.0987 -0.9662 -0.2383
vn -0.0494 -0.9916 -0.1192
vn -0.1367 0.7136 -0.6871
vn -0.0757 0.9217 -0.3804
vn -0.0769 0.9190 -0.3868
vn -0.1054 0.8416 -0.5298
vn -0.1352 0.7209 -0.6797
vn -0.1640 0.5412 -0.8247
vn -0.1864 0.2948 -0.9372
vn -0.1951 -0.0000 -0.9808
vn -0.1864 -0.2948 -0.9372
vn -0.1640 -0.5412 -0.8247
vn -0.1352 -0.7209 -0.6797
vn -0.1054 -0.8416 -0.5298
vn -0.0769 -0.9190 -0.3868
vn -0.0503 -0.9662 -0.2530
vn -0.0252 -0.9916 -0.1265
vn -0.0000 0.7136 -0.7006
vn -0.0000 0.9217 -0.3879
vn -0.0000 0.8416 -0.5401
vn -0.0000 0.5412 -0.8409
vn -0.0000 -0.5412 -0.8409
vn -0.0000 -0.8416 -0.5401
vn -0.0000 -0.9190 -0.3944
vn -0.0000 -0.9662 -0.2580
vn -0.0000 -0.9916 -0.1290
vn 0.1371 0.7115 -0.6892
vn 0.2689 0.7115 -0.6492
vn 0.3904 0.7115 -0.5843
vn 0.4969 0.7115 -0.4969
vn 0.5843 0.7115 -0.3904
vn 0.6492 0.7115 -0.2689
vn 0.6892 0.7115 -0.1371
vn 0.7027 0.7115 -0.0000
vn 0.6892 0.7115 0.1371
vn 0.6492 0.7115 0.2689
vn 0.5843 0.7115 0.3904
vn 0.4969 0.7115 0.4969
vn 0.3904 0.7115 0.5843
vn 0.2689 0.7115 0.6492
vn 0.1371 0.7115 0.6892
vn -0.0000 0.7115 0.7027
vn -0.1371 0.7115 0.6892
vn -0.2689 0.7115 0.6492
vn -0.3904 0.7115 0.5843
vn -0.4969 0.7115 0.4969
vn -0.5843 0.7115 0.3904
vn -0.6492 0.7115 0.2689
vn -0.6892 0.7115 0.1371
vn -0.7027 0.7115 -0.0000
vn -0.6892 0.7115 -0.1371
vn -0.6492 0.7115 -0.2689
vn -0.5843 0.7115 -0.3904
vn -0.4969 0.7115 -0.4969
vn -0.3904 0.7115 -0.5843
vn -0.2689 0.7115 -0.6492
vn -0.1371 0.7115 -0.6892
vn -0.0000 0.7115 -0.7027
vn 0.1582 0.5849 -0.7955
vn 0.3104 0.5849 -0.7494
vn 0.4506 0.5849 -0.6744
vn 0.5735 0.5849 -0.5735
vn 0.6744 0.5849 -0.4506
vn 0.7494 0.5849 -0.3104
vn 0.7955 0.5849 -0.1582
vn 0.8111 0.5849 -0.0000
vn 0.7955 0.5849 0.1582
vn 0.7494 0.5849 0.3104
vn 0.6744 0.5849 0.4506
vn 0.5735 0.5849 0.5735
vn 0.4506 0.5849 0.6744
vn 0.3104 0.5849 0.7494
vn 0.1582 0.5849 0.7955
vn -0.0000 0.5849 0.8111
vn -0.1582 0.5849 0.7955
vn -0.3104 0.5849 0.7494
vn -0.4506 0.5849 0.6744
vn -0.5735 0.5849 0.5735
vn -0.6744 0.5849 0.4506
vn -0.7494 0.5849 0.3104
vn -0.7955 0.5849 0.1582
vn -0.8111 0.5849 -0.0000
vn -0.7955 0.5849 -0.1582
vn -0.7494 0.5849 -0.3104
vn -0.6744 0.5849 -0.4506
vn -0.5735 0.5849 -0.5735
vn -0.4506 0.5849 -0.6744
vn -0.3104 0.5849 -0.7494
vn -0.1582 0.5849 -0.7955
vn -0.0000 0.5849 -0.8111
vn 0.1616 0.5604 -0.8123
vn 0.3169 0.5604 -0.7652
vn 0.4601 0.5604 -0.6886
vn 0.5856 0.5604 -0.5856
vn 0.6886 0.5604 -0.4601
vn 0.7652 0.5604 -0.3169
vn 0.8123 0.5604 -0.1616
vn 0.8282 0.5604 -0.0000
vn 0.8123 0.5604 0.1616
vn 0.7652 0.5604 0.3169
vn 0.6886 0.5604 0.4601
vn 0.5856 0.5604 0.5856
vn 0.4601 0.5604 0.6886
vn 0.3169 0.5604 0.7652
vn 0.1616 0.5604 0.8123
vn -0.0000 0.5604 0.8282
vn -0.1616 0.5604 0.8123
vn -0.3169 0.5604 0.7652
vn -0.4601 0.5604 0.6886
vn -0.5856 0.5604 0.5856
vn -0.6886 0.5604 0.4601
vn -0.7652 0.5604 0.3169
vn -0.8123 0.5604 0.1616
vn -0.8282 0.5604 -0.0000
vn -0.8123 0.5604 -0.1616
vn -0.7652 0.5604 -0.3169
vn -0.6886 0.5604 -0.4601
vn -0.5856 0.5604 -0.5856
vn -0.4601 0.5604 -0.6886
vn -0.3169 0.5604 -0.7652
vn -0.1616 0.5604 -0.8123
vn -0.0000 0.5604 -0.8282
vn 0.1026 0.8505 -0.5158
vn 0.2013 0.8505 -0.4859
vn 0.2922 0.8505 -0.4373
vn 0.3719 0.8505 -0.3719
vn 0.4373 0.8505 -0.2922
vn 0.4859 0.8505 -0.2013
vn 0.5158 0.8505 -0.1026
vn 0.5259 0.8505 -0.0000
vn 0.5158 0.8505 0.1026
vn 0.4859 0.8505 0.2013
vn 0.4373 0.8505 0.2922
vn 0.3719 0.8505 0.3719
vn 0.2922 0.8505 0.4373
vn 0.2013 0.8505 0.4859
vn 0.1026 0.8505 0.5158
vn -0.0000 0.8505 0.5259
vn -0.1026 0.8505 0.5158
vn -0.2013 0.8505 0.4859
vn -0.2922 0.8505 0.4373
vn -0.3719 0.8505 0.3719
vn -0.4373 0.8505 0.2922
vn -0.4859 0.8505 0.2013
vn -0.5158 0.8505 0.1026
vn -0.5259 0.8505 -0.0000
vn -0.5158 0.8505 -0.1026
vn -0.4859 0.8505 -0.2013
vn -0.4373 0.8505 -0.2922
vn -0.3719 0.8505 -0.3719
vn -0.2922 0.8505 -0.4373
vn -0.2013 0.8505 -0.4859
vn -0.1026 0.8505 -0.5158
vn -0.0000 0.8505 -0.5259
vt 0.622731 0.968128
vt 0.622731 0.999359
vt 0.593912 0.999359
vt 0.593912 0.968128
vt 0.622731 0.773485
vt 0.622731 0.798004
vt 0.593912 0.798004
vt 0.593912 0.773485
vt 0.622731 0.940005
vt 0.593912 0.940005
vt 0.622731 0.747276
vt 0.593912 0.747276
vt 0.622731 0.914534
vt 0.593912 0.914534
vt 0.622731 0.717698
vt 0.593912 0.717698
vt 0.622731 0.891530
vt 0.593912 0.891530
vt 0.622731 0.682600
vt 0.593912 0.682600
vt 0.622731 0.869235
vt 0.593912 0.869235
vt 0.625219 0.319646
vt 0.662245 0.308425
vt 0.665229 0.323431
vt 0.626730 0.327220
vt 0.622731 0.845579
vt 0.593912 0.845579
vt 0.142873 0.338800
vt 0.133613 0.333772
vt 0.143717 0.336907
vt 0.587521 0.331096
vt 0.622731 0.820771
vt 0.593912 0.820771
vt 0.152049 0.343864
vt 0.153697 0.340069
vt 0.563363 0.845579
vt 0.563363 0.820771
vt 0.144174 0.334878
vt 0.154494 0.336022
vt 0.563363 0.798004
vt 0.563363 0.999359
vt 0.563363 0.968128
vt 0.563363 0.773485
vt 0.563363 0.940005
vt 0.563363 0.747276
vt 0.563363 0.914534
vt 0.563363 0.717698
vt 0.563363 0.891530
vt 0.563363 0.682600
vt 0.563363 0.869235
vt 0.665231 0.338727
vt 0.626737 0.334944
vt 0.535175 0.747276
vt 0.535175 0.717698
vt 0.535175 0.914534
vt 0.535175 0.891530
vt 0.535175 0.682600
vt 0.535175 0.869235
vt 0.662256 0.353732
vt 0.625228 0.342519
vt 0.535175 0.845579
vt 0.144164 0.332798
vt 0.535175 0.820771
vt 0.154532 0.331905
vt 0.535175 0.798004
vt 0.535175 0.999359
vt 0.535175 0.968128
vt 0.535175 0.773485
vt 0.535175 0.940005
vt 0.507457 0.820771
vt 0.507457 0.798004
vt 0.507457 0.999359
vt 0.507457 0.968128
vt 0.507457 0.773485
vt 0.507457 0.940005
vt 0.507457 0.747276
vt 0.507457 0.914534
vt 0.507457 0.717698
vt 0.507457 0.891530
vt 0.507457 0.682600
vt 0.507457 0.869235
vt 0.656409 0.367876
vt 0.622271 0.349653
vt 0.507457 0.845579
vt 0.143748 0.330764
vt 0.153768 0.327856
vt 0.239350 0.717698
vt 0.239350 0.682600
vt 0.239350 0.891530
vt 0.239350 0.869235
vt 0.647911 0.380613
vt 0.617979 0.356073
vt 0.239350 0.845579
vt 0.143002 0.328823
vt 0.239350 0.820771
vt 0.152200 0.324054
vt 0.239350 0.798004
vt 0.239350 0.999359
vt 0.239350 0.968128
vt 0.239350 0.773485
vt 0.239350 0.940005
vt 0.239350 0.747276
vt 0.239350 0.914534
vt 0.200565 0.999359
vt 0.200565 0.968128
vt 0.200565 0.798004
vt 0.200565 0.773485
vt 0.200565 0.940005
vt 0.200565 0.747276
vt 0.200565 0.914534
vt 0.200565 0.717698
vt 0.200565 0.891530
vt 0.200565 0.682600
vt 0.200565 0.869235
vt 0.637086 0.391452
vt 0.612517 0.361532
vt 0.200565 0.845579
vt 0.141840 0.327099
vt 0.200565 0.820771
vt 0.149958 0.320615
vt 0.162182 0.891530
vt 0.162182 0.869235
vt 0.624349 0.399967
vt 0.606101 0.365828
vt 0.162182 0.845579
vt 0.140366 0.325636
vt 0.162182 0.820771
vt 0.147083 0.317674
vt 0.162182 0.798004
vt 0.162182 0.999359
vt 0.162182 0.968128
vt 0.162182 0.773485
vt 0.162182 0.940005
vt 0.162182 0.747276
vt 0.162182 0.914534
vt 0.162182 0.717698
vt 0.162182 0.682600
vt 0.128857 0.798004
vt 0.128857 0.773485
vt 0.128857 0.968128
vt 0.128857 0.940005
vt 0.128857 0.747276
vt 0.128857 0.914534
vt 0.128857 0.717698
vt 0.128857 0.891530
vt 0.128857 0.682600
vt 0.128857 0.869235
vt 0.610200 0.405829
vt 0.598969 0.368789
vt 0.128857 0.845579
vt 0.138668 0.324434
vt 0.128857 0.820771
vt 0.143675 0.315384
vt 0.128857 0.999359
vt 0.595182 0.408817
vt 0.591396 0.370301
vt 0.089231 0.869235
vt 0.089231 0.845579
vt 0.136744 0.323642
vt 0.089231 0.820771
vt 0.139908 0.313773
vt 0.089231 0.798004
vt 0.089231 0.999359
vt 0.089231 0.968128
vt 0.089231 0.773485
vt 0.089231 0.940005
vt 0.089231 0.747276
vt 0.089231 0.914534
vt 0.089231 0.717698
vt 0.089231 0.891530
vt 0.089231 0.682600
vt 0.046331 0.968128
vt 0.046331 0.940005
vt 0.046331 0.773485
vt 0.046331 0.747276
vt 0.046331 0.914534
vt 0.046331 0.717698
vt 0.046331 0.891530
vt 0.046331 0.682600
vt 0.046331 0.869235
vt 0.579874 0.408817
vt 0.583673 0.370306
vt 0.046331 0.845579
vt 0.134706 0.323238
vt 0.046331 0.820771
vt 0.135895 0.312932
vt 0.046331 0.798004
vt 0.046331 0.999359
vt 0.005691 0.869235
vt 0.005691 0.845579
vt 0.132631 0.323238
vt 0.576097 0.368805
vt 0.005691 0.820771
vt 0.131794 0.312893
vt 0.005691 0.798004
vt 0.005691 0.999359
vt 0.005691 0.968128
vt 0.005691 0.773485
vt 0.005691 0.940005
vt 0.005691 0.747276
vt 0.005691 0.914534
vt 0.005691 0.717698
vt 0.005691 0.891530
vt 0.005691 0.682600
vt 0.564862 0.405831
vt 0.998768 0.747276
vt 0.998768 0.773485
vt 0.974846 0.773485
vt 0.974846 0.747276
vt 0.998768 0.914534
vt 0.998768 0.940005
vt 0.974846 0.940005
vt 0.974846 0.914534
vt 0.998768 0.717698
vt 0.974846 0.717698
vt 0.998768 0.891530
vt 0.974846 0.891530
vt 0.998768 0.682600
vt 0.974846 0.682600
vt 0.998768 0.869235
vt 0.974846 0.869235
vt 0.550717 0.399978
vt 0.568963 0.365845
vt 0.998768 0.845579
vt 0.974846 0.845579
vt 0.130597 0.323641
vt 0.998768 0.820771
vt 0.974846 0.820771
vt 0.127765 0.313658
vt 0.998768 0.798004
vt 0.974846 0.798004
vt 0.998768 0.968128
vt 0.998768 0.999359
vt 0.974846 0.999359
vt 0.974846 0.968128
vt 0.562539 0.361559
vt 0.947960 0.845579
vt 0.947960 0.820771
vt 0.128683 0.324431
vt 0.123965 0.315194
vt 0.947960 0.798004
vt 0.947960 0.999359
vt 0.947960 0.968128
vt 0.947960 0.773485
vt 0.947960 0.940005
vt 0.947960 0.747276
vt 0.947960 0.914534
vt 0.947960 0.717698
vt 0.947960 0.891530
vt 0.947960 0.682600
vt 0.947960 0.869235
vt 0.537986 0.391473
vt 0.922608 0.747276
vt 0.922608 0.717698
vt 0.922608 0.914534
vt 0.922608 0.891530
vt 0.922608 0.682600
vt 0.922608 0.869235
vt 0.527161 0.380649
vt 0.557073 0.356103
vt 0.922608 0.845579
vt 0.126961 0.325578
vt 0.922608 0.820771
vt 0.120540 0.317446
vt 0.922608 0.798004
vt 0.922608 0.999359
vt 0.922608 0.968128
vt 0.922608 0.773485
vt 0.922608 0.940005
vt 0.125497 0.327036
vt 0.117634 0.320328
vt 0.893080 0.820771
vt 0.893080 0.798004
vt 0.893080 0.999359
vt 0.893080 0.968128
vt 0.893080 0.773485
vt 0.893080 0.940005
vt 0.893080 0.747276
vt 0.893080 0.914534
vt 0.893080 0.717698
vt 0.893080 0.891530
vt 0.893080 0.682600
vt 0.893080 0.869235
vt 0.518650 0.367923
vt 0.552787 0.349678
vt 0.893080 0.845579
vt 0.864145 0.914534
vt 0.864145 0.891530
vt 0.864145 0.717698
vt 0.864145 0.682600
vt 0.864145 0.869235
vt 0.512789 0.353776
vt 0.549826 0.342546
vt 0.864145 0.845579
vt 0.124346 0.328751
vt 0.864145 0.820771
vt 0.115264 0.323681
vt 0.864145 0.798004
vt 0.864145 0.999359
vt 0.864145 0.968128
vt 0.864145 0.773485
vt 0.864145 0.940005
vt 0.864145 0.747276
vt 0.859896 0.820771
vt 0.859896 0.798004
vt 0.859896 0.999359
vt 0.859896 0.968128
vt 0.859896 0.773485
vt 0.859896 0.940005
vt 0.859896 0.747276
vt 0.859896 0.914534
vt 0.859896 0.717698
vt 0.859896 0.891530
vt 0.859896 0.682600
vt 0.859896 0.869235
vt 0.509802 0.338761
vt 0.548313 0.334972
vt 0.859896 0.845579
vt 0.123555 0.330659
vt 0.113593 0.327453
vt 0.854037 0.717698
vt 0.854037 0.682600
vt 0.854037 0.891530
vt 0.854037 0.869235
vt 0.509801 0.323456
vt 0.548307 0.327249
vt 0.854037 0.845579
vt 0.123157 0.332681
vt 0.854037 0.820771
vt 0.112775 0.331501
vt 0.854037 0.798004
vt 0.854037 0.999359
vt 0.854037 0.968128
vt 0.854037 0.773485
vt 0.854037 0.940005
vt 0.854037 0.747276
vt 0.854037 0.914534
vt 0.847866 0.999359
vt 0.847866 0.968128
vt 0.847866 0.798004
vt 0.847866 0.773485
vt 0.847866 0.940005
vt 0.847866 0.747276
vt 0.847866 0.914534
vt 0.847866 0.717698
vt 0.847866 0.891530
vt 0.847866 0.682600
vt 0.847866 0.869235
vt 0.512784 0.308448
vt 0.549808 0.319672
vt 0.847866 0.845579
vt 0.123099 0.334746
vt 0.847866 0.820771
vt 0.112799 0.335618
vt 0.841212 0.891530
vt 0.841212 0.869235
vt 0.518632 0.294306
vt 0.552766 0.312537
vt 0.841212 0.845579
vt 0.123511 0.336771
vt 0.841212 0.820771
vt 0.113491 0.339672
vt 0.841212 0.798004
vt 0.841212 0.999359
vt 0.841212 0.968128
vt 0.841212 0.773485
vt 0.841212 0.940005
vt 0.841212 0.747276
vt 0.841212 0.914534
vt 0.841212 0.717698
vt 0.841212 0.682600
vt 0.834733 0.798004
vt 0.834733 0.773485
vt 0.834733 0.968128
vt 0.834733 0.940005
vt 0.834733 0.747276
vt 0.834733 0.914534
vt 0.834733 0.717698
vt 0.834733 0.891530
vt 0.834733 0.682600
vt 0.834733 0.869235
vt 0.527131 0.281570
vt 0.557059 0.306117
vt 0.834733 0.845579
vt 0.124254 0.338703
vt 0.834733 0.820771
vt 0.115094 0.343458
vt 0.834733 0.999359
vt 0.537958 0.270732
vt 0.562523 0.300659
vt 0.826667 0.869235
vt 0.826667 0.845579
vt 0.125413 0.340418
vt 0.826667 0.820771
vt 0.117291 0.346926
vt 0.826667 0.798004
vt 0.826667 0.999359
vt 0.826667 0.968128
vt 0.826667 0.773485
vt 0.826667 0.940005
vt 0.826667 0.747276
vt 0.826667 0.914534
vt 0.826667 0.717698
vt 0.826667 0.891530
vt 0.826667 0.682600
vt 0.820584 0.773485
vt 0.820584 0.747276
vt 0.820584 0.940005
vt 0.820584 0.914534
vt 0.820584 0.717698
vt 0.820584 0.891530
vt 0.820584 0.682600
vt 0.820584 0.869235
vt 0.550697 0.262218
vt 0.568940 0.296364
vt 0.820584 0.845579
vt 0.126841 0.341920
vt 0.820584 0.820771
vt 0.120157 0.349875
vt 0.820584 0.798004
vt 0.820584 0.999359
vt 0.820584 0.968128
vt 0.128571 0.343063
vt 0.576072 0.293404
vt 0.810539 0.845579
vt 0.810539 0.820771
vt 0.123570 0.352159
vt 0.810539 0.798004
vt 0.810539 0.999359
vt 0.810539 0.968128
vt 0.810539 0.773485
vt 0.810539 0.940005
vt 0.810539 0.747276
vt 0.810539 0.914534
vt 0.810539 0.717698
vt 0.810539 0.891530
vt 0.810539 0.682600
vt 0.810539 0.869235
vt 0.564849 0.256357
vt 0.803118 0.940005
vt 0.803118 0.914534
vt 0.803118 0.747276
vt 0.803118 0.717698
vt 0.803118 0.891530
vt 0.803118 0.682600
vt 0.803118 0.869235
vt 0.579871 0.253371
vt 0.583646 0.291893
vt 0.803118 0.845579
vt 0.130468 0.343906
vt 0.803118 0.820771
vt 0.127338 0.353787
vt 0.803118 0.798004
vt 0.803118 0.999359
vt 0.803118 0.968128
vt 0.803118 0.773485
vt 0.797644 0.845579
vt 0.797644 0.820771
vt 0.132505 0.344304
vt 0.131356 0.354586
vt 0.797644 0.798004
vt 0.797644 0.999359
vt 0.797644 0.968128
vt 0.797644 0.773485
vt 0.797644 0.940005
vt 0.797644 0.747276
vt 0.797644 0.914534
vt 0.797644 0.717698
vt 0.797644 0.891530
vt 0.797644 0.682600
vt 0.797644 0.869235
vt 0.595184 0.253374
vt 0.591368 0.291890
vt 0.791821 0.747276
vt 0.791821 0.717698
vt 0.791821 0.914534
vt 0.791821 0.891530
vt 0.791821 0.682600
vt 0.791821 0.869235
vt 0.610200 0.256365
vt 0.598943 0.293394
vt 0.791821 0.845579
vt 0.134580 0.344297
vt 0.791821 0.820771
vt 0.135461 0.354684
vt 0.791821 0.798004
vt 0.791821 0.999359
vt 0.791821 0.968128
vt 0.791821 0.773485
vt 0.791821 0.940005
vt 0.136608 0.343887
vt 0.139495 0.353885
vt 0.739565 0.820771
vt 0.739565 0.798004
vt 0.739565 0.999359
vt 0.739565 0.968128
vt 0.739565 0.773485
vt 0.739565 0.940005
vt 0.739565 0.747276
vt 0.739565 0.914534
vt 0.739565 0.717698
vt 0.739565 0.891530
vt 0.739565 0.682600
vt 0.739565 0.869235
vt 0.624343 0.262227
vt 0.606080 0.296346
vt 0.739565 0.845579
vt 0.710688 0.914534
vt 0.710688 0.891530
vt 0.710688 0.717698
vt 0.710688 0.682600
vt 0.710688 0.869235
vt 0.637069 0.270735
vt 0.612502 0.300634
vt 0.710688 0.845579
vt 0.138544 0.343145
vt 0.710688 0.820771
vt 0.143266 0.352281
vt 0.710688 0.798004
vt 0.710688 0.999359
vt 0.710688 0.968128
vt 0.710688 0.773485
vt 0.710688 0.940005
vt 0.710688 0.747276
vt 0.680626 0.820771
vt 0.680626 0.798004
vt 0.680626 0.999359
vt 0.680626 0.968128
vt 0.680626 0.773485
vt 0.680626 0.940005
vt 0.680626 0.747276
vt 0.680626 0.914534
vt 0.680626 0.717698
vt 0.680626 0.891530
vt 0.680626 0.682600
vt 0.680626 0.869235
vt 0.647890 0.281560
vt 0.617966 0.306093
vt 0.680626 0.845579
vt 0.140266 0.341990
vt 0.146716 0.350088
vt 0.651083 0.717698
vt 0.651083 0.682600
vt 0.651083 0.891530
vt 0.651083 0.869235
vt 0.656391 0.294287
vt 0.622259 0.312512
vt 0.651083 0.845579
vt 0.141728 0.340524
vt 0.651083 0.820771
vt 0.149680 0.347247
vt 0.651083 0.798004
vt 0.651083 0.999359
vt 0.651083 0.968128
vt 0.651083 0.773485
vt 0.651083 0.940005
vt 0.651083 0.747276
vt 0.651083 0.914534
vt 0.206522 0.394808
vt 0.182374 0.374587
vt 0.189391 0.364370
vt 0.216931 0.379523
vt 0.193340 0.407815
vt 0.173591 0.383341
vt 0.177883 0.418033
vt 0.163179 0.390131
vt 0.160715 0.425083
vt 0.151695 0.394883
vt 0.142475 0.428760
vt 0.139477 0.397209
vt 0.123816 0.428768
vt 0.127022 0.397205
vt 0.105465 0.425157
vt 0.114778 0.394761
vt 0.088154 0.417965
vt 0.103223 0.389966
vt 0.072509 0.407563
vt 0.092798 0.382996
vt 0.059179 0.394258
vt 0.083904 0.374116
vt 0.048694 0.378582
vt 0.076997 0.363580
vt 0.041528 0.361106
vt 0.072173 0.351949
vt 0.037860 0.342539
vt 0.069715 0.339567
vt 0.037839 0.323552
vt 0.069823 0.326914
vt 0.041633 0.304878
vt 0.072414 0.314518
vt 0.049130 0.287324
vt 0.077404 0.302869
vt 0.059965 0.271615
vt 0.084603 0.292449
vt 0.073647 0.258319
vt 0.093631 0.283572
vt 0.089715 0.248041
vt 0.104255 0.276638
vt 0.107448 0.241104
vt 0.116095 0.272122
vt 0.126178 0.237905
vt 0.128526 0.269917
vt 0.145102 0.238451
vt 0.141117 0.270199
vt 0.163479 0.242685
vt 0.153378 0.272939
vt 0.180605 0.250400
vt 0.164838 0.278010
vt 0.195841 0.261263
vt 0.175063 0.285203
vt 0.208632 0.274826
vt 0.183672 0.294225
vt 0.218524 0.290554
vt 0.190349 0.304723
vt 0.225182 0.307842
vt 0.194851 0.316292
vt 0.228390 0.326039
vt 0.197013 0.328492
vt 0.228052 0.344499
vt 0.196892 0.340876
vt 0.224182 0.362537
vt 0.194268 0.352985
vt 0.163375 0.358683
vt 0.167571 0.352374
vt 0.157921 0.363958
vt 0.151615 0.368227
vt 0.144522 0.371022
vt 0.137051 0.372391
vt 0.129453 0.372353
vt 0.122027 0.370773
vt 0.115021 0.367834
vt 0.108768 0.363525
vt 0.103440 0.358114
vt 0.099119 0.351815
vt 0.096310 0.344697
vt 0.094880 0.337180
vt 0.095023 0.329536
vt 0.096680 0.322102
vt 0.099567 0.315041
vt 0.103820 0.308651
vt 0.109391 0.303366
vt 0.115861 0.299303
vt 0.122925 0.296457
vt 0.130416 0.295069
vt 0.138032 0.295182
vt 0.145474 0.296786
vt 0.152453 0.299809
vt 0.158706 0.304134
vt 0.163993 0.309591
vt 0.168118 0.315964
vt 0.170932 0.323015
vt 0.172333 0.330475
vt 0.172119 0.338047
vt 0.170593 0.345447
vt 0.243313 0.393955
vt 0.252753 0.371606
vt 0.257824 0.347967
vt 0.258315 0.323760
vt 0.254178 0.299859
vt 0.245525 0.277115
vt 0.232620 0.256373
vt 0.215884 0.238428
vt 0.195893 0.223996
vt 0.173362 0.213678
vt 0.149121 0.207939
vt 0.124095 0.207079
vt 0.099277 0.211216
vt 0.075703 0.220260
vt 0.054356 0.233831
vt 0.036072 0.251440
vt 0.021765 0.272416
vt 0.011985 0.295766
vt 0.007105 0.320465
vt 0.007105 0.345519
vt 0.011992 0.370053
vt 0.021646 0.393067
vt 0.035483 0.413713
vt 0.053088 0.431256
vt 0.073779 0.444997
vt 0.096724 0.454292
vt 0.120886 0.458988
vt 0.145451 0.458898
vt 0.169462 0.454044
vt 0.192007 0.444697
vt 0.212311 0.431218
vt 0.229632 0.414092
s 1
usemtl マテリアル
f 1/1/1 475/2/475 8/3/8 9/4/9
f 6/5/6 478/6/478 16/7/16 17/8/17
f 476/9/476 1/1/1 9/4/9 10/10/10
f 479/11/479 6/5/6 17/8/17 18/12/18
f 2/13/2 476/9/476 10/10/10 11/14/11
f 480/15/480 479/11/479 18/12/18 19/16/19
f 477/17/477 2/13/2 11/14/11 12/18/12
f 481/19/481 480/15/480 19/16/19 20/20/20
f 3/21/3 477/17/477 12/18/12 13/22/13
f 482/23/482 481/24/481 20/25/20 21/26/21
f 4/27/4 3/21/3 13/22/13 14/28/14
f 474/29/474 82/30/82 7/31/7
f 308/32/308 482/23/482 21/26/21
f 5/33/5 4/27/4 14/28/14 15/34/15
f 578/35/578 474/29/474 7/31/7 547/36/547
f 478/6/478 5/33/5 15/34/15 16/7/16
f 15/34/15 14/28/14 29/37/29 30/38/30
f 547/36/547 7/31/7 22/39/22 548/40/548
f 16/7/16 15/34/15 30/38/30 31/41/31
f 9/4/9 8/3/8 23/42/23 24/43/24
f 17/8/17 16/7/16 31/41/31 32/44/32
f 10/10/10 9/4/9 24/43/24 25/45/25
f 18/12/18 17/8/17 32/44/32 33/46/33
f 11/14/11 10/10/10 25/45/25 26/47/26
f 19/16/19 18/12/18 33/46/33 34/48/34
f 12/18/12 11/14/11 26/47/26 27/49/27
f 20/20/20 19/16/19 34/48/34 35/50/35
f 13/22/13 12/18/12 27/49/27 28/51/28
f 21/26/21 20/25/20 35/52/35 36/53/36
f 14/28/14 13/22/13 28/51/28 29/37/29
f 7/31/7 82/30/82 22/39/22
f 308/32/308 21/26/21 36/53/36
f 34/48/34 33/46/33 48/54/48 49/55/49
f 27/49/27 26/47/26 41/56/41 42/57/42
f 35/50/35 34/48/34 49/55/49 50/58/50
f 28/51/28 27/49/27 42/57/42 43/59/43
f 36/53/36 35/52/35 50/60/50 51/61/51
f 29/37/29 28/51/28 43/59/43 44/62/44
f 22/39/22 82/30/82 37/63/37
f 308/32/308 36/53/36 51/61/51
f 30/38/30 29/37/29 44/62/44 45/64/45
f 548/40/548 22/39/22 37/63/37 549/65/549
f 31/41/31 30/38/30 45/64/45 46/66/46
f 24/43/24 23/42/23 38/67/38 39/68/39
f 32/44/32 31/41/31 46/66/46 47/69/47
f 25/45/25 24/43/24 39/68/39 40/70/40
f 33/46/33 32/44/32 47/69/47 48/54/48
f 26/47/26 25/45/25 40/70/40 41/56/41
f 46/66/46 45/64/45 60/71/60 61/72/61
f 39/68/39 38/67/38 53/73/53 54/74/54
f 47/69/47 46/66/46 61/72/61 62/75/62
f 40/70/40 39/68/39 54/74/54 55/76/55
f 48/54/48 47/69/47 62/75/62 63/77/63
f 41/56/41 40/70/40 55/76/55 56/78/56
f 49/55/49 48/54/48 63/77/63 64/79/64
f 42/57/42 41/56/41 56/78/56 57/80/57
f 50/58/50 49/55/49 64/79/64 65/81/65
f 43/59/43 42/57/42 57/80/57 58/82/58
f 51/61/51 50/60/50 65/83/65 66/84/66
f 44/62/44 43/59/43 58/82/58 59/85/59
f 37/63/37 82/30/82 52/86/52
f 308/32/308 51/61/51 66/84/66
f 45/64/45 44/62/44 59/85/59 60/71/60
f 549/65/549 37/63/37 52/86/52 550/87/550
f 65/81/65 64/79/64 79/88/79 80/89/80
f 58/82/58 57/80/57 72/90/72 73/91/73
f 66/84/66 65/83/65 80/92/80 81/93/81
f 59/85/59 58/82/58 73/91/73 74/94/74
f 52/86/52 82/30/82 67/95/67
f 308/32/308 66/84/66 81/93/81
f 60/71/60 59/85/59 74/94/74 75/96/75
f 550/87/550 52/86/52 67/95/67 551/97/551
f 61/72/61 60/71/60 75/96/75 76/98/76
f 54/74/54 53/73/53 68/99/68 69/100/69
f 62/75/62 61/72/61 76/98/76 77/101/77
f 55/76/55 54/74/54 69/100/69 70/102/70
f 63/77/63 62/75/62 77/101/77 78/103/78
f 56/78/56 55/76/55 70/102/70 71/104/71
f 64/79/64 63/77/63 78/103/78 79/88/79
f 57/80/57 56/78/56 71/104/71 72/90/72
f 69/100/69 68/99/68 84/105/84 85/106/85
f 77/101/77 76/98/76 92/107/92 93/108/93
f 70/102/70 69/100/69 85/106/85 86/109/86
f 78/103/78 77/101/77 93/108/93 94/110/94
f 71/104/71 70/102/70 86/109/86 87/111/87
f 79/88/79 78/103/78 94/110/94 95/112/95
f 72/90/72 71/104/71 87/111/87 88/113/88
f 80/89/80 79/88/79 95/112/95 96/114/96
f 73/91/73 72/90/72 88/113/88 89/115/89
f 81/93/81 80/92/80 96/116/96 97/117/97
f 74/94/74 73/91/73 89/115/89 90/118/90
f 67/95/67 82/30/82 83/119/83
f 308/32/308 81/93/81 97/117/97
f 75/96/75 74/94/74 90/118/90 91/120/91
f 551/97/551 67/95/67 83/119/83 552/121/552
f 76/98/76 75/96/75 91/120/91 92/107/92
f 89/115/89 88/113/88 103/122/103 104/123/104
f 97/117/97 96/116/96 111/124/111 112/125/112
f 90/118/90 89/115/89 104/123/104 105/126/105
f 83/119/83 82/30/82 98/127/98
f 308/32/308 97/117/97 112/125/112
f 91/120/91 90/118/90 105/126/105 106/128/106
f 552/121/552 83/119/83 98/127/98 553/129/553
f 92/107/92 91/120/91 106/128/106 107/130/107
f 85/106/85 84/105/84 99/131/99 100/132/100
f 93/108/93 92/107/92 107/130/107 108/133/108
f 86/109/86 85/106/85 100/132/100 101/134/101
f 94/110/94 93/108/93 108/133/108 109/135/109
f 87/111/87 86/109/86 101/134/101 102/136/102
f 95/112/95 94/110/94 109/135/109 110/137/110
f 88/113/88 87/111/87 102/136/102 103/122/103
f 96/114/96 95/112/95 110/137/110 111/138/111
f 108/133/108 107/130/107 122/139/122 123/140/123
f 101/134/101 100/132/100 115/141/115 116/142/116
f 109/135/109 108/133/108 123/140/123 124/143/124
f 102/136/102 101/134/101 116/142/116 117/144/117
f 110/137/110 109/135/109 124/143/124 125/145/125
f 103/122/103 102/136/102 117/144/117 118/146/118
f 111/138/111 110/137/110 125/145/125 126/147/126
f 104/123/104 103/122/103 118/146/118 119/148/119
f 112/125/112 111/124/111 126/149/126 127/150/127
f 105/126/105 104/123/104 119/148/119 120/151/120
f 98/127/98 82/30/82 113/152/113
f 308/32/308 112/125/112 127/150/127
f 106/128/106 105/126/105 120/151/120 121/153/121
f 553/129/553 98/127/98 113/152/113 554/154/554
f 107/130/107 106/128/106 121/153/121 122/139/122
f 100/132/100 99/131/99 114/155/114 115/141/115
f 127/150/127 126/149/126 141/156/141 142/157/142
f 120/151/120 119/148/119 134/158/134 135/159/135
f 113/152/113 82/30/82 128/160/128
f 308/32/308 127/150/127 142/157/142
f 121/153/121 120/151/120 135/159/135 136/161/136
f 554/154/554 113/152/113 128/160/128 555/162/555
f 122/139/122 121/153/121 136/161/136 137/163/137
f 115/141/115 114/155/114 129/164/129 130/165/130
f 123/140/123 122/139/122 137/163/137 138/166/138
f 116/142/116 115/141/115 130/165/130 131/167/131
f 124/143/124 123/140/123 138/166/138 139/168/139
f 117/144/117 116/142/116 131/167/131 132/169/132
f 125/145/125 124/143/124 139/168/139 140/170/140
f 118/146/118 117/144/117 132/169/132 133/171/133
f 126/147/126 125/145/125 140/170/140 141/172/141
f 119/148/119 118/146/118 133/171/133 134/158/134
f 131/167/131 130/165/130 145/173/145 146/174/146
f 139/168/139 138/166/138 153/175/153 154/176/154
f 132/169/132 131/167/131 146/174/146 147/177/147
f 140/170/140 139/168/139 154/176/154 155/178/155
f 133/171/133 132/169/132 147/177/147 148/179/148
f 141/172/141 140/170/140 155/178/155 156/180/156
f 134/158/134 133/171/133 148/179/148 149/181/149
f 142/157/142 141/156/141 156/182/156 157/183/157
f 135/159/135 134/158/134 149/181/149 150/184/150
f 128/160/128 82/30/82 143/185/143
f 308/32/308 142/157/142 157/183/157
f 136/161/136 135/159/135 150/184/150 151/186/151
f 555/162/555 128/160/128 143/185/143 556/187/556
f 137/163/137 136/161/136 151/186/151 152/188/152
f 130/165/130 129/164/129 144/189/144 145/173/145
f 138/166/138 137/163/137 152/188/152 153/175/153
f 150/184/150 149/181/149 164/190/164 165/191/165
f 143/185/143 82/30/82 158/192/158
f 308/32/308 157/183/157 172/193/172
f 151/186/151 150/184/150 165/191/165 166/194/166
f 556/187/556 143/185/143 158/192/158 557/195/557
f 152/188/152 151/186/151 166/194/166 167/196/167
f 145/173/145 144/189/144 159/197/159 160/198/160
f 153/175/153 152/188/152 167/196/167 168/199/168
f 146/174/146 145/173/145 160/198/160 161/200/161
f 154/176/154 153/175/153 168/199/168 169/201/169
f 147/177/147 146/174/146 161/200/161 162/202/162
f 155/178/155 154/176/154 169/201/169 170/203/170
f 148/179/148 147/177/147 162/202/162 163/204/163
f 156/180/156 155/178/155 170/203/170 171/205/171
f 149/181/149 148/179/148 163/204/163 164/190/164
f 157/183/157 156/182/156 171/206/171 172/193/172
f 169/207/169 168/208/168 183/209/183 184/210/184
f 162/211/162 161/212/161 176/213/176 177/214/177
f 170/215/170 169/207/169 184/210/184 185/216/185
f 163/217/163 162/211/162 177/214/177 178/218/178
f 171/219/171 170/215/170 185/216/185 186/220/186
f 164/221/164 163/217/163 178/218/178 179/222/179
f 172/193/172 171/206/171 186/223/186 187/224/187
f 165/225/165 164/221/164 179/222/179 180/226/180
f 158/192/158 82/30/82 173/227/173
f 308/32/308 172/193/172 187/224/187
f 166/228/166 165/225/165 180/226/180 181/229/181
f 557/195/557 158/192/158 173/227/173 558/230/558
f 167/231/167 166/228/166 181/229/181 182/232/182
f 160/233/160 159/234/159 174/235/174 175/236/175
f 168/208/168 167/231/167 182/232/182 183/209/183
f 161/212/161 160/233/160 175/236/175 176/213/176
f 308/32/308 187/224/187 202/237/202
f 181/229/181 180/226/180 195/238/195 196/239/196
f 558/230/558 173/227/173 188/240/188 559/241/559
f 182/232/182 181/229/181 196/239/196 197/242/197
f 175/236/175 174/235/174 189/243/189 190/244/190
f 183/209/183 182/232/182 197/242/197 198/245/198
f 176/213/176 175/236/175 190/244/190 191/246/191
f 184/210/184 183/209/183 198/245/198 199/247/199
f 177/214/177 176/213/176 191/246/191 192/248/192
f 185/216/185 184/210/184 199/247/199 200/249/200
f 178/218/178 177/214/177 192/248/192 193/250/193
f 186/220/186 185/216/185 200/249/200 201/251/201
f 179/222/179 178/218/178 193/250/193 194/252/194
f 187/224/187 186/223/186 201/253/201 202/237/202
f 180/226/180 179/222/179 194/252/194 195/238/195
f 173/227/173 82/30/82 188/240/188
f 200/249/200 199/247/199 214/254/214 215/255/215
f 193/250/193 192/248/192 207/256/207 208/257/208
f 201/251/201 200/249/200 215/255/215 216/258/216
f 194/252/194 193/250/193 208/257/208 209/259/209
f 202/237/202 201/253/201 216/260/216 217/261/217
f 195/238/195 194/252/194 209/259/209 210/262/210
f 188/240/188 82/30/82 203/263/203
f 308/32/308 202/237/202 217/261/217
f 196/239/196 195/238/195 210/262/210 211/264/211
f 559/241/559 188/240/188 203/263/203 560/265/560
f 197/242/197 196/239/196 211/264/211 212/266/212
f 190/244/190 189/243/189 204/267/204 205/268/205
f 198/245/198 197/242/197 212/266/212 213/269/213
f 191/246/191 190/244/190 205/268/205 206/270/206
f 199/247/199 198/245/198 213/269/213 214/254/214
f 192/248/192 191/246/191 206/270/206 207/256/207
f 560/265/560 203/263/203 218/271/218 561/272/561
f 212/266/212 211/264/211 226/273/226 227/274/227
f 205/268/205 204/267/204 219/275/219 220/276/220
f 213/269/213 212/266/212 227/274/227 228/277/228
f 206/270/206 205/268/205 220/276/220 221/278/221
f 214/254/214 213/269/213 228/277/228 229/279/229
f 207/256/207 206/270/206 221/278/221 222/280/222
f 215/255/215 214/254/214 229/279/229 230/281/230
f 208/257/208 207/256/207 222/280/222 223/282/223
f 216/258/216 215/255/215 230/281/230 231/283/231
f 209/259/209 208/257/208 223/282/223 224/284/224
f 217/261/217 216/260/216 231/285/231 232/286/232
f 210/262/210 209/259/209 224/284/224 225/287/225
f 203/263/203 82/30/82 218/271/218
f 308/32/308 217/261/217 232/286/232
f 211/264/211 210/262/210 225/287/225 226/273/226
f 223/282/223 222/280/222 237/288/237 238/289/238
f 231/283/231 230/281/230 245/290/245 246/291/246
f 224/284/224 223/282/223 238/289/238 239/292/239
f 232/286/232 231/285/231 246/293/246 247/294/247
f 225/287/225 224/284/224 239/292/239 240/295/240
f 218/271/218 82/30/82 233/296/233
f 308/32/308 232/286/232 247/294/247
f 226/273/226 225/287/225 240/295/240 241/297/241
f 561/272/561 218/271/218 233/296/233 562/298/562
f 227/274/227 226/273/226 241/297/241 242/299/242
f 220/276/220 219/275/219 234/300/234 235/301/235
f 228/277/228 227/274/227 242/299/242 243/302/243
f 221/278/221 220/276/220 235/301/235 236/303/236
f 229/279/229 228/277/228 243/302/243 244/304/244
f 222/280/222 221/278/221 236/303/236 237/288/237
f 230/281/230 229/279/229 244/304/244 245/290/245
f 242/299/242 241/297/241 256/305/256 257/306/257
f 235/301/235 234/300/234 249/307/249 250/308/250
f 243/302/243 242/299/242 257/306/257 258/309/258
f 236/303/236 235/301/235 250/308/250 251/310/251
f 244/304/244 243/302/243 258/309/258 259/311/259
f 237/288/237 236/303/236 251/310/251 252/312/252
f 245/290/245 244/304/244 259/311/259 260/313/260
f 238/289/238 237/288/237 252/312/252 253/314/253
f 246/291/246 245/290/245 260/313/260 261/315/261
f 239/292/239 238/289/238 253/314/253 254/316/254
f 247/294/247 246/293/246 261/317/261 262/318/262
f 240/295/240 239/292/239 254/316/254 255/319/255
f 233/296/233 82/30/82 248/320/248
f 308/32/308 247/294/247 262/318/262
f 241/297/241 240/295/240 255/319/255 256/305/256
f 562/298/562 233/296/233 248/320/248 563/321/563
f 261/315/261 260/313/260 275/322/275 276/323/276
f 254/316/254 253/314/253 268/324/268 269/325/269
f 262/318/262 261/317/261 276/326/276 277/327/277
f 255/319/255 254/316/254 269/325/269 270/328/270
f 248/320/248 82/30/82 263/329/263
f 308/32/308 262/318/262 277/327/277
f 256/305/256 255/319/255 270/328/270 271/330/271
f 563/321/563 248/320/248 263/329/263 564/331/564
f 257/306/257 256/305/256 271/330/271 272/332/272
f 250/308/250 249/307/249 264/333/264 265/334/265
f 258/309/258 257/306/257 272/332/272 273/335/273
f 251/310/251 250/308/250 265/334/265 266/336/266
f 259/311/259 258/309/258 273/335/273 274/337/274
f 252/312/252 251/310/251 266/336/266 267/338/267
f 260/313/260 259/311/259 274/337/274 275/322/275
f 253/314/253 252/312/252 267/338/267 268/324/268
f 265/334/265 264/333/264 279/339/279 280/340/280
f 273/335/273 272/332/272 287/341/287 288/342/288
f 266/336/266 265/334/265 280/340/280 281/343/281
f 274/337/274 273/335/273 288/342/288 289/344/289
f 267/338/267 266/336/266 281/343/281 282/345/282
f 275/322/275 274/337/274 289/344/289 290/346/290
f 268/324/268 267/338/267 282/345/282 283/347/283
f 276/323/276 275/322/275 290/346/290 291/348/291
f 269/325/269 268/324/268 283/347/283 284/349/284
f 277/327/277 276/326/276 291/350/291 292/351/292
f 270/328/270 269/325/269 284/349/284 285/352/285
f 263/329/263 82/30/82 278/353/278
f 308/32/308 277/327/277 292/351/292
f 271/330/271 270/328/270 285/352/285 286/354/286
f 564/331/564 263/329/263 278/353/278 565/355/565
f 272/332/272 271/330/271 286/354/286 287/341/287
f 284/349/284 283/347/283 298/356/298 299/357/299
f 292/351/292 291/350/291 306/358/306 307/359/307
f 285/352/285 284/349/284 299/357/299 300/360/300
f 278/353/278 82/30/82 293/361/293
f 308/32/308 292/351/292 307/359/307
f 286/354/286 285/352/285 300/360/300 301/362/301
f 565/355/565 278/353/278 293/361/293 566/363/566
f 287/341/287 286/354/286 301/362/301 302/364/302
f 280/340/280 279/339/279 294/365/294 295/366/295
f 288/342/288 287/341/287 302/364/302 303/367/303
f 281/343/281 280/340/280 295/366/295 296/368/296
f 289/344/289 288/342/288 303/367/303 304/369/304
f 282/345/282 281/343/281 296/368/296 297/370/297
f 290/346/290 289/344/289 304/369/304 305/371/305
f 283/347/283 282/345/282 297/370/297 298/356/298
f 291/348/291 290/346/290 305/371/305 306/372/306
f 303/367/303 302/364/302 318/373/318 319/374/319
f 296/368/296 295/366/295 311/375/311 312/376/312
f 304/369/304 303/367/303 319/374/319 320/377/320
f 297/370/297 296/368/296 312/376/312 313/378/313
f 305/371/305 304/369/304 320/377/320 321/379/321
f 298/356/298 297/370/297 313/378/313 314/380/314
f 306/372/306 305/371/305 321/379/321 322/381/322
f 299/357/299 298/356/298 314/380/314 315/382/315
f 307/359/307 306/358/306 322/383/322 323/384/323
f 300/360/300 299/357/299 315/382/315 316/385/316
f 293/361/293 82/30/82 309/386/309
f 308/32/308 307/359/307 323/384/323
f 301/362/301 300/360/300 316/385/316 317/387/317
f 566/363/566 293/361/293 309/386/309 567/388/567
f 302/364/302 301/362/301 317/387/317 318/373/318
f 295/366/295 294/365/294 310/389/310 311/375/311
f 323/384/323 322/383/322 337/390/337 338/391/338
f 316/385/316 315/382/315 330/392/330 331/393/331
f 309/386/309 82/30/82 324/394/324
f 308/32/308 323/384/323 338/391/338
f 317/387/317 316/385/316 331/393/331 332/395/332
f 567/388/567 309/386/309 324/394/324 568/396/568
f 318/373/318 317/387/317 332/395/332 333/397/333
f 311/375/311 310/389/310 325/398/325 326/399/326
f 319/374/319 318/373/318 333/397/333 334/400/334
f 312/376/312 311/375/311 326/399/326 327/401/327
f 320/377/320 319/374/319 334/400/334 335/402/335
f 313/378/313 312/376/312 327/401/327 328/403/328
f 321/379/321 320/377/320 335/402/335 336/404/336
f 314/380/314 313/378/313 328/403/328 329/405/329
f 322/381/322 321/379/321 336/404/336 337/406/337
f 315/382/315 314/380/314 329/405/329 330/392/330
f 335/402/335 334/400/334 349/407/349 350/408/350
f 328/403/328 327/401/327 342/409/342 343/410/343
f 336/404/336 335/402/335 350/408/350 351/411/351
f 329/405/329 328/403/328 343/410/343 344/412/344
f 337/406/337 336/404/336 351/411/351 352/413/352
f 330/392/330 329/405/329 344/412/344 345/414/345
f 338/391/338 337/390/337 352/415/352 353/416/353
f 331/393/331 330/392/330 345/414/345 346/417/346
f 324/394/324 82/30/82 339/418/339
f 308/32/308 338/391/338 353/416/353
f 332/395/332 331/393/331 346/417/346 347/419/347
f 568/396/568 324/394/324 339/418/339 569/420/569
f 333/397/333 332/395/332 347/419/347 348/421/348
f 326/399/326 325/398/325 340/422/340 341/423/341
f 334/400/334 333/397/333 348/421/348 349/407/349
f 327/401/327 326/399/326 341/423/341 342/409/342
f 339/418/339 82/30/82 354/424/354
f 308/32/308 353/416/353 368/425/368
f 347/419/347 346/417/346 361/426/361 362/427/362
f 569/420/569 339/418/339 354/424/354 570/428/570
f 348/421/348 347/419/347 362/427/362 363/429/363
f 341/423/341 340/422/340 355/430/355 356/431/356
f 349/407/349 348/421/348 363/429/363 364/432/364
f 342/409/342 341/423/341 356/431/356 357/433/357
f 350/408/350 349/407/349 364/432/364 365/434/365
f 343/410/343 342/409/342 357/433/357 358/435/358
f 351/411/351 350/408/350 365/434/365 366/436/366
f 344/412/344 343/410/343 358/435/358 359/437/359
f 352/413/352 351/411/351 366/436/366 367/438/367
f 345/414/345 344/412/344 359/437/359 360/439/360
f 353/416/353 352/415/352 367/440/367 368/425/368
f 346/417/346 345/414/345 360/439/360 361/426/361
f 358/435/358 357/433/357 372/441/372 373/442/373
f 366/436/366 365/434/365 380/443/380 381/444/381
f 359/437/359 358/435/358 373/442/373 374/445/374
f 367/438/367 366/436/366 381/444/381 382/446/382
f 360/439/360 359/437/359 374/445/374 375/447/375
f 368/425/368 367/440/367 382/448/382 383/449/383
f 361/426/361 360/439/360 375/447/375 376/450/376
f 354/424/354 82/30/82 369/451/369
f 308/32/308 368/425/368 383/449/383
f 362/427/362 361/426/361 376/450/376 377/452/377
f 570/428/570 354/424/354 369/451/369 571/453/571
f 363/429/363 362/427/362 377/452/377 378/454/378
f 356/431/356 355/430/355 370/455/370 371/456/371
f 364/432/364 363/429/363 378/454/378 379/457/379
f 357/433/357 356/431/356 371/456/371 372/441/372
f 365/434/365 364/432/364 379/457/379 380/443/380
f 377/452/377 376/450/376 391/458/391 392/459/392
f 571/453/571 369/451/369 384/460/384 572/461/572
f 378/454/378 377/452/377 392/459/392 393/462/393
f 371/456/371 370/455/370 385/463/385 386/464/386
f 379/457/379 378/454/378 393/462/393 394/465/394
f 372/441/372 371/456/371 386/464/386 387/466/387
f 380/443/380 379/457/379 394/465/394 395/467/395
f 373/442/373 372/441/372 387/466/387 388/468/388
f 381/444/381 380/443/380 395/467/395 396/469/396
f 374/445/374 373/442/373 388/468/388 389/470/389
f 382/446/382 381/444/381 396/469/396 397/471/397
f 375/447/375 374/445/374 389/470/389 390/472/390
f 383/449/383 382/448/382 397/473/397 398/474/398
f 376/450/376 375/447/375 390/472/390 391/458/391
f 369/451/369 82/30/82 384/460/384
f 308/32/308 383/449/383 398/474/398
f 396/469/396 395/467/395 410/475/410 411/476/411
f 389/470/389 388/468/388 403/477/403 404/478/404
f 397/471/397 396/469/396 411/476/411 412/479/412
f 390/472/390 389/470/389 404/478/404 405/480/405
f 398/474/398 397/473/397 412/481/412 413/482/413
f 391/458/391 390/472/390 405/480/405 406/483/406
f 384/460/384 82/30/82 399/484/399
f 308/32/308 398/474/398 413/482/413
f 392/459/392 391/458/391 406/483/406 407/485/407
f 572/461/572 384/460/384 399/484/399 573/486/573
f 393/462/393 392/459/392 407/485/407 408/487/408
f 386/464/386 385/463/385 400/488/400 401/489/401
f 394/465/394 393/462/393 408/487/408 409/490/409
f 387/466/387 386/464/386 401/489/401 402/491/402
f 395/467/395 394/465/394 409/490/409 410/475/410
f 388/468/388 387/466/387 402/491/402 403/477/403
f 573/486/573 399/484/399 414/492/414 574/493/574
f 408/487/408 407/485/407 422/494/422 423/495/423
f 401/489/401 400/488/400 415/496/415 416/497/416
f 409/490/409 408/487/408 423/495/423 424/498/424
f 402/491/402 401/489/401 416/497/416 417/499/417
f 410/475/410 409/490/409 424/498/424 425/500/425
f 403/477/403 402/491/402 417/499/417 418/501/418
f 411/476/411 410/475/410 425/500/425 426/502/426
f 404/478/404 403/477/403 418/501/418 419/503/419
f 412/479/412 411/476/411 426/502/426 427/504/427
f 405/480/405 404/478/404 419/503/419 420/505/420
f 413/482/413 412/481/412 427/506/427 428/507/428
f 406/483/406 405/480/405 420/505/420 421/508/421
f 399/484/399 82/30/82 414/492/414
f 308/32/308 413/482/413 428/507/428
f 407/485/407 406/483/406 421/508/421 422/494/422
f 419/503/419 418/501/418 433/509/433 434/510/434
f 427/504/427 426/502/426 441/511/441 442/512/442
f 420/505/420 419/503/419 434/510/434 435/513/435
f 428/507/428 427/506/427 442/514/442 443/515/443
f 421/508/421 420/505/420 435/513/435 436/516/436
f 414/492/414 82/30/82 429/517/429
f 308/32/308 428/507/428 443/515/443
f 422/494/422 421/508/421 436/516/436 437/518/437
f 574/493/574 414/492/414 429/517/429 575/519/575
f 423/495/423 422/494/422 437/518/437 438/520/438
f 416/497/416 415/496/415 430/521/430 431/522/431
f 424/498/424 423/495/423 438/520/438 439/523/439
f 417/499/417 416/497/416 431/522/431 432/524/432
f 425/500/425 424/498/424 439/523/439 440/525/440
f 418/501/418 417/499/417 432/524/432 433/509/433
f 426/502/426 425/500/425 440/525/440 441/511/441
f 438/520/438 437/518/437 452/526/452 453/527/453
f 431/522/431 430/521/430 445/528/445 446/529/446
f 439/523/439 438/520/438 453/527/453 454/530/454
f 432/524/432 431/522/431 446/529/446 447/531/447
f 440/525/440 439/523/439 454/530/454 455/532/455
f 433/509/433 432/524/432 447/531/447 448/533/448
f 441/511/441 440/525/440 455/532/455 456/534/456
f 434/510/434 433/509/433 448/533/448 449/535/449
f 442/512/442 441/511/441 456/534/456 457/536/457
f 435/513/435 434/510/434 449/535/449 450/537/450
f 443/515/443 442/514/442 457/538/457 458/539/458
f 436/516/436 435/513/435 450/537/450 451/540/451
f 429/517/429 82/30/82 444/541/444
f 308/32/308 443/515/443 458/539/458
f 437/518/437 436/516/436 451/540/451 452/526/452
f 575/519/575 429/517/429 444/541/444 576/542/576
f 457/536/457 456/534/456 471/543/471 472/544/472
f 450/537/450 449/535/449 464/545/464 465/546/465
f 458/539/458 457/538/457 472/547/472 473/548/473
f 451/540/451 450/537/450 465/546/465 466/549/466
f 444/541/444 82/30/82 459/550/459
f 308/32/308 458/539/458 473/548/473
f 452/526/452 451/540/451 466/549/466 467/551/467
f 576/542/576 444/541/444 459/550/459 577/552/577
f 453/527/453 452/526/452 467/551/467 468/553/468
f 446/529/446 445/528/445 460/554/460 461/555/461
f 454/530/454 453/527/453 468/553/468 469/556/469
f 447/531/447 446/529/446 461/555/461 462/557/462
f 455/532/455 454/530/454 469/556/469 470/558/470
f 448/533/448 447/531/447 462/557/462 463/559/463
f 456/534/456 455/532/455 470/558/470 471/543/471
f 449/535/449 448/533/448 463/559/463 464/545/464
f 469/556/469 468/553/468 478/6/478 6/5/6
f 462/557/462 461/555/461 1/1/1 476/9/476
f 470/558/470 469/556/469 6/5/6 479/11/479
f 463/559/463 462/557/462 476/9/476 2/13/2
f 471/543/471 470/558/470 479/11/479 480/15/480
f 464/545/464 463/559/463 2/13/2 477/17/477
f 472/544/472 471/543/471 480/15/480 481/19/481
f 465/546/465 464/545/464 477/17/477 3/21/3
f 473/548/473 472/547/472 481/24/481 482/23/482
f 466/549/466 465/546/465 3/21/3 4/27/4
f 459/550/459 82/30/82 474/29/474
f 308/32/308 473/548/473 482/23/482
f 467/551/467 466/549/466 4/27/4 5/33/5
f 577/552/577 459/550/459 474/29/474 578/35/578
f 468/553/468 467/551/467 5/33/5 478/6/478
f 461/555/461 460/554/460 475/2/475 1/1/1
f 609/560/609 513/561/513 514/562/514 610/563/610
f 608/564/608 512/565/512 513/561/513 609/560/609
f 607/566/607 511/567/511 512/565/512 608/564/608
f 606/568/606 510/569/510 511/567/511 607/566/607
f 605/570/605 509/571/509 510/569/510 606/568/606
f 604/572/604 508/573/508 509/571/509 605/570/605
f 603/574/603 507/575/507 508/573/508 604/572/604
f 602/576/602 506/577/506 507/575/507 603/574/603
f 601/578/601 505/579/505 506/577/506 602/576/602
f 600/580/600 504/581/504 505/579/505 601/578/601
f 599/582/599 503/583/503 504/581/504 600/580/600
f 598/584/598 502/585/502 503/583/503 599/582/599
f 597/586/597 501/587/501 502/585/502 598/584/598
f 596/588/596 500/589/500 501/587/501 597/586/597
f 595/590/595 499/591/499 500/589/500 596/588/596
f 594/592/594 498/593/498 499/591/499 595/590/595
f 593/594/593 497/595/497 498/593/498 594/592/594
f 592/596/592 496/597/496 497/595/497 593/594/593
f 591/598/591 495/599/495 496/597/496 592/596/592
f 590/600/590 494/601/494 495/599/495 591/598/591
f 589/602/589 493/603/493 494/601/494 590/600/590
f 588/604/588 492/605/492 493/603/493 589/602/589
f 587/606/587 491/607/491 492/605/492 588/604/588
f 586/608/586 490/609/490 491/607/491 587/606/587
f 585/610/585 489/611/489 490/609/490 586/608/586
f 584/612/584 488/613/488 489/611/489 585/610/585
f 583/614/583 487/615/487 488/613/488 584/612/584
f 582/616/582 486/617/486 487/615/487 583/614/583
f 581/618/581 485/619/485 486/617/486 582/616/582
f 580/620/580 484/621/484 485/619/485 581/618/581
f 579/622/579 483/623/483 484/621/484 580/620/580
f 610/563/610 514/562/514 483/623/483 579/622/579
f 513/561/513 545/624/545 546/625/546 514/562/514
f 512/565/512 544/626/544 545/624/545 513/561/513
f 511/567/511 543/627/543 544/626/544 512/565/512
f 510/569/510 542/628/542 543/627/543 511/567/511
f 509/571/509 541/629/541 542/628/542 510/569/510
f 508/573/508 540/630/540 541/629/541 509/571/509
f 507/575/507 539/631/539 540/630/540 508/573/508
f 506/577/506 538/632/538 539/631/539 507/575/507
f 505/579/505 537/633/537 538/632/538 506/577/506
f 504/581/504 536/634/536 537/633/537 505/579/505
f 503/583/503 535/635/535 536/634/536 504/581/504
f 502/585/502 534/636/534 535/635/535 503/583/503
f 501/587/501 533/637/533 534/636/534 502/585/502
f 500/589/500 532/638/532 533/637/533 501/587/501
f 499/591/499 531/639/531 532/638/532 500/589/500
f 498/593/498 530/640/530 531/639/531 499/591/499
f 497/595/497 529/641/529 530/640/530 498/593/498
f 496/597/496 528/642/528 529/641/529 497/595/497
f 495/599/495 527/643/527 528/642/528 496/597/496
f 494/601/494 526/644/526 527/643/527 495/599/495
f 493/603/493 525/645/525 526/644/526 494/601/494
f 492/605/492 524/646/524 525/645/525 493/603/493
f 491/607/491 523/647/523 524/646/524 492/605/492
f 490/609/490 522/648/522 523/647/523 491/607/491
f 489/611/489 521/649/521 522/648/522 490/609/490
f 488/613/488 520/650/520 521/649/521 489/611/489
f 487/615/487 519/651/519 520/650/520 488/613/488
f 486/617/486 518/652/518 519/651/519 487/615/487
f 485/619/485 517/653/517 518/652/518 486/617/486
f 484/621/484 516/654/516 517/653/517 485/619/485
f 483/623/483 515/655/515 516/654/516 484/621/484
f 514/562/514 546/625/546 515/655/515 483/623/483
f 545/624/545 577/552/577 578/35/578 546/625/546
f 544/626/544 576/542/576 577/552/577 545/624/545
f 543/627/543 575/519/575 576/542/576 544/626/544
f 542/628/542 574/493/574 575/519/575 543/627/543
f 541/629/541 573/486/573 574/493/574 542/628/542
f 540/630/540 572/461/572 573/486/573 541/629/541
f 539/631/539 571/453/571 572/461/572 540/630/540
f 538/632/538 570/428/570 571/453/571 539/631/539
f 537/633/537 569/420/569 570/428/570 538/632/538
f 536/634/536 568/396/568 569/420/569 537/633/537
f 535/635/535 567/388/567 568/396/568 536/634/536
f 534/636/534 566/363/566 567/388/567 535/635/535
f 533/637/533 565/355/565 566/363/566 534/636/534
f 532/638/532 564/331/564 565/355/565 533/637/533
f 531/639/531 563/321/563 564/331/564 532/638/532
f 530/640/530 562/298/562 563/321/563 531/639/531
f 529/641/529 561/272/561 562/298/562 530/640/530
f 528/642/528 560/265/560 561/272/561 529/641/529
f 527/643/527 559/241/559 560/265/560 528/642/528
f 526/644/526 558/230/558 559/241/559 527/643/527
f 525/645/525 557/195/557 558/230/558 526/644/526
f 524/646/524 556/187/556 557/195/557 525/645/525
f 523/647/523 555/162/555 556/187/556 524/646/524
f 522/648/522 554/154/554 555/162/555 523/647/523
f 521/649/521 553/129/553 554/154/554 522/648/522
f 520/650/520 552/121/552 553/129/553 521/649/521
f 519/651/519 551/97/551 552/121/552 520/650/520
f 518/652/518 550/87/550 551/97/551 519/651/519
f 517/653/517 549/65/549 550/87/550 518/652/518
f 516/654/516 548/40/548 549/65/549 517/653/517
f 515/655/515 547/36/547 548/40/548 516/654/516
f 546/625/546 578/35/578 547/36/547 515/655/515
f 475/656/475 610/563/610 579/622/579 8/657/8
f 8/657/8 579/622/579 580/620/580 23/658/23
f 23/658/23 580/620/580 581/618/581 38/659/38
f 38/659/38 581/618/581 582/616/582 53/660/53
f 53/660/53 582/616/582 583/614/583 68/661/68
f 68/661/68 583/614/583 584/612/584 84/662/84
f 84/662/84 584/612/584 585/610/585 99/663/99
f 99/663/99 585/610/585 586/608/586 114/664/114
f 114/664/114 586/608/586 587/606/587 129/665/129
f 129/665/129 587/606/587 588/604/588 144/666/144
f 144/666/144 588/604/588 589/602/589 159/667/159
f 159/667/159 589/602/589 590/600/590 174/668/174
f 174/668/174 590/600/590 591/598/591 189/669/189
f 189/669/189 591/598/591 592/596/592 204/670/204
f 204/670/204 592/596/592 593/594/593 219/671/219
f 219/671/219 593/594/593 594/592/594 234/672/234
f 234/672/234 594/592/594 595/590/595 249/673/249
f 249/673/249 595/590/595 596/588/596 264/674/264
f 264/674/264 596/588/596 597/586/597 279/675/279
f 279/675/279 597/586/597 598/584/598 294/676/294
f 294/676/294 598/584/598 599/582/599 310/677/310
f 310/677/310 599/582/599 600/580/600 325/678/325
f 325/678/325 600/580/600 601/578/601 340/679/340
f 340/679/340 601/578/601 602/576/602 355/680/355
f 355/680/355 602/576/602 603/574/603 370/681/370
f 370/681/370 603/574/603 604/572/604 385/682/385
f 385/682/385 604/572/604 605/570/605 400/683/400
f 400/683/400 605/570/605 606/568/606 415/684/415
f 415/684/415 606/568/606 607/566/607 430/685/430
f 430/685/430 607/566/607 608/564/608 445/686/445
f 445/686/445 608/564/608 609/560/609 460/687/460
f 460/687/460 609/560/609 610/563/610 475/656/475
