# Blender 4.1.1
# www.blender.org
mtllib Crystal.mtl
o Cube
v -1.012649 -0.972603 1.016571
v 0.000000 -1.000000 0.000000
v 0.000000 1.000000 0.000000
v 0.612533 0.000000 -0.616032
v -0.612533 0.000000 0.616032
v 0.612533 0.000000 0.616032
v -0.612533 0.000000 -0.616032
vn -0.0000 0.5245 0.8514
vn -0.0000 0.5245 -0.8514
vn -0.8527 0.5223 -0.0000
vn 0.8527 0.5223 -0.0000
vn -0.0000 -0.5245 0.8514
vn -0.8527 -0.5223 -0.0000
vn -0.0000 -0.5245 -0.8514
vn 0.8527 -0.5223 -0.0000
vt 0.000000 0.000000
s 0
usemtl Material
f 5/1/1 6/1/1 3/1/1
f 7/1/2 3/1/2 4/1/2
f 5/1/3 3/1/3 7/1/3
f 6/1/4 4/1/4 3/1/4
f 5/1/5 2/1/5 6/1/5
f 7/1/6 2/1/6 5/1/6
f 4/1/7 2/1/7 7/1/7
f 4/1/8 6/1/8 2/1/8
l 2 3
