# Blender 4.1.1
# www.blender.org
mtllib Title_2.mtl
o テキスト
v 0.031000 0.728000 -0.100000
v 0.393000 0.728000 -0.100000
v 0.393000 0.798000 -0.100000
v -0.043000 0.798000 -0.100000
v -0.043000 0.498000 -0.100000
v 0.292000 0.498000 -0.100000
v 0.294040 0.484733 -0.100000
v 0.296153 0.471449 -0.100000
v 0.298328 0.458172 -0.100000
v 0.300556 0.444926 -0.100000
v 0.302825 0.431736 -0.100000
v 0.305125 0.418625 -0.100000
v 0.307446 0.405619 -0.100000
v 0.309778 0.392741 -0.100000
v 0.312109 0.380016 -0.100000
v 0.314431 0.367468 -0.100000
v 0.316731 0.355121 -0.100000
v 0.319000 0.343000 -0.100000
v -0.049000 0.343000 -0.100000
v -0.048979 0.342521 -0.100000
v -0.048917 0.341171 -0.100000
v -0.048813 0.339078 -0.100000
v -0.048667 0.336370 -0.100000
v -0.048479 0.333177 -0.100000
v -0.048250 0.329625 -0.100000
v -0.047979 0.325844 -0.100000
v -0.047667 0.321963 -0.100000
v -0.047313 0.318109 -0.100000
v -0.046917 0.314412 -0.100000
v -0.046479 0.310999 -0.100000
v -0.046000 0.308000 -0.100000
v -0.041721 0.254727 -0.100000
v -0.037352 0.206736 -0.100000
v -0.032844 0.163766 -0.100000
v -0.028148 0.125556 -0.100000
v -0.023216 0.091845 -0.100000
v -0.018000 0.062375 -0.100000
v -0.012450 0.036884 -0.100000
v -0.006519 0.015111 -0.100000
v -0.000156 -0.003203 -0.100000
v 0.006685 -0.018319 -0.100000
v 0.014054 -0.030498 -0.100000
v 0.022000 -0.040000 -0.100000
v 0.027508 -0.045633 -0.100000
v 0.033065 -0.050565 -0.100000
v 0.038719 -0.054844 -0.100000
v 0.044518 -0.058519 -0.100000
v 0.050513 -0.061638 -0.100000
v 0.056750 -0.064250 -0.100000
v 0.063279 -0.066404 -0.100000
v 0.070148 -0.068148 -0.100000
v 0.077406 -0.069531 -0.100000
v 0.085102 -0.070602 -0.100000
v 0.093284 -0.071409 -0.100000
v 0.102000 -0.072000 -0.100000
v 0.110628 -0.072667 -0.100000
v 0.120444 -0.073171 -0.100000
v 0.131344 -0.073516 -0.100000
v 0.143222 -0.073704 -0.100000
v 0.155976 -0.073739 -0.100000
v 0.169500 -0.073625 -0.100000
v 0.183691 -0.073365 -0.100000
v 0.198444 -0.072963 -0.100000
v 0.213656 -0.072422 -0.100000
v 0.229222 -0.071745 -0.100000
v 0.245038 -0.070937 -0.100000
v 0.261000 -0.070000 -0.100000
v 0.261665 -0.063863 -0.100000
v 0.262653 -0.057491 -0.100000
v 0.263953 -0.050937 -0.100000
v 0.265556 -0.044259 -0.100000
v 0.267450 -0.037512 -0.100000
v 0.269625 -0.030750 -0.100000
v 0.272071 -0.024030 -0.100000
v 0.274778 -0.017407 -0.100000
v 0.277734 -0.010938 -0.100000
v 0.280931 -0.004676 -0.100000
v 0.284356 0.001322 -0.100000
v 0.288000 0.007000 -0.100000
v 0.271505 0.005602 -0.100000
v 0.255120 0.004398 -0.100000
v 0.239000 0.003375 -0.100000
v 0.223296 0.002519 -0.100000
v 0.208162 0.001815 -0.100000
v 0.193750 0.001250 -0.100000
v 0.180213 0.000810 -0.100000
v 0.167704 0.000481 -0.100000
v 0.156375 0.000250 -0.100000
v 0.146380 0.000102 -0.100000
v 0.137870 0.000023 -0.100000
v 0.131000 -0.000000 -0.100000
v 0.125723 0.000045 -0.100000
v 0.120866 0.000190 -0.100000
v 0.116391 0.000453 -0.100000
v 0.112259 0.000852 -0.100000
v 0.108433 0.001403 -0.100000
v 0.104875 0.002125 -0.100000
v 0.101546 0.003034 -0.100000
v 0.098407 0.004148 -0.100000
v 0.095422 0.005484 -0.100000
v 0.092551 0.007060 -0.100000
v 0.089756 0.008893 -0.100000
v 0.087000 0.011000 -0.100000
v 0.081163 0.017129 -0.100000
v 0.075639 0.025616 -0.100000
v 0.070406 0.036609 -0.100000
v 0.065444 0.050259 -0.100000
v 0.060733 0.066715 -0.100000
v 0.056250 0.086125 -0.100000
v 0.051976 0.108639 -0.100000
v 0.047889 0.134407 -0.100000
v 0.043969 0.163578 -0.100000
v 0.040194 0.196301 -0.100000
v 0.036545 0.232725 -0.100000
v 0.033000 0.273000 -0.100000
v 0.412000 0.273000 -0.100000
v 0.406965 0.293395 -0.100000
v 0.401884 0.315407 -0.100000
v 0.396797 0.338781 -0.100000
v 0.391741 0.363259 -0.100000
v 0.386754 0.388585 -0.100000
v 0.381875 0.414500 -0.100000
v 0.377142 0.440749 -0.100000
v 0.372593 0.467074 -0.100000
v 0.368266 0.493219 -0.100000
v 0.364199 0.518926 -0.100000
v 0.360431 0.543939 -0.100000
v 0.357000 0.568000 -0.100000
v 0.031000 0.568000 -0.100000
v -0.357000 -0.080000 -0.100000
v -0.282000 -0.080000 -0.100000
v -0.282000 0.830000 -0.100000
v -0.357000 0.830000 -0.100000
v 0.031000 0.728000 0.100000
v 0.393000 0.728000 0.100000
v 0.393000 0.798000 0.100000
v -0.043000 0.798000 0.100000
v -0.043000 0.498000 0.100000
v 0.292000 0.498000 0.100000
v 0.294040 0.484733 0.100000
v 0.296153 0.471449 0.100000
v 0.298328 0.458172 0.100000
v 0.300556 0.444926 0.100000
v 0.302825 0.431736 0.100000
v 0.305125 0.418625 0.100000
v 0.307446 0.405619 0.100000
v 0.309778 0.392741 0.100000
v 0.312109 0.380016 0.100000
v 0.314431 0.367468 0.100000
v 0.316731 0.355121 0.100000
v 0.319000 0.343000 0.100000
v -0.049000 0.343000 0.100000
v -0.048979 0.342521 0.100000
v -0.048917 0.341171 0.100000
v -0.048813 0.339078 0.100000
v -0.048667 0.336370 0.100000
v -0.048479 0.333177 0.100000
v -0.048250 0.329625 0.100000
v -0.047979 0.325844 0.100000
v -0.047667 0.321963 0.100000
v -0.047313 0.318109 0.100000
v -0.046917 0.314412 0.100000
v -0.046479 0.310999 0.100000
v -0.046000 0.308000 0.100000
v -0.041721 0.254727 0.100000
v -0.037352 0.206736 0.100000
v -0.032844 0.163766 0.100000
v -0.028148 0.125556 0.100000
v -0.023216 0.091846 0.100000
v -0.018000 0.062375 0.100000
v -0.012450 0.036884 0.100000
v -0.006519 0.015111 0.100000
v -0.000156 -0.003203 0.100000
v 0.006685 -0.018319 0.100000
v 0.014054 -0.030498 0.100000
v 0.022000 -0.040000 0.100000
v 0.027508 -0.045633 0.100000
v 0.033065 -0.050565 0.100000
v 0.038719 -0.054844 0.100000
v 0.044518 -0.058519 0.100000
v 0.050513 -0.061638 0.100000
v 0.056750 -0.064250 0.100000
v 0.063279 -0.066404 0.100000
v 0.070148 -0.068148 0.100000
v 0.077406 -0.069531 0.100000
v 0.085102 -0.070602 0.100000
v 0.093284 -0.071409 0.100000
v 0.102000 -0.072000 0.100000
v 0.110628 -0.072667 0.100000
v 0.120444 -0.073171 0.100000
v 0.131344 -0.073516 0.100000
v 0.143222 -0.073704 0.100000
v 0.155976 -0.073739 0.100000
v 0.169500 -0.073625 0.100000
v 0.183691 -0.073365 0.100000
v 0.198444 -0.072963 0.100000
v 0.213656 -0.072422 0.100000
v 0.229222 -0.071745 0.100000
v 0.245038 -0.070937 0.100000
v 0.261000 -0.070000 0.100000
v 0.261665 -0.063863 0.100000
v 0.262653 -0.057491 0.100000
v 0.263953 -0.050937 0.100000
v 0.265556 -0.044259 0.100000
v 0.267450 -0.037512 0.100000
v 0.269625 -0.030750 0.100000
v 0.272071 -0.024030 0.100000
v 0.274778 -0.017407 0.100000
v 0.277734 -0.010937 0.100000
v 0.280931 -0.004676 0.100000
v 0.284356 0.001322 0.100000
v 0.288000 0.007000 0.100000
v 0.271505 0.005602 0.100000
v 0.255120 0.004398 0.100000
v 0.239000 0.003375 0.100000
v 0.223296 0.002519 0.100000
v 0.208162 0.001815 0.100000
v 0.193750 0.001250 0.100000
v 0.180213 0.000810 0.100000
v 0.167704 0.000481 0.100000
v 0.156375 0.000250 0.100000
v 0.146380 0.000102 0.100000
v 0.137870 0.000023 0.100000
v 0.131000 0.000000 0.100000
v 0.125723 0.000045 0.100000
v 0.120866 0.000190 0.100000
v 0.116391 0.000453 0.100000
v 0.112259 0.000852 0.100000
v 0.108433 0.001403 0.100000
v 0.104875 0.002125 0.100000
v 0.101546 0.003034 0.100000
v 0.098407 0.004148 0.100000
v 0.095422 0.005484 0.100000
v 0.092551 0.007060 0.100000
v 0.089756 0.008893 0.100000
v 0.087000 0.011000 0.100000
v 0.081163 0.017129 0.100000
v 0.075639 0.025616 0.100000
v 0.070406 0.036609 0.100000
v 0.065444 0.050259 0.100000
v 0.060733 0.066715 0.100000
v 0.056250 0.086125 0.100000
v 0.051976 0.108639 0.100000
v 0.047889 0.134407 0.100000
v 0.043969 0.163578 0.100000
v 0.040194 0.196301 0.100000
v 0.036545 0.232725 0.100000
v 0.033000 0.273000 0.100000
v 0.412000 0.273000 0.100000
v 0.406965 0.293395 0.100000
v 0.401884 0.315407 0.100000
v 0.396797 0.338781 0.100000
v 0.391741 0.363259 0.100000
v 0.386754 0.388585 0.100000
v 0.381875 0.414500 0.100000
v 0.377142 0.440749 0.100000
v 0.372593 0.467074 0.100000
v 0.368266 0.493219 0.100000
v 0.364199 0.518926 0.100000
v 0.360431 0.543939 0.100000
v 0.357000 0.568000 0.100000
v 0.031000 0.568000 0.100000
v -0.357000 -0.080000 0.100000
v -0.282000 -0.080000 0.100000
v -0.282000 0.830000 0.100000
v -0.357000 0.830000 0.100000
v -0.357000 -0.080000 0.100000
v -0.357000 -0.080000 -0.100000
v -0.282000 -0.080000 0.100000
v -0.282000 -0.080000 -0.100000
v -0.282000 0.830000 0.100000
v -0.282000 0.830000 -0.100000
v -0.357000 0.830000 0.100000
v -0.357000 0.830000 -0.100000
v 0.031000 0.728000 0.100000
v 0.031000 0.728000 -0.100000
v 0.393000 0.728000 0.100000
v 0.393000 0.728000 -0.100000
v 0.393000 0.798000 0.100000
v 0.393000 0.798000 -0.100000
v -0.043000 0.798000 0.100000
v -0.043000 0.798000 -0.100000
v -0.043000 0.498000 0.100000
v -0.043000 0.498000 -0.100000
v 0.292000 0.498000 0.100000
v 0.292000 0.498000 -0.100000
v 0.294040 0.484733 0.100000
v 0.294040 0.484733 -0.100000
v 0.296153 0.471449 0.100000
v 0.296153 0.471449 -0.100000
v 0.298328 0.458172 0.100000
v 0.298328 0.458172 -0.100000
v 0.300556 0.444926 0.100000
v 0.300556 0.444926 -0.100000
v 0.302825 0.431736 0.100000
v 0.302825 0.431736 -0.100000
v 0.305125 0.418625 0.100000
v 0.305125 0.418625 -0.100000
v 0.307446 0.405619 0.100000
v 0.307446 0.405619 -0.100000
v 0.309778 0.392741 0.100000
v 0.309778 0.392741 -0.100000
v 0.312109 0.380016 0.100000
v 0.312109 0.380016 -0.100000
v 0.314431 0.367468 0.100000
v 0.314431 0.367468 -0.100000
v 0.316731 0.355121 0.100000
v 0.316731 0.355121 -0.100000
v 0.319000 0.343000 0.100000
v 0.319000 0.343000 -0.100000
v -0.049000 0.343000 0.100000
v -0.049000 0.343000 -0.100000
v -0.048979 0.342521 0.100000
v -0.048979 0.342521 -0.100000
v -0.048917 0.341171 0.100000
v -0.048917 0.341171 -0.100000
v -0.048813 0.339078 0.100000
v -0.048813 0.339078 -0.100000
v -0.048667 0.336370 0.100000
v -0.048667 0.336370 -0.100000
v -0.048479 0.333177 0.100000
v -0.048479 0.333177 -0.100000
v -0.048250 0.329625 0.100000
v -0.048250 0.329625 -0.100000
v -0.047979 0.325844 0.100000
v -0.047979 0.325844 -0.100000
v -0.047667 0.321963 0.100000
v -0.047667 0.321963 -0.100000
v -0.047313 0.318109 0.100000
v -0.047313 0.318109 -0.100000
v -0.046917 0.314412 0.100000
v -0.046917 0.314412 -0.100000
v -0.046479 0.310999 0.100000
v -0.046479 0.310999 -0.100000
v -0.046000 0.308000 0.100000
v -0.046000 0.308000 -0.100000
v -0.041721 0.254727 0.100000
v -0.041721 0.254727 -0.100000
v -0.037352 0.206736 0.100000
v -0.037352 0.206736 -0.100000
v -0.032844 0.163766 0.100000
v -0.032844 0.163766 -0.100000
v -0.028148 0.125556 0.100000
v -0.028148 0.125556 -0.100000
v -0.023216 0.091846 0.100000
v -0.023216 0.091845 -0.100000
v -0.018000 0.062375 0.100000
v -0.018000 0.062375 -0.100000
v -0.012450 0.036884 0.100000
v -0.012450 0.036884 -0.100000
v -0.006519 0.015111 0.100000
v -0.006519 0.015111 -0.100000
v -0.000156 -0.003203 0.100000
v -0.000156 -0.003203 -0.100000
v 0.006685 -0.018319 0.100000
v 0.006685 -0.018319 -0.100000
v 0.014054 -0.030498 0.100000
v 0.014054 -0.030498 -0.100000
v 0.022000 -0.040000 0.100000
v 0.022000 -0.040000 -0.100000
v 0.027508 -0.045633 0.100000
v 0.027508 -0.045633 -0.100000
v 0.033065 -0.050565 0.100000
v 0.033065 -0.050565 -0.100000
v 0.038719 -0.054844 0.100000
v 0.038719 -0.054844 -0.100000
v 0.044518 -0.058519 0.100000
v 0.044518 -0.058519 -0.100000
v 0.050513 -0.061638 0.100000
v 0.050513 -0.061638 -0.100000
v 0.056750 -0.064250 0.100000
v 0.056750 -0.064250 -0.100000
v 0.063279 -0.066404 0.100000
v 0.063279 -0.066404 -0.100000
v 0.070148 -0.068148 0.100000
v 0.070148 -0.068148 -0.100000
v 0.077406 -0.069531 0.100000
v 0.077406 -0.069531 -0.100000
v 0.085102 -0.070602 0.100000
v 0.085102 -0.070602 -0.100000
v 0.093284 -0.071409 0.100000
v 0.093284 -0.071409 -0.100000
v 0.102000 -0.072000 0.100000
v 0.102000 -0.072000 -0.100000
v 0.110628 -0.072667 0.100000
v 0.110628 -0.072667 -0.100000
v 0.120444 -0.073171 0.100000
v 0.120444 -0.073171 -0.100000
v 0.131344 -0.073516 0.100000
v 0.131344 -0.073516 -0.100000
v 0.143222 -0.073704 0.100000
v 0.143222 -0.073704 -0.100000
v 0.155976 -0.073739 0.100000
v 0.155976 -0.073739 -0.100000
v 0.169500 -0.073625 0.100000
v 0.169500 -0.073625 -0.100000
v 0.183691 -0.073365 0.100000
v 0.183691 -0.073365 -0.100000
v 0.198444 -0.072963 0.100000
v 0.198444 -0.072963 -0.100000
v 0.213656 -0.072422 0.100000
v 0.213656 -0.072422 -0.100000
v 0.229222 -0.071745 0.100000
v 0.229222 -0.071745 -0.100000
v 0.245038 -0.070937 0.100000
v 0.245038 -0.070937 -0.100000
v 0.261000 -0.070000 0.100000
v 0.261000 -0.070000 -0.100000
v 0.261665 -0.063863 0.100000
v 0.261665 -0.063863 -0.100000
v 0.262653 -0.057491 0.100000
v 0.262653 -0.057491 -0.100000
v 0.263953 -0.050937 0.100000
v 0.263953 -0.050937 -0.100000
v 0.265556 -0.044259 0.100000
v 0.265556 -0.044259 -0.100000
v 0.267450 -0.037512 0.100000
v 0.267450 -0.037512 -0.100000
v 0.269625 -0.030750 0.100000
v 0.269625 -0.030750 -0.100000
v 0.272071 -0.024030 0.100000
v 0.272071 -0.024030 -0.100000
v 0.274778 -0.017407 0.100000
v 0.274778 -0.017407 -0.100000
v 0.277734 -0.010937 0.100000
v 0.277734 -0.010938 -0.100000
v 0.280931 -0.004676 0.100000
v 0.280931 -0.004676 -0.100000
v 0.284356 0.001322 0.100000
v 0.284356 0.001322 -0.100000
v 0.288000 0.007000 0.100000
v 0.288000 0.007000 -0.100000
v 0.271505 0.005602 0.100000
v 0.271505 0.005602 -0.100000
v 0.255120 0.004398 0.100000
v 0.255120 0.004398 -0.100000
v 0.239000 0.003375 0.100000
v 0.239000 0.003375 -0.100000
v 0.223296 0.002519 0.100000
v 0.223296 0.002519 -0.100000
v 0.208162 0.001815 0.100000
v 0.208162 0.001815 -0.100000
v 0.193750 0.001250 0.100000
v 0.193750 0.001250 -0.100000
v 0.180213 0.000810 0.100000
v 0.180213 0.000810 -0.100000
v 0.167704 0.000481 0.100000
v 0.167704 0.000481 -0.100000
v 0.156375 0.000250 0.100000
v 0.156375 0.000250 -0.100000
v 0.146380 0.000102 0.100000
v 0.146380 0.000102 -0.100000
v 0.137870 0.000023 0.100000
v 0.137870 0.000023 -0.100000
v 0.131000 0.000000 0.100000
v 0.131000 -0.000000 -0.100000
v 0.125723 0.000045 0.100000
v 0.125723 0.000045 -0.100000
v 0.120866 0.000190 0.100000
v 0.120866 0.000190 -0.100000
v 0.116391 0.000453 0.100000
v 0.116391 0.000453 -0.100000
v 0.112259 0.000852 0.100000
v 0.112259 0.000852 -0.100000
v 0.108433 0.001403 0.100000
v 0.108433 0.001403 -0.100000
v 0.104875 0.002125 0.100000
v 0.104875 0.002125 -0.100000
v 0.101546 0.003034 0.100000
v 0.101546 0.003034 -0.100000
v 0.098407 0.004148 0.100000
v 0.098407 0.004148 -0.100000
v 0.095422 0.005484 0.100000
v 0.095422 0.005484 -0.100000
v 0.092551 0.007060 0.100000
v 0.092551 0.007060 -0.100000
v 0.089756 0.008893 0.100000
v 0.089756 0.008893 -0.100000
v 0.087000 0.011000 0.100000
v 0.087000 0.011000 -0.100000
v 0.081163 0.017129 0.100000
v 0.081163 0.017129 -0.100000
v 0.075639 0.025616 0.100000
v 0.075639 0.025616 -0.100000
v 0.070406 0.036609 0.100000
v 0.070406 0.036609 -0.100000
v 0.065444 0.050259 0.100000
v 0.065444 0.050259 -0.100000
v 0.060733 0.066715 0.100000
v 0.060733 0.066715 -0.100000
v 0.056250 0.086125 0.100000
v 0.056250 0.086125 -0.100000
v 0.051976 0.108639 0.100000
v 0.051976 0.108639 -0.100000
v 0.047889 0.134407 0.100000
v 0.047889 0.134407 -0.100000
v 0.043969 0.163578 0.100000
v 0.043969 0.163578 -0.100000
v 0.040194 0.196301 0.100000
v 0.040194 0.196301 -0.100000
v 0.036545 0.232725 0.100000
v 0.036545 0.232725 -0.100000
v 0.033000 0.273000 0.100000
v 0.033000 0.273000 -0.100000
v 0.412000 0.273000 0.100000
v 0.412000 0.273000 -0.100000
v 0.406965 0.293395 0.100000
v 0.406965 0.293395 -0.100000
v 0.401884 0.315407 0.100000
v 0.401884 0.315407 -0.100000
v 0.396797 0.338781 0.100000
v 0.396797 0.338781 -0.100000
v 0.391741 0.363259 0.100000
v 0.391741 0.363259 -0.100000
v 0.386754 0.388585 0.100000
v 0.386754 0.388585 -0.100000
v 0.381875 0.414500 0.100000
v 0.381875 0.414500 -0.100000
v 0.377142 0.440749 0.100000
v 0.377142 0.440749 -0.100000
v 0.372593 0.467074 0.100000
v 0.372593 0.467074 -0.100000
v 0.368266 0.493219 0.100000
v 0.368266 0.493219 -0.100000
v 0.364199 0.518926 0.100000
v 0.364199 0.518926 -0.100000
v 0.360431 0.543939 0.100000
v 0.360431 0.543939 -0.100000
v 0.357000 0.568000 0.100000
v 0.357000 0.568000 -0.100000
v 0.031000 0.568000 0.100000
v 0.031000 0.568000 -0.100000
vn -0.0000 -0.0000 -1.0000
vn -0.0000 -0.0000 1.0000
vn 0.7071 -0.7071 -0.0000
vn -0.7071 -0.7071 -0.0000
vn 0.7071 0.7071 -0.0000
vn -0.7071 0.7071 -0.0000
vn -0.6512 -0.7589 -0.0000
vn -0.9880 -0.1545 -0.0000
vn -0.9872 -0.1594 -0.0000
vn -0.9865 -0.1638 -0.0000
vn -0.9858 -0.1677 -0.0000
vn -0.9852 -0.1712 -0.0000
vn -0.9847 -0.1743 -0.0000
vn -0.9842 -0.1769 -0.0000
vn -0.9838 -0.1792 -0.0000
vn -0.9835 -0.1811 -0.0000
vn -0.9832 -0.1825 -0.0000
vn -0.9830 -0.1836 -0.0000
vn -0.7694 0.6387 -0.0000
vn -0.7223 0.6916 -0.0000
vn -0.9990 -0.0449 -0.0000
vn -0.9988 -0.0480 -0.0000
vn -0.9987 -0.0517 -0.0000
vn -0.9984 -0.0562 -0.0000
vn -0.9981 -0.0615 -0.0000
vn -0.9977 -0.0679 -0.0000
vn -0.9971 -0.0759 -0.0000
vn -0.9963 -0.0859 -0.0000
vn -0.9951 -0.0990 -0.0000
vn -0.9932 -0.1168 -0.0000
vn -0.9898 -0.1425 -0.0000
vn -0.9929 -0.1190 -0.0000
vn -0.9963 -0.0854 -0.0000
vn -0.9952 -0.0975 -0.0000
vn -0.9936 -0.1132 -0.0000
vn -0.9911 -0.1334 -0.0000
vn -0.9872 -0.1595 -0.0000
vn -0.9811 -0.1935 -0.0000
vn -0.9713 -0.2379 -0.0000
vn -0.9553 -0.2957 -0.0000
vn -0.9288 -0.3706 -0.0000
vn -0.8849 -0.4658 -0.0000
vn -0.8137 -0.5813 -0.0000
vn -0.7416 -0.6708 -0.0000
vn -0.6898 -0.7240 -0.0000
vn -0.6341 -0.7732 -0.0000
vn -0.5698 -0.8218 -0.0000
vn -0.4989 -0.8667 -0.0000
vn -0.4243 -0.9055 -0.0000
vn -0.3501 -0.9367 -0.0000
vn -0.2799 -0.9600 -0.0000
vn -0.2167 -0.9762 -0.0000
vn -0.1625 -0.9867 -0.0000
vn -0.1180 -0.9930 -0.0000
vn -0.0829 -0.9966 -0.0000
vn -0.0724 -0.9974 -0.0000
vn -0.0642 -0.9979 -0.0000
vn -0.0414 -0.9991 -0.0000
vn -0.0237 -0.9997 -0.0000
vn -0.0093 -1.0000 -0.0000
vn 0.0028 -1.0000 -0.0000
vn 0.0134 -0.9999 -0.0000
vn 0.0228 -0.9997 -0.0000
vn 0.0314 -0.9995 -0.0000
vn 0.0395 -0.9992 -0.0000
vn 0.0472 -0.9989 -0.0000
vn 0.0548 -0.9985 -0.0000
vn 0.6895 -0.7243 -0.0000
vn 0.9915 -0.1305 -0.0000
vn 0.9848 -0.1739 -0.0000
vn 0.9914 -0.1305 -0.0000
vn 0.9768 -0.2140 -0.0000
vn 0.9848 -0.1740 -0.0000
vn 0.9678 -0.2518 -0.0000
vn 0.9575 -0.2883 -0.0000
vn 0.9460 -0.3242 -0.0000
vn 0.9329 -0.3603 -0.0000
vn 0.9178 -0.3971 -0.0000
vn 0.9003 -0.4352 -0.0000
vn 0.8798 -0.4754 -0.0000
vn 0.8553 -0.5182 -0.0000
vn 0.8565 0.5162 -0.0000
vn -0.0789 0.9969 -0.0000
vn -0.0683 0.9977 -0.0000
vn -0.0589 0.9983 -0.0000
vn -0.0505 0.9987 -0.0000
vn -0.0428 0.9991 -0.0000
vn -0.0358 0.9994 -0.0000
vn -0.0294 0.9996 -0.0000
vn -0.0233 0.9997 -0.0000
vn -0.0176 0.9998 -0.0000
vn -0.0120 0.9999 -0.0000
vn -0.0063 1.0000 -0.0000
vn 0.0025 1.0000 -0.0000
vn 0.0192 0.9998 -0.0000
vn 0.0443 0.9990 -0.0000
vn 0.0774 0.9970 -0.0000
vn 0.1194 0.9928 -0.0000
vn 0.1708 0.9853 -0.0000
vn 0.2312 0.9729 -0.0000
vn 0.2992 0.9542 -0.0000
vn 0.3718 0.9283 -0.0000
vn 0.4452 0.8954 -0.0000
vn 0.5152 0.8571 -0.0000
vn 0.5782 0.8159 -0.0000
vn 0.6678 0.7443 -0.0000
vn 0.7844 0.6202 -0.0000
vn 0.8724 0.4887 -0.0000
vn 0.9224 0.3861 -0.0000
vn 0.9512 0.3086 -0.0000
vn 0.9682 0.2502 -0.0000
vn 0.9786 0.2058 -0.0000
vn 0.9852 0.1716 -0.0000
vn 0.9894 0.1449 -0.0000
vn 0.9923 0.1239 -0.0000
vn 0.9942 0.1071 -0.0000
vn 0.9956 0.0937 -0.0000
vn 0.7374 -0.6754 -0.0000
vn 0.7873 -0.6166 -0.0000
vn 0.7375 -0.6754 -0.0000
vn 0.9726 0.2323 -0.0000
vn 0.9758 0.2188 -0.0000
vn 0.9782 0.2075 -0.0000
vn 0.9803 0.1977 -0.0000
vn 0.9820 0.1891 -0.0000
vn 0.9834 0.1812 -0.0000
vn 0.9848 0.1739 -0.0000
vn 0.9860 0.1668 -0.0000
vn 0.9872 0.1598 -0.0000
vn 0.9883 0.1526 -0.0000
vn 0.9894 0.1451 -0.0000
vn 0.6553 0.7554 -0.0000
vt 0.984848 0.000000
vt 1.000000 0.000000
vt 0.992424 0.000000
vt 0.977273 0.000000
vt 0.007576 0.000000
vt 0.022727 0.000000
vt 0.015152 0.000000
vt 0.000000 0.000000
vt 0.030303 0.000000
vt 0.969697 0.000000
vt 0.954545 0.000000
vt 0.962121 0.000000
vt 0.946970 0.000000
vt 0.939394 0.000000
vt 0.037879 0.000000
vt 0.045455 0.000000
vt 0.931818 0.000000
vt 0.053030 0.000000
vt 0.060606 0.000000
vt 0.924242 0.000000
vt 0.068182 0.000000
vt 0.075758 0.000000
vt 0.916667 0.000000
vt 0.083333 0.000000
vt 0.090909 0.000000
vt 0.909091 0.000000
vt 0.098485 0.000000
vt 0.106061 0.000000
vt 0.901515 0.000000
vt 0.113636 0.000000
vt 0.121212 0.000000
vt 0.893939 0.000000
vt 0.128788 0.000000
vt 0.136364 0.000000
vt 0.143939 0.000000
vt 0.151515 0.000000
vt 0.159091 0.000000
vt 0.166667 0.000000
vt 0.886364 0.000000
vt 0.174242 0.000000
vt 0.181818 0.000000
vt 0.189394 0.000000
vt 0.196970 0.000000
vt 0.204545 0.000000
vt 0.212121 0.000000
vt 0.878788 0.000000
vt 0.219697 0.000000
vt 0.227273 0.000000
vt 0.863636 0.000000
vt 0.234848 0.000000
vt 0.871212 0.000000
vt 0.856061 0.000000
vt 0.242424 0.000000
vt 0.848485 0.000000
vt 0.250000 0.000000
vt 0.840909 0.000000
vt 0.257576 0.000000
vt 0.833333 0.000000
vt 0.825758 0.000000
vt 0.265152 0.000000
vt 0.818182 0.000000
vt 0.272727 0.000000
vt 0.810606 0.000000
vt 0.803030 0.000000
vt 0.280303 0.000000
vt 0.795455 0.000000
vt 0.287879 0.000000
vt 0.787879 0.000000
vt 0.780303 0.000000
vt 0.772727 0.000000
vt 0.295455 0.000000
vt 0.765152 0.000000
vt 0.757576 0.000000
vt 0.750000 0.000000
vt 0.583333 0.000000
vt 0.598485 0.000000
vt 0.590909 0.000000
vt 0.606061 0.000000
vt 0.742424 0.000000
vt 0.613636 0.000000
vt 0.734848 0.000000
vt 0.621212 0.000000
vt 0.727273 0.000000
vt 0.628788 0.000000
vt 0.719697 0.000000
vt 0.636364 0.000000
vt 0.712121 0.000000
vt 0.575758 0.000000
vt 0.643939 0.000000
vt 0.704545 0.000000
vt 0.651515 0.000000
vt 0.659091 0.000000
vt 0.696970 0.000000
vt 0.666667 0.000000
vt 0.689394 0.000000
vt 0.674242 0.000000
vt 0.681818 0.000000
vt 0.303030 0.000000
vt 0.568182 0.000000
vt 0.560606 0.000000
vt 0.553030 0.000000
vt 0.310606 0.000000
vt 0.545455 0.000000
vt 0.318182 0.000000
vt 0.537879 0.000000
vt 0.530303 0.000000
vt 0.325758 0.000000
vt 0.522727 0.000000
vt 0.333333 0.000000
vt 0.340909 0.000000
vt 0.515152 0.000000
vt 0.348485 0.000000
vt 0.507576 0.000000
vt 0.356061 0.000000
vt 0.363636 0.000000
vt 0.500000 0.000000
vt 0.371212 0.000000
vt 0.378788 0.000000
vt 0.386364 0.000000
vt 0.393939 0.000000
vt 0.492424 0.000000
vt 0.401515 0.000000
vt 0.484848 0.000000
vt 0.409091 0.000000
vt 0.477273 0.000000
vt 0.416667 0.000000
vt 0.469697 0.000000
vt 0.424242 0.000000
vt 0.462121 0.000000
vt 0.431818 0.000000
vt 0.454545 0.000000
vt 0.439394 0.000000
vt 0.446970 0.000000
vt 0.250000 1.000000
vt 0.000000 1.000000
vt 0.500000 1.000000
vt 0.750000 1.000000
vt 1.000000 1.000000
vt 0.007752 1.000000
vt 0.015504 1.000000
vt 0.007752 0.000000
vt 0.023256 1.000000
vt 0.015504 0.000000
vt 0.031008 1.000000
vt 0.023256 0.000000
vt 0.038760 1.000000
vt 0.031008 0.000000
vt 0.046512 1.000000
vt 0.038760 0.000000
vt 0.054264 1.000000
vt 0.046512 0.000000
vt 0.062016 1.000000
vt 0.054264 0.000000
vt 0.069767 1.000000
vt 0.062016 0.000000
vt 0.077519 1.000000
vt 0.069767 0.000000
vt 0.085271 1.000000
vt 0.077519 0.000000
vt 0.093023 1.000000
vt 0.085271 0.000000
vt 0.100775 1.000000
vt 0.093023 0.000000
vt 0.108527 1.000000
vt 0.100775 0.000000
vt 0.116279 1.000000
vt 0.108527 0.000000
vt 0.124031 1.000000
vt 0.116279 0.000000
vt 0.131783 1.000000
vt 0.124031 0.000000
vt 0.139535 1.000000
vt 0.131783 0.000000
vt 0.147287 1.000000
vt 0.139535 0.000000
vt 0.155039 1.000000
vt 0.147287 0.000000
vt 0.162791 1.000000
vt 0.155039 0.000000
vt 0.170543 1.000000
vt 0.162791 0.000000
vt 0.178295 1.000000
vt 0.170543 0.000000
vt 0.186047 1.000000
vt 0.178295 0.000000
vt 0.193798 1.000000
vt 0.186047 0.000000
vt 0.201550 1.000000
vt 0.193798 0.000000
vt 0.209302 1.000000
vt 0.201550 0.000000
vt 0.217054 1.000000
vt 0.209302 0.000000
vt 0.224806 1.000000
vt 0.217054 0.000000
vt 0.232558 1.000000
vt 0.224806 0.000000
vt 0.240310 1.000000
vt 0.232558 0.000000
vt 0.248062 1.000000
vt 0.240310 0.000000
vt 0.255814 1.000000
vt 0.248062 0.000000
vt 0.263566 1.000000
vt 0.255814 0.000000
vt 0.271318 1.000000
vt 0.263566 0.000000
vt 0.279070 1.000000
vt 0.271318 0.000000
vt 0.286822 1.000000
vt 0.279070 0.000000
vt 0.294574 1.000000
vt 0.286822 0.000000
vt 0.302326 1.000000
vt 0.294574 0.000000
vt 0.310078 1.000000
vt 0.302326 0.000000
vt 0.317829 1.000000
vt 0.310078 0.000000
vt 0.325581 1.000000
vt 0.317829 0.000000
vt 0.333333 1.000000
vt 0.325581 0.000000
vt 0.341085 1.000000
vt 0.348837 1.000000
vt 0.341085 0.000000
vt 0.356589 1.000000
vt 0.348837 0.000000
vt 0.364341 1.000000
vt 0.356589 0.000000
vt 0.372093 1.000000
vt 0.364341 0.000000
vt 0.379845 1.000000
vt 0.372093 0.000000
vt 0.387597 1.000000
vt 0.379845 0.000000
vt 0.395349 1.000000
vt 0.387597 0.000000
vt 0.403101 1.000000
vt 0.395349 0.000000
vt 0.410853 1.000000
vt 0.403101 0.000000
vt 0.418605 1.000000
vt 0.410853 0.000000
vt 0.426357 1.000000
vt 0.418605 0.000000
vt 0.434109 1.000000
vt 0.426357 0.000000
vt 0.441860 1.000000
vt 0.434109 0.000000
vt 0.449612 1.000000
vt 0.441860 0.000000
vt 0.457364 1.000000
vt 0.449612 0.000000
vt 0.465116 1.000000
vt 0.457364 0.000000
vt 0.472868 1.000000
vt 0.465116 0.000000
vt 0.480620 1.000000
vt 0.472868 0.000000
vt 0.488372 1.000000
vt 0.480620 0.000000
vt 0.496124 1.000000
vt 0.488372 0.000000
vt 0.503876 1.000000
vt 0.496124 0.000000
vt 0.511628 1.000000
vt 0.503876 0.000000
vt 0.519380 1.000000
vt 0.511628 0.000000
vt 0.527132 1.000000
vt 0.519380 0.000000
vt 0.534884 1.000000
vt 0.527132 0.000000
vt 0.542636 1.000000
vt 0.534884 0.000000
vt 0.550388 1.000000
vt 0.542636 0.000000
vt 0.558140 1.000000
vt 0.550388 0.000000
vt 0.565891 1.000000
vt 0.558140 0.000000
vt 0.573643 1.000000
vt 0.565891 0.000000
vt 0.581395 1.000000
vt 0.573643 0.000000
vt 0.589147 1.000000
vt 0.581395 0.000000
vt 0.596899 1.000000
vt 0.589147 0.000000
vt 0.604651 1.000000
vt 0.596899 0.000000
vt 0.612403 1.000000
vt 0.604651 0.000000
vt 0.620155 1.000000
vt 0.612403 0.000000
vt 0.627907 1.000000
vt 0.620155 0.000000
vt 0.635659 1.000000
vt 0.627907 0.000000
vt 0.643411 1.000000
vt 0.635659 0.000000
vt 0.651163 1.000000
vt 0.643411 0.000000
vt 0.658915 1.000000
vt 0.651163 0.000000
vt 0.666667 1.000000
vt 0.658915 0.000000
vt 0.674419 1.000000
vt 0.682171 1.000000
vt 0.674419 0.000000
vt 0.689922 1.000000
vt 0.682171 0.000000
vt 0.697674 1.000000
vt 0.689922 0.000000
vt 0.705426 1.000000
vt 0.697674 0.000000
vt 0.713178 1.000000
vt 0.705426 0.000000
vt 0.720930 1.000000
vt 0.713178 0.000000
vt 0.728682 1.000000
vt 0.720930 0.000000
vt 0.736434 1.000000
vt 0.728682 0.000000
vt 0.744186 1.000000
vt 0.736434 0.000000
vt 0.751938 1.000000
vt 0.744186 0.000000
vt 0.759690 1.000000
vt 0.751938 0.000000
vt 0.767442 1.000000
vt 0.759690 0.000000
vt 0.775194 1.000000
vt 0.767442 0.000000
vt 0.782946 1.000000
vt 0.775194 0.000000
vt 0.790698 1.000000
vt 0.782946 0.000000
vt 0.798450 1.000000
vt 0.790698 0.000000
vt 0.806202 1.000000
vt 0.798450 0.000000
vt 0.813953 1.000000
vt 0.806202 0.000000
vt 0.821705 1.000000
vt 0.813953 0.000000
vt 0.829457 1.000000
vt 0.821705 0.000000
vt 0.837209 1.000000
vt 0.829457 0.000000
vt 0.844961 1.000000
vt 0.837209 0.000000
vt 0.852713 1.000000
vt 0.844961 0.000000
vt 0.860465 1.000000
vt 0.852713 0.000000
vt 0.868217 1.000000
vt 0.860465 0.000000
vt 0.875969 1.000000
vt 0.868217 0.000000
vt 0.883721 1.000000
vt 0.875969 0.000000
vt 0.891473 1.000000
vt 0.883721 0.000000
vt 0.899225 1.000000
vt 0.891473 0.000000
vt 0.906977 1.000000
vt 0.899225 0.000000
vt 0.914729 1.000000
vt 0.906977 0.000000
vt 0.922481 1.000000
vt 0.914729 0.000000
vt 0.930233 1.000000
vt 0.922481 0.000000
vt 0.937984 1.000000
vt 0.930233 0.000000
vt 0.945736 1.000000
vt 0.937984 0.000000
vt 0.953488 1.000000
vt 0.945736 0.000000
vt 0.961240 1.000000
vt 0.953488 0.000000
vt 0.968992 1.000000
vt 0.961240 0.000000
vt 0.976744 1.000000
vt 0.968992 0.000000
vt 0.984496 1.000000
vt 0.976744 0.000000
vt 0.992248 1.000000
vt 0.984496 0.000000
vt 0.992248 0.000000
s 0
f 131/1/1 133/2/1 132/3/1
f 131/1/1 130/4/1 133/2/1
f 2/5/1 4/6/1 3/7/1
f 2/5/1 1/8/1 4/6/1
f 1/8/1 5/9/1 4/6/1
f 129/10/1 5/9/1 1/8/1
f 127/11/1 129/10/1 128/12/1
f 127/11/1 5/9/1 129/10/1
f 126/13/1 5/9/1 127/11/1
f 125/14/1 6/15/1 126/13/1
f 6/15/1 5/9/1 126/13/1
f 125/14/1 7/16/1 6/15/1
f 124/17/1 7/16/1 125/14/1
f 124/17/1 8/18/1 7/16/1
f 124/17/1 9/19/1 8/18/1
f 123/20/1 9/19/1 124/17/1
f 123/20/1 10/21/1 9/19/1
f 123/20/1 11/22/1 10/21/1
f 122/23/1 11/22/1 123/20/1
f 122/23/1 12/24/1 11/22/1
f 122/23/1 13/25/1 12/24/1
f 121/26/1 13/25/1 122/23/1
f 121/26/1 14/27/1 13/25/1
f 121/26/1 15/28/1 14/27/1
f 120/29/1 15/28/1 121/26/1
f 120/29/1 16/30/1 15/28/1
f 120/29/1 17/31/1 16/30/1
f 119/32/1 17/31/1 120/29/1
f 119/32/1 18/33/1 17/31/1
f 119/32/1 19/34/1 18/33/1
f 119/32/1 20/35/1 19/34/1
f 119/32/1 21/36/1 20/35/1
f 119/32/1 22/37/1 21/36/1
f 119/32/1 23/38/1 22/37/1
f 118/39/1 23/38/1 119/32/1
f 118/39/1 24/40/1 23/38/1
f 118/39/1 25/41/1 24/40/1
f 118/39/1 26/42/1 25/41/1
f 118/39/1 27/43/1 26/42/1
f 118/39/1 28/44/1 27/43/1
f 118/39/1 29/45/1 28/44/1
f 117/46/1 29/45/1 118/39/1
f 117/46/1 30/47/1 29/45/1
f 117/46/1 31/48/1 30/47/1
f 117/46/1 115/49/1 31/48/1
f 115/49/1 32/50/1 31/48/1
f 116/51/1 115/49/1 117/46/1
f 114/52/1 32/50/1 115/49/1
f 114/52/1 33/53/1 32/50/1
f 113/54/1 33/53/1 114/52/1
f 113/54/1 34/55/1 33/53/1
f 112/56/1 34/55/1 113/54/1
f 112/56/1 35/57/1 34/55/1
f 111/58/1 35/57/1 112/56/1
f 110/59/1 35/57/1 111/58/1
f 110/59/1 36/60/1 35/57/1
f 109/61/1 36/60/1 110/59/1
f 109/61/1 37/62/1 36/60/1
f 108/63/1 37/62/1 109/61/1
f 107/64/1 37/62/1 108/63/1
f 107/64/1 38/65/1 37/62/1
f 106/66/1 38/65/1 107/64/1
f 106/66/1 39/67/1 38/65/1
f 105/68/1 39/67/1 106/66/1
f 104/69/1 39/67/1 105/68/1
f 103/70/1 39/67/1 104/69/1
f 103/70/1 40/71/1 39/67/1
f 102/72/1 40/71/1 103/70/1
f 101/73/1 40/71/1 102/72/1
f 100/74/1 40/71/1 101/73/1
f 78/75/1 80/76/1 79/77/1
f 78/75/1 81/78/1 80/76/1
f 99/79/1 40/71/1 100/74/1
f 78/75/1 82/80/1 81/78/1
f 98/81/1 40/71/1 99/79/1
f 78/75/1 83/82/1 82/80/1
f 97/83/1 40/71/1 98/81/1
f 78/75/1 84/84/1 83/82/1
f 96/85/1 40/71/1 97/83/1
f 78/75/1 85/86/1 84/84/1
f 95/87/1 40/71/1 96/85/1
f 77/88/1 85/86/1 78/75/1
f 77/88/1 86/89/1 85/86/1
f 94/90/1 40/71/1 95/87/1
f 77/88/1 87/91/1 86/89/1
f 77/88/1 88/92/1 87/91/1
f 93/93/1 40/71/1 94/90/1
f 77/88/1 89/94/1 88/92/1
f 92/95/1 40/71/1 93/93/1
f 77/88/1 90/96/1 89/94/1
f 91/97/1 40/71/1 92/95/1
f 77/88/1 91/97/1 90/96/1
f 77/88/1 40/71/1 91/97/1
f 77/88/1 41/98/1 40/71/1
f 76/99/1 41/98/1 77/88/1
f 75/100/1 41/98/1 76/99/1
f 74/101/1 41/98/1 75/100/1
f 74/101/1 42/102/1 41/98/1
f 73/103/1 42/102/1 74/101/1
f 73/103/1 43/104/1 42/102/1
f 72/105/1 43/104/1 73/103/1
f 71/106/1 43/104/1 72/105/1
f 71/106/1 44/107/1 43/104/1
f 70/108/1 44/107/1 71/106/1
f 70/108/1 45/109/1 44/107/1
f 70/108/1 46/110/1 45/109/1
f 69/111/1 46/110/1 70/108/1
f 69/111/1 47/112/1 46/110/1
f 68/113/1 47/112/1 69/111/1
f 68/113/1 48/114/1 47/112/1
f 68/113/1 49/115/1 48/114/1
f 67/116/1 49/115/1 68/113/1
f 67/116/1 50/117/1 49/115/1
f 67/116/1 51/118/1 50/117/1
f 67/116/1 52/119/1 51/118/1
f 67/116/1 53/120/1 52/119/1
f 66/121/1 53/120/1 67/116/1
f 66/121/1 54/122/1 53/120/1
f 65/123/1 54/122/1 66/121/1
f 65/123/1 55/124/1 54/122/1
f 64/125/1 55/124/1 65/123/1
f 64/125/1 56/126/1 55/124/1
f 63/127/1 56/126/1 64/125/1
f 63/127/1 57/128/1 56/126/1
f 62/129/1 57/128/1 63/127/1
f 62/129/1 58/130/1 57/128/1
f 61/131/1 58/130/1 62/129/1
f 61/131/1 59/132/1 58/130/1
f 60/133/1 59/132/1 61/131/1
f 264/1/2 265/3/2 266/2/2
f 264/1/2 266/2/2 263/4/2
f 135/5/2 136/7/2 137/6/2
f 135/5/2 137/6/2 134/8/2
f 134/8/2 137/6/2 138/9/2
f 262/10/2 134/8/2 138/9/2
f 260/11/2 261/12/2 262/10/2
f 260/11/2 262/10/2 138/9/2
f 259/13/2 260/11/2 138/9/2
f 258/14/2 259/13/2 139/15/2
f 139/15/2 259/13/2 138/9/2
f 258/14/2 139/15/2 140/16/2
f 257/17/2 258/14/2 140/16/2
f 257/17/2 140/16/2 141/18/2
f 257/17/2 141/18/2 142/19/2
f 256/20/2 257/17/2 142/19/2
f 256/20/2 142/19/2 143/21/2
f 256/20/2 143/21/2 144/22/2
f 255/23/2 256/20/2 144/22/2
f 255/23/2 144/22/2 145/24/2
f 255/23/2 145/24/2 146/25/2
f 254/26/2 255/23/2 146/25/2
f 254/26/2 146/25/2 147/27/2
f 254/26/2 147/27/2 148/28/2
f 253/29/2 254/26/2 148/28/2
f 253/29/2 148/28/2 149/30/2
f 253/29/2 149/30/2 150/31/2
f 252/32/2 253/29/2 150/31/2
f 252/32/2 150/31/2 151/33/2
f 252/32/2 151/33/2 152/34/2
f 252/32/2 152/34/2 153/35/2
f 252/32/2 153/35/2 154/36/2
f 252/32/2 154/36/2 155/37/2
f 252/32/2 155/37/2 156/38/2
f 251/39/2 252/32/2 156/38/2
f 251/39/2 156/38/2 157/40/2
f 251/39/2 157/40/2 158/41/2
f 251/39/2 158/41/2 159/42/2
f 251/39/2 159/42/2 160/43/2
f 251/39/2 160/43/2 161/44/2
f 251/39/2 161/44/2 162/45/2
f 250/46/2 251/39/2 162/45/2
f 250/46/2 162/45/2 163/47/2
f 250/46/2 163/47/2 164/48/2
f 250/46/2 164/48/2 248/49/2
f 248/49/2 164/48/2 165/50/2
f 249/51/2 250/46/2 248/49/2
f 247/52/2 248/49/2 165/50/2
f 247/52/2 165/50/2 166/53/2
f 246/54/2 247/52/2 166/53/2
f 246/54/2 166/53/2 167/55/2
f 245/56/2 246/54/2 167/55/2
f 245/56/2 167/55/2 168/57/2
f 244/58/2 245/56/2 168/57/2
f 243/59/2 244/58/2 168/57/2
f 243/59/2 168/57/2 169/60/2
f 242/61/2 243/59/2 169/60/2
f 242/61/2 169/60/2 170/62/2
f 241/63/2 242/61/2 170/62/2
f 240/64/2 241/63/2 170/62/2
f 240/64/2 170/62/2 171/65/2
f 239/66/2 240/64/2 171/65/2
f 239/66/2 171/65/2 172/67/2
f 238/68/2 239/66/2 172/67/2
f 237/69/2 238/68/2 172/67/2
f 236/70/2 237/69/2 172/67/2
f 236/70/2 172/67/2 173/71/2
f 235/72/2 236/70/2 173/71/2
f 234/73/2 235/72/2 173/71/2
f 233/74/2 234/73/2 173/71/2
f 211/75/2 212/77/2 213/76/2
f 211/75/2 213/76/2 214/78/2
f 232/79/2 233/74/2 173/71/2
f 211/75/2 214/78/2 215/80/2
f 231/81/2 232/79/2 173/71/2
f 211/75/2 215/80/2 216/82/2
f 230/83/2 231/81/2 173/71/2
f 211/75/2 216/82/2 217/84/2
f 229/85/2 230/83/2 173/71/2
f 211/75/2 217/84/2 218/86/2
f 228/87/2 229/85/2 173/71/2
f 210/88/2 211/75/2 218/86/2
f 210/88/2 218/86/2 219/89/2
f 227/90/2 228/87/2 173/71/2
f 210/88/2 219/89/2 220/91/2
f 210/88/2 220/91/2 221/92/2
f 226/93/2 227/90/2 173/71/2
f 210/88/2 221/92/2 222/94/2
f 225/95/2 226/93/2 173/71/2
f 210/88/2 222/94/2 223/96/2
f 224/97/2 225/95/2 173/71/2
f 210/88/2 223/96/2 224/97/2
f 210/88/2 224/97/2 173/71/2
f 210/88/2 173/71/2 174/98/2
f 209/99/2 210/88/2 174/98/2
f 208/100/2 209/99/2 174/98/2
f 207/101/2 208/100/2 174/98/2
f 207/101/2 174/98/2 175/102/2
f 206/103/2 207/101/2 175/102/2
f 206/103/2 175/102/2 176/104/2
f 205/105/2 206/103/2 176/104/2
f 204/106/2 205/105/2 176/104/2
f 204/106/2 176/104/2 177/107/2
f 203/108/2 204/106/2 177/107/2
f 203/108/2 177/107/2 178/109/2
f 203/108/2 178/109/2 179/110/2
f 202/111/2 203/108/2 179/110/2
f 202/111/2 179/110/2 180/112/2
f 201/113/2 202/111/2 180/112/2
f 201/113/2 180/112/2 181/114/2
f 201/113/2 181/114/2 182/115/2
f 200/116/2 201/113/2 182/115/2
f 200/116/2 182/115/2 183/117/2
f 200/116/2 183/117/2 184/118/2
f 200/116/2 184/118/2 185/119/2
f 200/116/2 185/119/2 186/120/2
f 199/121/2 200/116/2 186/120/2
f 199/121/2 186/120/2 187/122/2
f 198/123/2 199/121/2 187/122/2
f 198/123/2 187/122/2 188/124/2
f 197/125/2 198/123/2 188/124/2
f 197/125/2 188/124/2 189/126/2
f 196/127/2 197/125/2 189/126/2
f 196/127/2 189/126/2 190/128/2
f 195/129/2 196/127/2 190/128/2
f 195/129/2 190/128/2 191/130/2
f 194/131/2 195/129/2 191/130/2
f 194/131/2 191/130/2 192/132/2
f 193/133/2 194/131/2 192/132/2
s 1
f 270/134/3 267/8/4 268/135/4
f 272/136/5 269/55/3 270/134/3
f 274/137/6 271/116/5 272/136/5
f 268/138/4 273/74/6 274/137/6
f 278/139/3 275/8/3 276/135/3
f 280/140/5 277/141/3 278/139/3
f 282/142/6 279/143/5 280/140/5
f 284/144/4 281/145/6 282/142/6
f 286/146/7 283/147/4 284/144/4
f 288/148/8 285/149/7 286/146/7
f 290/150/9 287/151/8 288/148/8
f 292/152/10 289/153/9 290/150/9
f 294/154/11 291/155/10 292/152/10
f 296/156/12 293/157/11 294/154/11
f 298/158/13 295/159/12 296/156/12
f 300/160/14 297/161/13 298/158/13
f 302/162/15 299/163/14 300/160/14
f 304/164/16 301/165/15 302/162/15
f 306/166/17 303/167/16 304/164/16
f 308/168/18 305/169/17 306/166/17
f 310/170/19 307/171/18 308/168/18
f 312/172/20 309/173/19 310/170/19
f 314/174/21 311/175/20 312/172/20
f 316/176/22 313/177/21 314/174/21
f 318/178/23 315/179/22 316/176/22
f 320/180/24 317/181/23 318/178/23
f 322/182/25 319/183/24 320/180/24
f 324/184/26 321/185/25 322/182/25
f 326/186/27 323/187/26 324/184/26
f 328/188/28 325/189/27 326/186/27
f 330/190/29 327/191/28 328/188/28
f 332/192/30 329/193/29 330/190/29
f 334/194/31 331/195/30 332/192/30
f 336/196/32 333/197/31 334/194/31
f 338/198/33 335/199/32 336/196/32
f 340/200/34 337/201/33 338/198/33
f 342/202/35 339/203/34 340/200/34
f 344/204/36 341/205/35 342/202/35
f 346/206/37 343/207/36 344/204/36
f 348/208/38 345/209/37 346/206/37
f 350/210/39 347/211/38 348/208/38
f 352/212/40 349/213/39 350/210/39
f 354/214/41 351/215/40 352/212/40
f 356/216/42 353/217/41 354/214/41
f 358/218/43 355/219/42 356/216/42
f 360/220/44 357/221/43 358/218/43
f 362/222/45 359/223/44 360/220/44
f 364/224/46 361/109/45 362/222/45
f 366/225/47 363/226/46 364/224/46
f 368/227/48 365/228/47 366/225/47
f 370/229/49 367/230/48 368/227/48
f 372/231/50 369/232/49 370/229/49
f 374/233/51 371/234/50 372/231/50
f 376/235/52 373/236/51 374/233/51
f 378/237/53 375/238/52 376/235/52
f 380/239/54 377/240/53 378/237/53
f 382/241/55 379/242/54 380/239/54
f 384/243/56 381/244/55 382/241/55
f 386/245/57 383/246/56 384/243/56
f 388/247/58 385/248/57 386/245/57
f 390/249/59 387/250/58 388/247/58
f 392/251/60 389/252/59 390/249/59
f 394/253/61 391/254/60 392/251/60
f 396/255/62 393/256/61 394/253/61
f 398/257/63 395/258/62 396/255/62
f 400/259/64 397/260/63 398/257/63
f 402/261/65 399/262/64 400/259/64
f 404/263/66 401/264/65 402/261/65
f 406/265/67 403/266/66 404/263/66
f 408/267/68 405/268/67 406/265/67
f 410/269/69 407/270/68 408/267/68
f 412/271/70 409/272/71 410/269/69
f 414/273/72 411/274/73 412/271/70
f 416/275/74 413/276/72 414/273/72
f 418/277/75 415/278/74 416/275/74
f 420/279/76 417/280/75 418/277/75
f 422/281/77 419/282/76 420/279/76
f 424/283/78 421/284/77 422/281/77
f 426/285/79 423/286/78 424/283/78
f 428/287/80 425/288/79 426/285/79
f 430/289/81 427/290/80 428/287/80
f 432/291/82 429/292/81 430/289/81
f 434/293/83 431/294/82 432/291/82
f 436/295/84 433/296/83 434/293/83
f 438/297/85 435/298/84 436/295/84
f 440/299/86 437/300/85 438/297/85
f 442/301/87 439/302/86 440/299/86
f 444/303/88 441/304/87 442/301/87
f 446/305/89 443/306/88 444/303/88
f 448/307/90 445/308/89 446/305/89
f 450/309/91 447/94/90 448/307/90
f 452/310/92 449/311/91 450/309/91
f 454/312/93 451/313/92 452/310/92
f 456/314/94 453/315/93 454/312/93
f 458/316/95 455/317/94 456/314/94
f 460/318/96 457/319/95 458/316/95
f 462/320/97 459/321/96 460/318/96
f 464/322/98 461/323/97 462/320/97
f 466/324/99 463/325/98 464/322/98
f 468/326/100 465/327/99 466/324/99
f 470/328/101 467/329/100 468/326/100
f 472/330/102 469/331/101 470/328/101
f 474/332/103 471/333/102 472/330/102
f 476/334/104 473/335/103 474/332/103
f 478/336/105 475/337/104 476/334/104
f 480/338/106 477/339/105 478/336/105
f 482/340/107 479/341/106 480/338/106
f 484/342/108 481/343/107 482/340/107
f 486/344/109 483/345/108 484/342/108
f 488/346/110 485/347/109 486/344/109
f 490/348/111 487/349/110 488/346/110
f 492/350/112 489/351/111 490/348/111
f 494/352/113 491/353/112 492/350/112
f 496/354/114 493/355/113 494/352/113
f 498/356/115 495/357/114 496/354/114
f 500/358/116 497/359/115 498/356/115
f 502/360/117 499/361/116 500/358/116
f 504/362/118 501/363/117 502/360/117
f 506/364/119 503/365/120 504/362/118
f 508/366/121 505/367/119 506/364/119
f 510/368/122 507/369/121 508/366/121
f 512/370/123 509/371/122 510/368/122
f 514/372/124 511/373/123 512/370/123
f 516/374/125 513/375/124 514/372/124
f 518/376/126 515/377/125 516/374/125
f 520/378/127 517/379/126 518/376/126
f 522/380/128 519/381/127 520/378/127
f 524/382/129 521/383/128 522/380/128
f 526/384/130 523/385/129 524/382/129
f 528/386/131 525/387/130 526/384/130
f 530/388/132 527/389/131 528/386/131
f 532/390/5 529/391/132 530/388/132
f 276/138/3 531/392/5 532/390/5
f 270/134/3 269/55/3 267/8/4
f 272/136/5 271/116/5 269/55/3
f 274/137/6 273/74/6 271/116/5
f 268/138/4 267/2/4 273/74/6
f 278/139/3 277/141/3 275/8/3
f 280/140/5 279/143/5 277/141/3
f 282/142/6 281/145/6 279/143/5
f 284/144/4 283/147/4 281/145/6
f 286/146/7 285/149/7 283/147/4
f 288/148/8 287/151/8 285/149/7
f 290/150/9 289/153/9 287/151/8
f 292/152/10 291/155/10 289/153/9
f 294/154/11 293/157/11 291/155/10
f 296/156/12 295/159/12 293/157/11
f 298/158/13 297/161/13 295/159/12
f 300/160/14 299/163/14 297/161/13
f 302/162/15 301/165/15 299/163/14
f 304/164/16 303/167/16 301/165/15
f 306/166/17 305/169/17 303/167/16
f 308/168/18 307/171/18 305/169/17
f 310/170/19 309/173/19 307/171/18
f 312/172/20 311/175/20 309/173/19
f 314/174/21 313/177/21 311/175/20
f 316/176/22 315/179/22 313/177/21
f 318/178/23 317/181/23 315/179/22
f 320/180/24 319/183/24 317/181/23
f 322/182/25 321/185/25 319/183/24
f 324/184/26 323/187/26 321/185/25
f 326/186/27 325/189/27 323/187/26
f 328/188/28 327/191/28 325/189/27
f 330/190/29 329/193/29 327/191/28
f 332/192/30 331/195/30 329/193/29
f 334/194/31 333/197/31 331/195/30
f 336/196/32 335/199/32 333/197/31
f 338/198/33 337/201/33 335/199/32
f 340/200/34 339/203/34 337/201/33
f 342/202/35 341/205/35 339/203/34
f 344/204/36 343/207/36 341/205/35
f 346/206/37 345/209/37 343/207/36
f 348/208/38 347/211/38 345/209/37
f 350/210/39 349/213/39 347/211/38
f 352/212/40 351/215/40 349/213/39
f 354/214/41 353/217/41 351/215/40
f 356/216/42 355/219/42 353/217/41
f 358/218/43 357/221/43 355/219/42
f 360/220/44 359/223/44 357/221/43
f 362/222/45 361/109/45 359/223/44
f 364/224/46 363/226/46 361/109/45
f 366/225/47 365/228/47 363/226/46
f 368/227/48 367/230/48 365/228/47
f 370/229/49 369/232/49 367/230/48
f 372/231/50 371/234/50 369/232/49
f 374/233/51 373/236/51 371/234/50
f 376/235/52 375/238/52 373/236/51
f 378/237/53 377/240/53 375/238/52
f 380/239/54 379/242/54 377/240/53
f 382/241/55 381/244/55 379/242/54
f 384/243/56 383/246/56 381/244/55
f 386/245/57 385/248/57 383/246/56
f 388/247/58 387/250/58 385/248/57
f 390/249/59 389/252/59 387/250/58
f 392/251/60 391/254/60 389/252/59
f 394/253/61 393/256/61 391/254/60
f 396/255/62 395/258/62 393/256/61
f 398/257/63 397/260/63 395/258/62
f 400/259/64 399/262/64 397/260/63
f 402/261/65 401/264/65 399/262/64
f 404/263/66 403/266/66 401/264/65
f 406/265/67 405/268/67 403/266/66
f 408/267/68 407/270/68 405/268/67
f 410/269/69 409/272/71 407/270/68
f 412/271/70 411/274/73 409/272/71
f 414/273/72 413/276/72 411/274/73
f 416/275/74 415/278/74 413/276/72
f 418/277/75 417/280/75 415/278/74
f 420/279/76 419/282/76 417/280/75
f 422/281/77 421/284/77 419/282/76
f 424/283/78 423/286/78 421/284/77
f 426/285/79 425/288/79 423/286/78
f 428/287/80 427/290/80 425/288/79
f 430/289/81 429/292/81 427/290/80
f 432/291/82 431/294/82 429/292/81
f 434/293/83 433/296/83 431/294/82
f 436/295/84 435/298/84 433/296/83
f 438/297/85 437/300/85 435/298/84
f 440/299/86 439/302/86 437/300/85
f 442/301/87 441/304/87 439/302/86
f 444/303/88 443/306/88 441/304/87
f 446/305/89 445/308/89 443/306/88
f 448/307/90 447/94/90 445/308/89
f 450/309/91 449/311/91 447/94/90
f 452/310/92 451/313/92 449/311/91
f 454/312/93 453/315/93 451/313/92
f 456/314/94 455/317/94 453/315/93
f 458/316/95 457/319/95 455/317/94
f 460/318/96 459/321/96 457/319/95
f 462/320/97 461/323/97 459/321/96
f 464/322/98 463/325/98 461/323/97
f 466/324/99 465/327/99 463/325/98
f 468/326/100 467/329/100 465/327/99
f 470/328/101 469/331/101 467/329/100
f 472/330/102 471/333/102 469/331/101
f 474/332/103 473/335/103 471/333/102
f 476/334/104 475/337/104 473/335/103
f 478/336/105 477/339/105 475/337/104
f 480/338/106 479/341/106 477/339/105
f 482/340/107 481/343/107 479/341/106
f 484/342/108 483/345/108 481/343/107
f 486/344/109 485/347/109 483/345/108
f 488/346/110 487/349/110 485/347/109
f 490/348/111 489/351/111 487/349/110
f 492/350/112 491/353/112 489/351/111
f 494/352/113 493/355/113 491/353/112
f 496/354/114 495/357/114 493/355/113
f 498/356/115 497/359/115 495/357/114
f 500/358/116 499/361/116 497/359/115
f 502/360/117 501/363/117 499/361/116
f 504/362/118 503/365/120 501/363/117
f 506/364/119 505/367/119 503/365/120
f 508/366/121 507/369/121 505/367/119
f 510/368/122 509/371/122 507/369/121
f 512/370/123 511/373/123 509/371/122
f 514/372/124 513/375/124 511/373/123
f 516/374/125 515/377/125 513/375/124
f 518/376/126 517/379/126 515/377/125
f 520/378/127 519/381/127 517/379/126
f 522/380/128 521/383/128 519/381/127
f 524/382/129 523/385/129 521/383/128
f 526/384/130 525/387/130 523/385/129
f 528/386/131 527/389/131 525/387/130
f 530/388/132 529/391/132 527/389/131
f 532/390/5 531/392/5 529/391/132
f 276/138/3 275/2/3 531/392/5
