# Blender 4.1.1
# www.blender.org
mtllib TitleSpace.mtl
o テキスト
v -1.236000 0.594000 -0.100000
v -1.236000 0.388000 -0.100000
v -1.515000 0.388000 -0.100000
v -1.515000 0.300000 -0.100000
v -1.236000 0.300000 -0.100000
v -1.236000 0.088000 -0.100000
v -1.534000 0.088000 -0.100000
v -1.534000 -0.000000 -0.100000
v -1.138000 -0.000000 -0.100000
v -1.138000 0.682000 -0.100000
v -1.525000 0.682000 -0.100000
v -1.525000 0.594000 -0.100000
v -0.990239 0.541691 -0.100000
v -0.969912 0.552273 -0.100000
v -0.949953 0.561766 -0.100000
v -0.930296 0.570185 -0.100000
v -0.910876 0.577549 -0.100000
v -0.891625 0.583875 -0.100000
v -0.872479 0.589180 -0.100000
v -0.853371 0.593482 -0.100000
v -0.834235 0.596797 -0.100000
v -0.815005 0.599144 -0.100000
v -0.795615 0.600539 -0.100000
v -0.776000 0.601000 -0.100000
v -0.737878 0.598729 -0.100000
v -0.701685 0.592083 -0.100000
v -0.667688 0.581313 -0.100000
v -0.636148 0.566667 -0.100000
v -0.607331 0.548396 -0.100000
v -0.581500 0.526750 -0.100000
v -0.558919 0.501979 -0.100000
v -0.539852 0.474333 -0.100000
v -0.524563 0.444063 -0.100000
v -0.513315 0.411417 -0.100000
v -0.506373 0.376646 -0.100000
v -0.504000 0.340000 -0.100000
v -0.506299 0.302763 -0.100000
v -0.513056 0.267690 -0.100000
v -0.524063 0.234984 -0.100000
v -0.539111 0.204852 -0.100000
v -0.557993 0.177497 -0.100000
v -0.580500 0.153125 -0.100000
v -0.606424 0.131940 -0.100000
v -0.635556 0.114148 -0.100000
v -0.667688 0.099953 -0.100000
v -0.702611 0.089560 -0.100000
v -0.740118 0.083174 -0.100000
v -0.780000 0.081000 -0.100000
v -0.799388 0.081560 -0.100000
v -0.819019 0.083231 -0.100000
v -0.838844 0.086000 -0.100000
v -0.858815 0.089852 -0.100000
v -0.878883 0.094773 -0.100000
v -0.899000 0.100750 -0.100000
v -0.919117 0.107769 -0.100000
v -0.939185 0.115815 -0.100000
v -0.959157 0.124875 -0.100000
v -0.978982 0.134935 -0.100000
v -0.998613 0.145981 -0.100000
v -1.018000 0.158000 -0.100000
v -1.018000 0.051000 -0.100000
v -1.001109 0.042467 -0.100000
v -0.983871 0.034403 -0.100000
v -0.966188 0.026859 -0.100000
v -0.947963 0.019889 -0.100000
v -0.929100 0.013543 -0.100000
v -0.909500 0.007875 -0.100000
v -0.889067 0.002936 -0.100000
v -0.867704 -0.001222 -0.100000
v -0.845313 -0.004547 -0.100000
v -0.821797 -0.006986 -0.100000
v -0.797058 -0.008488 -0.100000
v -0.771000 -0.009000 -0.100000
v -0.709982 -0.005041 -0.100000
v -0.654852 0.006255 -0.100000
v -0.605500 0.024016 -0.100000
v -0.561815 0.047370 -0.100000
v -0.523685 0.075447 -0.100000
v -0.491000 0.107375 -0.100000
v -0.463648 0.142282 -0.100000
v -0.441519 0.179296 -0.100000
v -0.424500 0.217547 -0.100000
v -0.412482 0.256162 -0.100000
v -0.405352 0.294270 -0.100000
v -0.403000 0.331000 -0.100000
v -0.406215 0.381778 -0.100000
v -0.415634 0.429889 -0.100000
v -0.430922 0.475000 -0.100000
v -0.451741 0.516778 -0.100000
v -0.477754 0.554889 -0.100000
v -0.508625 0.589000 -0.100000
v -0.544017 0.618778 -0.100000
v -0.583593 0.643889 -0.100000
v -0.627016 0.664000 -0.100000
v -0.673949 0.678778 -0.100000
v -0.724056 0.687889 -0.100000
v -0.777000 0.691000 -0.100000
v -0.794533 0.690643 -0.100000
v -0.812181 0.689560 -0.100000
v -0.830016 0.687734 -0.100000
v -0.848111 0.685148 -0.100000
v -0.866540 0.681784 -0.100000
v -0.885375 0.677625 -0.100000
v -0.904689 0.672653 -0.100000
v -0.924556 0.666852 -0.100000
v -0.945047 0.660203 -0.100000
v -0.966236 0.652690 -0.100000
v -0.988196 0.644295 -0.100000
v -1.011000 0.635000 -0.100000
v -1.011000 0.530000 -0.100000
v -0.255000 -0.000000 -0.100000
v -0.164000 0.201000 -0.100000
v 0.126000 0.201000 -0.100000
v 0.212000 -0.000000 -0.100000
v 0.312000 -0.000000 -0.100000
v 0.019000 0.686000 -0.100000
v -0.050000 0.686000 -0.100000
v -0.355000 -0.000000 -0.100000
v -0.124000 0.289000 -0.100000
v -0.014000 0.536000 -0.100000
v 0.088000 0.289000 -0.100000
v 0.503430 0.680206 -0.100000
v 0.471190 0.674982 -0.100000
v 0.442234 0.666563 -0.100000
v 0.416518 0.655185 -0.100000
v 0.393997 0.641086 -0.100000
v 0.374625 0.624500 -0.100000
v 0.358357 0.605664 -0.100000
v 0.345148 0.584815 -0.100000
v 0.334953 0.562188 -0.100000
v 0.327727 0.538019 -0.100000
v 0.323424 0.512544 -0.100000
v 0.322000 0.486000 -0.100000
v 0.323508 0.459765 -0.100000
v 0.328065 0.434699 -0.100000
v 0.335719 0.411016 -0.100000
v 0.346518 0.388926 -0.100000
v 0.360513 0.368642 -0.100000
v 0.377750 0.350375 -0.100000
v 0.398279 0.334337 -0.100000
v 0.422148 0.320741 -0.100000
v 0.449406 0.309797 -0.100000
v 0.480102 0.301718 -0.100000
v 0.514283 0.296715 -0.100000
v 0.552000 0.295000 -0.100000
v 0.654000 0.295000 -0.100000
v 0.654000 -0.000000 -0.100000
v 0.752000 -0.000000 -0.100000
v 0.752000 0.682000 -0.100000
v 0.539000 0.682000 -0.100000
v 0.543000 0.383000 -0.100000
v 0.525304 0.383807 -0.100000
v 0.508764 0.386204 -0.100000
v 0.493453 0.390156 -0.100000
v 0.479444 0.395630 -0.100000
v 0.466811 0.402589 -0.100000
v 0.455625 0.411000 -0.100000
v 0.445960 0.420828 -0.100000
v 0.437889 0.432037 -0.100000
v 0.431484 0.444594 -0.100000
v 0.426819 0.458463 -0.100000
v 0.423967 0.473610 -0.100000
v 0.423000 0.490000 -0.100000
v 0.423583 0.502550 -0.100000
v 0.425412 0.515065 -0.100000
v 0.428609 0.527344 -0.100000
v 0.433296 0.539185 -0.100000
v 0.439594 0.550388 -0.100000
v 0.447625 0.560750 -0.100000
v 0.457510 0.570071 -0.100000
v 0.469370 0.578148 -0.100000
v 0.483328 0.584781 -0.100000
v 0.499505 0.589769 -0.100000
v 0.518021 0.592909 -0.100000
v 0.539000 0.594000 -0.100000
v 0.654000 0.594000 -0.100000
v 0.654000 0.383000 -0.100000
v 0.895454 0.544951 -0.100000
v 0.909796 0.556357 -0.100000
v 0.924000 0.566297 -0.100000
v 0.938037 0.574852 -0.100000
v 0.951880 0.582101 -0.100000
v 0.965500 0.588125 -0.100000
v 0.978870 0.593003 -0.100000
v 0.991963 0.596815 -0.100000
v 1.004750 0.599641 -0.100000
v 1.017204 0.601560 -0.100000
v 1.029296 0.602653 -0.100000
v 1.041000 0.603000 -0.100000
v 1.056359 0.602323 -0.100000
v 1.070875 0.600333 -0.100000
v 1.084453 0.597094 -0.100000
v 1.097000 0.592667 -0.100000
v 1.108422 0.587115 -0.100000
v 1.118625 0.580500 -0.100000
v 1.127516 0.572885 -0.100000
v 1.135000 0.564333 -0.100000
v 1.140984 0.554906 -0.100000
v 1.145375 0.544667 -0.100000
v 1.148078 0.533677 -0.100000
v 1.149000 0.522000 -0.100000
v 1.143196 0.491817 -0.100000
v 1.127148 0.465954 -0.100000
v 1.102906 0.443187 -0.100000
v 1.072519 0.422296 -0.100000
v 1.038034 0.402058 -0.100000
v 1.001500 0.381250 -0.100000
v 0.964966 0.358650 -0.100000
v 0.930481 0.333037 -0.100000
v 0.900094 0.303187 -0.100000
v 0.875852 0.267880 -0.100000
v 0.859804 0.225891 -0.100000
v 0.854000 0.176000 -0.100000
v 0.855657 0.149883 -0.100000
v 0.860509 0.125144 -0.100000
v 0.868375 0.101953 -0.100000
v 0.879074 0.080481 -0.100000
v 0.892426 0.060899 -0.100000
v 0.908250 0.043375 -0.100000
v 0.926366 0.028080 -0.100000
v 0.946593 0.015185 -0.100000
v 0.968750 0.004859 -0.100000
v 0.992657 -0.002727 -0.100000
v 1.018134 -0.007403 -0.100000
v 1.045000 -0.009000 -0.100000
v 1.063215 -0.008582 -0.100000
v 1.080884 -0.007319 -0.100000
v 1.098047 -0.005203 -0.100000
v 1.114741 -0.002222 -0.100000
v 1.131004 0.001634 -0.100000
v 1.146875 0.006375 -0.100000
v 1.162392 0.012012 -0.100000
v 1.177593 0.018556 -0.100000
v 1.192516 0.026016 -0.100000
v 1.207199 0.034403 -0.100000
v 1.221681 0.043727 -0.100000
v 1.236000 0.054000 -0.100000
v 1.236000 0.178000 -0.100000
v 1.223234 0.162608 -0.100000
v 1.209958 0.148444 -0.100000
v 1.196203 0.135531 -0.100000
v 1.182000 0.123889 -0.100000
v 1.167380 0.113538 -0.100000
v 1.152375 0.104500 -0.100000
v 1.137016 0.096795 -0.100000
v 1.121333 0.090444 -0.100000
v 1.105359 0.085469 -0.100000
v 1.089125 0.081889 -0.100000
v 1.072661 0.079726 -0.100000
v 1.056000 0.079000 -0.100000
v 1.037851 0.079966 -0.100000
v 1.021389 0.082731 -0.100000
v 1.006594 0.087094 -0.100000
v 0.993444 0.092852 -0.100000
v 0.981920 0.099804 -0.100000
v 0.972000 0.107750 -0.100000
v 0.963663 0.116487 -0.100000
v 0.956889 0.125815 -0.100000
v 0.951656 0.135531 -0.100000
v 0.947944 0.145435 -0.100000
v 0.945733 0.155325 -0.100000
v 0.945000 0.165000 -0.100000
v 0.950804 0.197817 -0.100000
v 0.966852 0.226454 -0.100000
v 0.991094 0.251937 -0.100000
v 1.021481 0.275296 -0.100000
v 1.055966 0.297558 -0.100000
v 1.092500 0.319750 -0.100000
v 1.129033 0.342900 -0.100000
v 1.163518 0.368037 -0.100000
v 1.193906 0.396187 -0.100000
v 1.218148 0.428380 -0.100000
v 1.234196 0.465641 -0.100000
v 1.240000 0.509000 -0.100000
v 1.238314 0.535899 -0.100000
v 1.233347 0.561023 -0.100000
v 1.225234 0.584266 -0.100000
v 1.214111 0.605519 -0.100000
v 1.200113 0.624674 -0.100000
v 1.183375 0.641625 -0.100000
v 1.164033 0.656263 -0.100000
v 1.142222 0.668482 -0.100000
v 1.118078 0.678172 -0.100000
v 1.091736 0.685227 -0.100000
v 1.063332 0.689539 -0.100000
v 1.033000 0.691000 -0.100000
v 1.020002 0.690667 -0.100000
v 1.007019 0.689667 -0.100000
v 0.994062 0.688000 -0.100000
v 0.981148 0.685667 -0.100000
v 0.968289 0.682667 -0.100000
v 0.955500 0.679000 -0.100000
v 0.942794 0.674667 -0.100000
v 0.930185 0.669667 -0.100000
v 0.917687 0.664000 -0.100000
v 0.905315 0.657667 -0.100000
v 0.893081 0.650667 -0.100000
v 0.881000 0.643000 -0.100000
v 0.881000 0.532000 -0.100000
v -1.236000 0.594000 0.100000
v -1.236000 0.388000 0.100000
v -1.515000 0.388000 0.100000
v -1.515000 0.300000 0.100000
v -1.236000 0.300000 0.100000
v -1.236000 0.088000 0.100000
v -1.534000 0.088000 0.100000
v -1.534000 0.000000 0.100000
v -1.138000 0.000000 0.100000
v -1.138000 0.682000 0.100000
v -1.525000 0.682000 0.100000
v -1.525000 0.594000 0.100000
v -0.990239 0.541691 0.100000
v -0.969912 0.552273 0.100000
v -0.949953 0.561766 0.100000
v -0.930296 0.570185 0.100000
v -0.910876 0.577549 0.100000
v -0.891625 0.583875 0.100000
v -0.872479 0.589180 0.100000
v -0.853371 0.593482 0.100000
v -0.834235 0.596797 0.100000
v -0.815005 0.599144 0.100000
v -0.795615 0.600539 0.100000
v -0.776000 0.601000 0.100000
v -0.737878 0.598729 0.100000
v -0.701685 0.592083 0.100000
v -0.667688 0.581313 0.100000
v -0.636148 0.566667 0.100000
v -0.607331 0.548396 0.100000
v -0.581500 0.526750 0.100000
v -0.558919 0.501979 0.100000
v -0.539852 0.474333 0.100000
v -0.524563 0.444063 0.100000
v -0.513315 0.411417 0.100000
v -0.506373 0.376646 0.100000
v -0.504000 0.340000 0.100000
v -0.506299 0.302763 0.100000
v -0.513056 0.267690 0.100000
v -0.524063 0.234984 0.100000
v -0.539111 0.204852 0.100000
v -0.557993 0.177497 0.100000
v -0.580500 0.153125 0.100000
v -0.606424 0.131940 0.100000
v -0.635556 0.114148 0.100000
v -0.667688 0.099953 0.100000
v -0.702611 0.089560 0.100000
v -0.740118 0.083174 0.100000
v -0.780000 0.081000 0.100000
v -0.799388 0.081560 0.100000
v -0.819019 0.083232 0.100000
v -0.838844 0.086000 0.100000
v -0.858815 0.089852 0.100000
v -0.878883 0.094773 0.100000
v -0.899000 0.100750 0.100000
v -0.919117 0.107769 0.100000
v -0.939185 0.115815 0.100000
v -0.959157 0.124875 0.100000
v -0.978982 0.134935 0.100000
v -0.998613 0.145981 0.100000
v -1.018000 0.158000 0.100000
v -1.018000 0.051000 0.100000
v -1.001109 0.042467 0.100000
v -0.983871 0.034403 0.100000
v -0.966188 0.026859 0.100000
v -0.947963 0.019889 0.100000
v -0.929100 0.013543 0.100000
v -0.909500 0.007875 0.100000
v -0.889067 0.002936 0.100000
v -0.867704 -0.001222 0.100000
v -0.845313 -0.004547 0.100000
v -0.821797 -0.006986 0.100000
v -0.797058 -0.008488 0.100000
v -0.771000 -0.009000 0.100000
v -0.709982 -0.005041 0.100000
v -0.654852 0.006255 0.100000
v -0.605500 0.024016 0.100000
v -0.561815 0.047370 0.100000
v -0.523685 0.075447 0.100000
v -0.491000 0.107375 0.100000
v -0.463648 0.142282 0.100000
v -0.441519 0.179296 0.100000
v -0.424500 0.217547 0.100000
v -0.412482 0.256162 0.100000
v -0.405352 0.294270 0.100000
v -0.403000 0.331000 0.100000
v -0.406215 0.381778 0.100000
v -0.415634 0.429889 0.100000
v -0.430922 0.475000 0.100000
v -0.451741 0.516778 0.100000
v -0.477754 0.554889 0.100000
v -0.508625 0.589000 0.100000
v -0.544017 0.618778 0.100000
v -0.583593 0.643889 0.100000
v -0.627016 0.664000 0.100000
v -0.673949 0.678778 0.100000
v -0.724056 0.687889 0.100000
v -0.777000 0.691000 0.100000
v -0.794533 0.690643 0.100000
v -0.812181 0.689560 0.100000
v -0.830016 0.687734 0.100000
v -0.848111 0.685148 0.100000
v -0.866540 0.681784 0.100000
v -0.885375 0.677625 0.100000
v -0.904689 0.672653 0.100000
v -0.924556 0.666852 0.100000
v -0.945047 0.660203 0.100000
v -0.966236 0.652690 0.100000
v -0.988196 0.644295 0.100000
v -1.011000 0.635000 0.100000
v -1.011000 0.530000 0.100000
v -0.255000 0.000000 0.100000
v -0.164000 0.201000 0.100000
v 0.126000 0.201000 0.100000
v 0.212000 0.000000 0.100000
v 0.312000 0.000000 0.100000
v 0.019000 0.686000 0.100000
v -0.050000 0.686000 0.100000
v -0.355000 0.000000 0.100000
v -0.124000 0.289000 0.100000
v -0.014000 0.536000 0.100000
v 0.088000 0.289000 0.100000
v 0.503430 0.680206 0.100000
v 0.471190 0.674982 0.100000
v 0.442234 0.666563 0.100000
v 0.416518 0.655185 0.100000
v 0.393997 0.641086 0.100000
v 0.374625 0.624500 0.100000
v 0.358357 0.605664 0.100000
v 0.345148 0.584815 0.100000
v 0.334953 0.562188 0.100000
v 0.327727 0.538019 0.100000
v 0.323424 0.512544 0.100000
v 0.322000 0.486000 0.100000
v 0.323508 0.459765 0.100000
v 0.328065 0.434699 0.100000
v 0.335719 0.411016 0.100000
v 0.346518 0.388926 0.100000
v 0.360513 0.368642 0.100000
v 0.377750 0.350375 0.100000
v 0.398279 0.334337 0.100000
v 0.422148 0.320741 0.100000
v 0.449406 0.309797 0.100000
v 0.480102 0.301718 0.100000
v 0.514283 0.296715 0.100000
v 0.552000 0.295000 0.100000
v 0.654000 0.295000 0.100000
v 0.654000 0.000000 0.100000
v 0.752000 0.000000 0.100000
v 0.752000 0.682000 0.100000
v 0.539000 0.682000 0.100000
v 0.543000 0.383000 0.100000
v 0.525304 0.383807 0.100000
v 0.508764 0.386204 0.100000
v 0.493453 0.390156 0.100000
v 0.479444 0.395630 0.100000
v 0.466811 0.402589 0.100000
v 0.455625 0.411000 0.100000
v 0.445960 0.420828 0.100000
v 0.437889 0.432037 0.100000
v 0.431484 0.444594 0.100000
v 0.426819 0.458463 0.100000
v 0.423967 0.473610 0.100000
v 0.423000 0.490000 0.100000
v 0.423583 0.502550 0.100000
v 0.425412 0.515065 0.100000
v 0.428609 0.527344 0.100000
v 0.433296 0.539185 0.100000
v 0.439594 0.550388 0.100000
v 0.447625 0.560750 0.100000
v 0.457510 0.570071 0.100000
v 0.469370 0.578148 0.100000
v 0.483328 0.584781 0.100000
v 0.499505 0.589769 0.100000
v 0.518021 0.592909 0.100000
v 0.539000 0.594000 0.100000
v 0.654000 0.594000 0.100000
v 0.654000 0.383000 0.100000
v 0.895454 0.544951 0.100000
v 0.909796 0.556357 0.100000
v 0.924000 0.566297 0.100000
v 0.938037 0.574852 0.100000
v 0.951880 0.582101 0.100000
v 0.965500 0.588125 0.100000
v 0.978870 0.593003 0.100000
v 0.991963 0.596815 0.100000
v 1.004750 0.599641 0.100000
v 1.017204 0.601560 0.100000
v 1.029296 0.602653 0.100000
v 1.041000 0.603000 0.100000
v 1.056359 0.602323 0.100000
v 1.070875 0.600333 0.100000
v 1.084453 0.597094 0.100000
v 1.097000 0.592667 0.100000
v 1.108422 0.587115 0.100000
v 1.118625 0.580500 0.100000
v 1.127516 0.572885 0.100000
v 1.135000 0.564333 0.100000
v 1.140984 0.554906 0.100000
v 1.145375 0.544667 0.100000
v 1.148078 0.533677 0.100000
v 1.149000 0.522000 0.100000
v 1.143196 0.491817 0.100000
v 1.127148 0.465954 0.100000
v 1.102906 0.443187 0.100000
v 1.072519 0.422296 0.100000
v 1.038034 0.402058 0.100000
v 1.001500 0.381250 0.100000
v 0.964966 0.358650 0.100000
v 0.930481 0.333037 0.100000
v 0.900094 0.303187 0.100000
v 0.875852 0.267880 0.100000
v 0.859804 0.225891 0.100000
v 0.854000 0.176000 0.100000
v 0.855657 0.149883 0.100000
v 0.860509 0.125144 0.100000
v 0.868375 0.101953 0.100000
v 0.879074 0.080481 0.100000
v 0.892426 0.060899 0.100000
v 0.908250 0.043375 0.100000
v 0.926366 0.028080 0.100000
v 0.946593 0.015185 0.100000
v 0.968750 0.004859 0.100000
v 0.992657 -0.002727 0.100000
v 1.018134 -0.007403 0.100000
v 1.045000 -0.009000 0.100000
v 1.063215 -0.008582 0.100000
v 1.080884 -0.007319 0.100000
v 1.098047 -0.005203 0.100000
v 1.114741 -0.002222 0.100000
v 1.131004 0.001634 0.100000
v 1.146875 0.006375 0.100000
v 1.162392 0.012012 0.100000
v 1.177593 0.018556 0.100000
v 1.192516 0.026016 0.100000
v 1.207199 0.034403 0.100000
v 1.221681 0.043727 0.100000
v 1.236000 0.054000 0.100000
v 1.236000 0.178000 0.100000
v 1.223234 0.162608 0.100000
v 1.209958 0.148444 0.100000
v 1.196203 0.135531 0.100000
v 1.182000 0.123889 0.100000
v 1.167380 0.113538 0.100000
v 1.152375 0.104500 0.100000
v 1.137016 0.096795 0.100000
v 1.121333 0.090444 0.100000
v 1.105359 0.085469 0.100000
v 1.089125 0.081889 0.100000
v 1.072661 0.079726 0.100000
v 1.056000 0.079000 0.100000
v 1.037851 0.079966 0.100000
v 1.021389 0.082731 0.100000
v 1.006594 0.087094 0.100000
v 0.993444 0.092852 0.100000
v 0.981920 0.099804 0.100000
v 0.972000 0.107750 0.100000
v 0.963663 0.116487 0.100000
v 0.956889 0.125815 0.100000
v 0.951656 0.135531 0.100000
v 0.947944 0.145435 0.100000
v 0.945733 0.155325 0.100000
v 0.945000 0.165000 0.100000
v 0.950804 0.197817 0.100000
v 0.966852 0.226454 0.100000
v 0.991094 0.251937 0.100000
v 1.021481 0.275296 0.100000
v 1.055966 0.297558 0.100000
v 1.092500 0.319750 0.100000
v 1.129033 0.342900 0.100000
v 1.163518 0.368037 0.100000
v 1.193906 0.396187 0.100000
v 1.218148 0.428380 0.100000
v 1.234196 0.465641 0.100000
v 1.240000 0.509000 0.100000
v 1.238314 0.535899 0.100000
v 1.233347 0.561023 0.100000
v 1.225234 0.584266 0.100000
v 1.214111 0.605519 0.100000
v 1.200113 0.624674 0.100000
v 1.183375 0.641625 0.100000
v 1.164033 0.656263 0.100000
v 1.142222 0.668482 0.100000
v 1.118078 0.678172 0.100000
v 1.091736 0.685227 0.100000
v 1.063332 0.689539 0.100000
v 1.033000 0.691000 0.100000
v 1.020002 0.690667 0.100000
v 1.007019 0.689667 0.100000
v 0.994062 0.688000 0.100000
v 0.981148 0.685667 0.100000
v 0.968289 0.682667 0.100000
v 0.955500 0.679000 0.100000
v 0.942794 0.674667 0.100000
v 0.930185 0.669667 0.100000
v 0.917687 0.664000 0.100000
v 0.905315 0.657667 0.100000
v 0.893081 0.650667 0.100000
v 0.881000 0.643000 0.100000
v 0.881000 0.532000 0.100000
v 0.895454 0.544951 0.100000
v 0.895454 0.544951 -0.100000
v 0.909796 0.556357 0.100000
v 0.909796 0.556357 -0.100000
v 0.924000 0.566297 0.100000
v 0.924000 0.566297 -0.100000
v 0.938037 0.574852 0.100000
v 0.938037 0.574852 -0.100000
v 0.951880 0.582101 0.100000
v 0.951880 0.582101 -0.100000
v 0.965500 0.588125 0.100000
v 0.965500 0.588125 -0.100000
v 0.978870 0.593003 0.100000
v 0.978870 0.593003 -0.100000
v 0.991963 0.596815 0.100000
v 0.991963 0.596815 -0.100000
v 1.004750 0.599641 0.100000
v 1.004750 0.599641 -0.100000
v 1.017204 0.601560 0.100000
v 1.017204 0.601560 -0.100000
v 1.029296 0.602653 0.100000
v 1.029296 0.602653 -0.100000
v 1.041000 0.603000 0.100000
v 1.041000 0.603000 -0.100000
v 1.056359 0.602323 0.100000
v 1.056359 0.602323 -0.100000
v 1.070875 0.600333 0.100000
v 1.070875 0.600333 -0.100000
v 1.084453 0.597094 0.100000
v 1.084453 0.597094 -0.100000
v 1.097000 0.592667 0.100000
v 1.097000 0.592667 -0.100000
v 1.108422 0.587115 0.100000
v 1.108422 0.587115 -0.100000
v 1.118625 0.580500 0.100000
v 1.118625 0.580500 -0.100000
v 1.127516 0.572885 0.100000
v 1.127516 0.572885 -0.100000
v 1.135000 0.564333 0.100000
v 1.135000 0.564333 -0.100000
v 1.140984 0.554906 0.100000
v 1.140984 0.554906 -0.100000
v 1.145375 0.544667 0.100000
v 1.145375 0.544667 -0.100000
v 1.148078 0.533677 0.100000
v 1.148078 0.533677 -0.100000
v 1.149000 0.522000 0.100000
v 1.149000 0.522000 -0.100000
v 1.143196 0.491817 0.100000
v 1.143196 0.491817 -0.100000
v 1.127148 0.465954 0.100000
v 1.127148 0.465954 -0.100000
v 1.102906 0.443187 0.100000
v 1.102906 0.443187 -0.100000
v 1.072519 0.422296 0.100000
v 1.072519 0.422296 -0.100000
v 1.038034 0.402058 0.100000
v 1.038034 0.402058 -0.100000
v 1.001500 0.381250 0.100000
v 1.001500 0.381250 -0.100000
v 0.964966 0.358650 0.100000
v 0.964966 0.358650 -0.100000
v 0.930481 0.333037 0.100000
v 0.930481 0.333037 -0.100000
v 0.900094 0.303187 0.100000
v 0.900094 0.303187 -0.100000
v 0.875852 0.267880 0.100000
v 0.875852 0.267880 -0.100000
v 0.859804 0.225891 0.100000
v 0.859804 0.225891 -0.100000
v 0.854000 0.176000 0.100000
v 0.854000 0.176000 -0.100000
v 0.855657 0.149883 0.100000
v 0.855657 0.149883 -0.100000
v 0.860509 0.125144 0.100000
v 0.860509 0.125144 -0.100000
v 0.868375 0.101953 0.100000
v 0.868375 0.101953 -0.100000
v 0.879074 0.080481 0.100000
v 0.879074 0.080481 -0.100000
v 0.892426 0.060899 0.100000
v 0.892426 0.060899 -0.100000
v 0.908250 0.043375 0.100000
v 0.908250 0.043375 -0.100000
v 0.926366 0.028080 0.100000
v 0.926366 0.028080 -0.100000
v 0.946593 0.015185 0.100000
v 0.946593 0.015185 -0.100000
v 0.968750 0.004859 0.100000
v 0.968750 0.004859 -0.100000
v 0.992657 -0.002727 0.100000
v 0.992657 -0.002727 -0.100000
v 1.018134 -0.007403 0.100000
v 1.018134 -0.007403 -0.100000
v 1.045000 -0.009000 0.100000
v 1.045000 -0.009000 -0.100000
v 1.063215 -0.008582 0.100000
v 1.063215 -0.008582 -0.100000
v 1.080884 -0.007319 0.100000
v 1.080884 -0.007319 -0.100000
v 1.098047 -0.005203 0.100000
v 1.098047 -0.005203 -0.100000
v 1.114741 -0.002222 0.100000
v 1.114741 -0.002222 -0.100000
v 1.131004 0.001634 0.100000
v 1.131004 0.001634 -0.100000
v 1.146875 0.006375 0.100000
v 1.146875 0.006375 -0.100000
v 1.162392 0.012012 0.100000
v 1.162392 0.012012 -0.100000
v 1.177593 0.018556 0.100000
v 1.177593 0.018556 -0.100000
v 1.192516 0.026016 0.100000
v 1.192516 0.026016 -0.100000
v 1.207199 0.034403 0.100000
v 1.207199 0.034403 -0.100000
v 1.221681 0.043727 0.100000
v 1.221681 0.043727 -0.100000
v 1.236000 0.054000 0.100000
v 1.236000 0.054000 -0.100000
v 1.236000 0.178000 0.100000
v 1.236000 0.178000 -0.100000
v 1.223234 0.162608 0.100000
v 1.223234 0.162608 -0.100000
v 1.209958 0.148444 0.100000
v 1.209958 0.148444 -0.100000
v 1.196203 0.135531 0.100000
v 1.196203 0.135531 -0.100000
v 1.182000 0.123889 0.100000
v 1.182000 0.123889 -0.100000
v 1.167380 0.113538 0.100000
v 1.167380 0.113538 -0.100000
v 1.152375 0.104500 0.100000
v 1.152375 0.104500 -0.100000
v 1.137016 0.096795 0.100000
v 1.137016 0.096795 -0.100000
v 1.121333 0.090444 0.100000
v 1.121333 0.090444 -0.100000
v 1.105359 0.085469 0.100000
v 1.105359 0.085469 -0.100000
v 1.089125 0.081889 0.100000
v 1.089125 0.081889 -0.100000
v 1.072661 0.079726 0.100000
v 1.072661 0.079726 -0.100000
v 1.056000 0.079000 0.100000
v 1.056000 0.079000 -0.100000
v 1.037851 0.079966 0.100000
v 1.037851 0.079966 -0.100000
v 1.021389 0.082731 0.100000
v 1.021389 0.082731 -0.100000
v 1.006594 0.087094 0.100000
v 1.006594 0.087094 -0.100000
v 0.993444 0.092852 0.100000
v 0.993444 0.092852 -0.100000
v 0.981920 0.099804 0.100000
v 0.981920 0.099804 -0.100000
v 0.972000 0.107750 0.100000
v 0.972000 0.107750 -0.100000
v 0.963663 0.116487 0.100000
v 0.963663 0.116487 -0.100000
v 0.956889 0.125815 0.100000
v 0.956889 0.125815 -0.100000
v 0.951656 0.135531 0.100000
v 0.951656 0.135531 -0.100000
v 0.947944 0.145435 0.100000
v 0.947944 0.145435 -0.100000
v 0.945733 0.155325 0.100000
v 0.945733 0.155325 -0.100000
v 0.945000 0.165000 0.100000
v 0.945000 0.165000 -0.100000
v 0.950804 0.197817 0.100000
v 0.950804 0.197817 -0.100000
v 0.966852 0.226454 0.100000
v 0.966852 0.226454 -0.100000
v 0.991094 0.251937 0.100000
v 0.991094 0.251937 -0.100000
v 1.021481 0.275296 0.100000
v 1.021481 0.275296 -0.100000
v 1.055966 0.297558 0.100000
v 1.055966 0.297558 -0.100000
v 1.092500 0.319750 0.100000
v 1.092500 0.319750 -0.100000
v 1.129033 0.342900 0.100000
v 1.129033 0.342900 -0.100000
v 1.163518 0.368037 0.100000
v 1.163518 0.368037 -0.100000
v 1.193906 0.396187 0.100000
v 1.193906 0.396187 -0.100000
v 1.218148 0.428380 0.100000
v 1.218148 0.428380 -0.100000
v 1.234196 0.465641 0.100000
v 1.234196 0.465641 -0.100000
v 1.240000 0.509000 0.100000
v 1.240000 0.509000 -0.100000
v 1.238314 0.535899 0.100000
v 1.238314 0.535899 -0.100000
v 1.233347 0.561023 0.100000
v 1.233347 0.561023 -0.100000
v 1.225234 0.584266 0.100000
v 1.225234 0.584266 -0.100000
v 1.214111 0.605519 0.100000
v 1.214111 0.605519 -0.100000
v 1.200113 0.624674 0.100000
v 1.200113 0.624674 -0.100000
v 1.183375 0.641625 0.100000
v 1.183375 0.641625 -0.100000
v 1.164033 0.656263 0.100000
v 1.164033 0.656263 -0.100000
v 1.142222 0.668482 0.100000
v 1.142222 0.668482 -0.100000
v 1.118078 0.678172 0.100000
v 1.118078 0.678172 -0.100000
v 1.091736 0.685227 0.100000
v 1.091736 0.685227 -0.100000
v 1.063332 0.689539 0.100000
v 1.063332 0.689539 -0.100000
v 1.033000 0.691000 0.100000
v 1.033000 0.691000 -0.100000
v 1.020002 0.690667 0.100000
v 1.020002 0.690667 -0.100000
v 1.007019 0.689667 0.100000
v 1.007019 0.689667 -0.100000
v 0.994062 0.688000 0.100000
v 0.994062 0.688000 -0.100000
v 0.981148 0.685667 0.100000
v 0.981148 0.685667 -0.100000
v 0.968289 0.682667 0.100000
v 0.968289 0.682667 -0.100000
v 0.955500 0.679000 0.100000
v 0.955500 0.679000 -0.100000
v 0.942794 0.674667 0.100000
v 0.942794 0.674667 -0.100000
v 0.930185 0.669667 0.100000
v 0.930185 0.669667 -0.100000
v 0.917687 0.664000 0.100000
v 0.917687 0.664000 -0.100000
v 0.905315 0.657667 0.100000
v 0.905315 0.657667 -0.100000
v 0.893081 0.650667 0.100000
v 0.893081 0.650667 -0.100000
v 0.881000 0.643000 0.100000
v 0.881000 0.643000 -0.100000
v 0.881000 0.532000 0.100000
v 0.881000 0.532000 -0.100000
v 0.503430 0.680206 0.100000
v 0.503430 0.680206 -0.100000
v 0.471190 0.674982 0.100000
v 0.471190 0.674982 -0.100000
v 0.442234 0.666563 0.100000
v 0.442234 0.666563 -0.100000
v 0.416518 0.655185 0.100000
v 0.416518 0.655185 -0.100000
v 0.393997 0.641086 0.100000
v 0.393997 0.641086 -0.100000
v 0.374625 0.624500 0.100000
v 0.374625 0.624500 -0.100000
v 0.358357 0.605664 0.100000
v 0.358357 0.605664 -0.100000
v 0.345148 0.584815 0.100000
v 0.345148 0.584815 -0.100000
v 0.334953 0.562188 0.100000
v 0.334953 0.562188 -0.100000
v 0.327727 0.538019 0.100000
v 0.327727 0.538019 -0.100000
v 0.323424 0.512544 0.100000
v 0.323424 0.512544 -0.100000
v 0.322000 0.486000 0.100000
v 0.322000 0.486000 -0.100000
v 0.323508 0.459765 0.100000
v 0.323508 0.459765 -0.100000
v 0.328065 0.434699 0.100000
v 0.328065 0.434699 -0.100000
v 0.335719 0.411016 0.100000
v 0.335719 0.411016 -0.100000
v 0.346518 0.388926 0.100000
v 0.346518 0.388926 -0.100000
v 0.360513 0.368642 0.100000
v 0.360513 0.368642 -0.100000
v 0.377750 0.350375 0.100000
v 0.377750 0.350375 -0.100000
v 0.398279 0.334337 0.100000
v 0.398279 0.334337 -0.100000
v 0.422148 0.320741 0.100000
v 0.422148 0.320741 -0.100000
v 0.449406 0.309797 0.100000
v 0.449406 0.309797 -0.100000
v 0.480102 0.301718 0.100000
v 0.480102 0.301718 -0.100000
v 0.514283 0.296715 0.100000
v 0.514283 0.296715 -0.100000
v 0.552000 0.295000 0.100000
v 0.552000 0.295000 -0.100000
v 0.654000 0.295000 0.100000
v 0.654000 0.295000 -0.100000
v 0.654000 0.000000 0.100000
v 0.654000 -0.000000 -0.100000
v 0.752000 0.000000 0.100000
v 0.752000 -0.000000 -0.100000
v 0.752000 0.682000 0.100000
v 0.752000 0.682000 -0.100000
v 0.539000 0.682000 0.100000
v 0.539000 0.682000 -0.100000
v 0.543000 0.383000 0.100000
v 0.543000 0.383000 -0.100000
v 0.525304 0.383807 0.100000
v 0.525304 0.383807 -0.100000
v 0.508764 0.386204 0.100000
v 0.508764 0.386204 -0.100000
v 0.493453 0.390156 0.100000
v 0.493453 0.390156 -0.100000
v 0.479444 0.395630 0.100000
v 0.479444 0.395630 -0.100000
v 0.466811 0.402589 0.100000
v 0.466811 0.402589 -0.100000
v 0.455625 0.411000 0.100000
v 0.455625 0.411000 -0.100000
v 0.445960 0.420828 0.100000
v 0.445960 0.420828 -0.100000
v 0.437889 0.432037 0.100000
v 0.437889 0.432037 -0.100000
v 0.431484 0.444594 0.100000
v 0.431484 0.444594 -0.100000
v 0.426819 0.458463 0.100000
v 0.426819 0.458463 -0.100000
v 0.423967 0.473610 0.100000
v 0.423967 0.473610 -0.100000
v 0.423000 0.490000 0.100000
v 0.423000 0.490000 -0.100000
v 0.423583 0.502550 0.100000
v 0.423583 0.502550 -0.100000
v 0.425412 0.515065 0.100000
v 0.425412 0.515065 -0.100000
v 0.428609 0.527344 0.100000
v 0.428609 0.527344 -0.100000
v 0.433296 0.539185 0.100000
v 0.433296 0.539185 -0.100000
v 0.439594 0.550388 0.100000
v 0.439594 0.550388 -0.100000
v 0.447625 0.560750 0.100000
v 0.447625 0.560750 -0.100000
v 0.457510 0.570071 0.100000
v 0.457510 0.570071 -0.100000
v 0.469370 0.578148 0.100000
v 0.469370 0.578148 -0.100000
v 0.483328 0.584781 0.100000
v 0.483328 0.584781 -0.100000
v 0.499505 0.589769 0.100000
v 0.499505 0.589769 -0.100000
v 0.518021 0.592909 0.100000
v 0.518021 0.592909 -0.100000
v 0.539000 0.594000 0.100000
v 0.539000 0.594000 -0.100000
v 0.654000 0.594000 0.100000
v 0.654000 0.594000 -0.100000
v 0.654000 0.383000 0.100000
v 0.654000 0.383000 -0.100000
v -0.255000 0.000000 0.100000
v -0.255000 -0.000000 -0.100000
v -0.164000 0.201000 0.100000
v -0.164000 0.201000 -0.100000
v 0.126000 0.201000 0.100000
v 0.126000 0.201000 -0.100000
v 0.212000 0.000000 0.100000
v 0.212000 -0.000000 -0.100000
v 0.312000 0.000000 0.100000
v 0.312000 -0.000000 -0.100000
v 0.019000 0.686000 0.100000
v 0.019000 0.686000 -0.100000
v -0.050000 0.686000 0.100000
v -0.050000 0.686000 -0.100000
v -0.355000 0.000000 0.100000
v -0.355000 -0.000000 -0.100000
v -0.124000 0.289000 0.100000
v -0.124000 0.289000 -0.100000
v -0.014000 0.536000 0.100000
v -0.014000 0.536000 -0.100000
v 0.088000 0.289000 0.100000
v 0.088000 0.289000 -0.100000
v -0.990239 0.541691 0.100000
v -0.990239 0.541691 -0.100000
v -0.969912 0.552273 0.100000
v -0.969912 0.552273 -0.100000
v -0.949953 0.561766 0.100000
v -0.949953 0.561766 -0.100000
v -0.930296 0.570185 0.100000
v -0.930296 0.570185 -0.100000
v -0.910876 0.577549 0.100000
v -0.910876 0.577549 -0.100000
v -0.891625 0.583875 0.100000
v -0.891625 0.583875 -0.100000
v -0.872479 0.589180 0.100000
v -0.872479 0.589180 -0.100000
v -0.853371 0.593482 0.100000
v -0.853371 0.593482 -0.100000
v -0.834235 0.596797 0.100000
v -0.834235 0.596797 -0.100000
v -0.815005 0.599144 0.100000
v -0.815005 0.599144 -0.100000
v -0.795615 0.600539 0.100000
v -0.795615 0.600539 -0.100000
v -0.776000 0.601000 0.100000
v -0.776000 0.601000 -0.100000
v -0.737878 0.598729 0.100000
v -0.737878 0.598729 -0.100000
v -0.701685 0.592083 0.100000
v -0.701685 0.592083 -0.100000
v -0.667688 0.581313 0.100000
v -0.667688 0.581313 -0.100000
v -0.636148 0.566667 0.100000
v -0.636148 0.566667 -0.100000
v -0.607331 0.548396 0.100000
v -0.607331 0.548396 -0.100000
v -0.581500 0.526750 0.100000
v -0.581500 0.526750 -0.100000
v -0.558919 0.501979 0.100000
v -0.558919 0.501979 -0.100000
v -0.539852 0.474333 0.100000
v -0.539852 0.474333 -0.100000
v -0.524563 0.444063 0.100000
v -0.524563 0.444063 -0.100000
v -0.513315 0.411417 0.100000
v -0.513315 0.411417 -0.100000
v -0.506373 0.376646 0.100000
v -0.506373 0.376646 -0.100000
v -0.504000 0.340000 0.100000
v -0.504000 0.340000 -0.100000
v -0.506299 0.302763 0.100000
v -0.506299 0.302763 -0.100000
v -0.513056 0.267690 0.100000
v -0.513056 0.267690 -0.100000
v -0.524063 0.234984 0.100000
v -0.524063 0.234984 -0.100000
v -0.539111 0.204852 0.100000
v -0.539111 0.204852 -0.100000
v -0.557993 0.177497 0.100000
v -0.557993 0.177497 -0.100000
v -0.580500 0.153125 0.100000
v -0.580500 0.153125 -0.100000
v -0.606424 0.131940 0.100000
v -0.606424 0.131940 -0.100000
v -0.635556 0.114148 0.100000
v -0.635556 0.114148 -0.100000
v -0.667688 0.099953 0.100000
v -0.667688 0.099953 -0.100000
v -0.702611 0.089560 0.100000
v -0.702611 0.089560 -0.100000
v -0.740118 0.083174 0.100000
v -0.740118 0.083174 -0.100000
v -0.780000 0.081000 0.100000
v -0.780000 0.081000 -0.100000
v -0.799388 0.081560 0.100000
v -0.799388 0.081560 -0.100000
v -0.819019 0.083232 0.100000
v -0.819019 0.083231 -0.100000
v -0.838844 0.086000 0.100000
v -0.838844 0.086000 -0.100000
v -0.858815 0.089852 0.100000
v -0.858815 0.089852 -0.100000
v -0.878883 0.094773 0.100000
v -0.878883 0.094773 -0.100000
v -0.899000 0.100750 0.100000
v -0.899000 0.100750 -0.100000
v -0.919117 0.107769 0.100000
v -0.919117 0.107769 -0.100000
v -0.939185 0.115815 0.100000
v -0.939185 0.115815 -0.100000
v -0.959157 0.124875 0.100000
v -0.959157 0.124875 -0.100000
v -0.978982 0.134935 0.100000
v -0.978982 0.134935 -0.100000
v -0.998613 0.145981 0.100000
v -0.998613 0.145981 -0.100000
v -1.018000 0.158000 0.100000
v -1.018000 0.158000 -0.100000
v -1.018000 0.051000 0.100000
v -1.018000 0.051000 -0.100000
v -1.001109 0.042467 0.100000
v -1.001109 0.042467 -0.100000
v -0.983871 0.034403 0.100000
v -0.983871 0.034403 -0.100000
v -0.966188 0.026859 0.100000
v -0.966188 0.026859 -0.100000
v -0.947963 0.019889 0.100000
v -0.947963 0.019889 -0.100000
v -0.929100 0.013543 0.100000
v -0.929100 0.013543 -0.100000
v -0.909500 0.007875 0.100000
v -0.909500 0.007875 -0.100000
v -0.889067 0.002936 0.100000
v -0.889067 0.002936 -0.100000
v -0.867704 -0.001222 0.100000
v -0.867704 -0.001222 -0.100000
v -0.845313 -0.004547 0.100000
v -0.845313 -0.004547 -0.100000
v -0.821797 -0.006986 0.100000
v -0.821797 -0.006986 -0.100000
v -0.797058 -0.008488 0.100000
v -0.797058 -0.008488 -0.100000
v -0.771000 -0.009000 0.100000
v -0.771000 -0.009000 -0.100000
v -0.709982 -0.005041 0.100000
v -0.709982 -0.005041 -0.100000
v -0.654852 0.006255 0.100000
v -0.654852 0.006255 -0.100000
v -0.605500 0.024016 0.100000
v -0.605500 0.024016 -0.100000
v -0.561815 0.047370 0.100000
v -0.561815 0.047370 -0.100000
v -0.523685 0.075447 0.100000
v -0.523685 0.075447 -0.100000
v -0.491000 0.107375 0.100000
v -0.491000 0.107375 -0.100000
v -0.463648 0.142282 0.100000
v -0.463648 0.142282 -0.100000
v -0.441519 0.179296 0.100000
v -0.441519 0.179296 -0.100000
v -0.424500 0.217547 0.100000
v -0.424500 0.217547 -0.100000
v -0.412482 0.256162 0.100000
v -0.412482 0.256162 -0.100000
v -0.405352 0.294270 0.100000
v -0.405352 0.294270 -0.100000
v -0.403000 0.331000 0.100000
v -0.403000 0.331000 -0.100000
v -0.406215 0.381778 0.100000
v -0.406215 0.381778 -0.100000
v -0.415634 0.429889 0.100000
v -0.415634 0.429889 -0.100000
v -0.430922 0.475000 0.100000
v -0.430922 0.475000 -0.100000
v -0.451741 0.516778 0.100000
v -0.451741 0.516778 -0.100000
v -0.477754 0.554889 0.100000
v -0.477754 0.554889 -0.100000
v -0.508625 0.589000 0.100000
v -0.508625 0.589000 -0.100000
v -0.544017 0.618778 0.100000
v -0.544017 0.618778 -0.100000
v -0.583593 0.643889 0.100000
v -0.583593 0.643889 -0.100000
v -0.627016 0.664000 0.100000
v -0.627016 0.664000 -0.100000
v -0.673949 0.678778 0.100000
v -0.673949 0.678778 -0.100000
v -0.724056 0.687889 0.100000
v -0.724056 0.687889 -0.100000
v -0.777000 0.691000 0.100000
v -0.777000 0.691000 -0.100000
v -0.794533 0.690643 0.100000
v -0.794533 0.690643 -0.100000
v -0.812181 0.689560 0.100000
v -0.812181 0.689560 -0.100000
v -0.830016 0.687734 0.100000
v -0.830016 0.687734 -0.100000
v -0.848111 0.685148 0.100000
v -0.848111 0.685148 -0.100000
v -0.866540 0.681784 0.100000
v -0.866540 0.681784 -0.100000
v -0.885375 0.677625 0.100000
v -0.885375 0.677625 -0.100000
v -0.904689 0.672653 0.100000
v -0.904689 0.672653 -0.100000
v -0.924556 0.666852 0.100000
v -0.924556 0.666852 -0.100000
v -0.945047 0.660203 0.100000
v -0.945047 0.660203 -0.100000
v -0.966236 0.652690 0.100000
v -0.966236 0.652690 -0.100000
v -0.988196 0.644295 0.100000
v -0.988196 0.644295 -0.100000
v -1.011000 0.635000 0.100000
v -1.011000 0.635000 -0.100000
v -1.011000 0.530000 0.100000
v -1.011000 0.530000 -0.100000
v -1.236000 0.594000 0.100000
v -1.236000 0.594000 -0.100000
v -1.236000 0.388000 0.100000
v -1.236000 0.388000 -0.100000
v -1.515000 0.388000 0.100000
v -1.515000 0.388000 -0.100000
v -1.515000 0.300000 0.100000
v -1.515000 0.300000 -0.100000
v -1.236000 0.300000 0.100000
v -1.236000 0.300000 -0.100000
v -1.236000 0.088000 0.100000
v -1.236000 0.088000 -0.100000
v -1.534000 0.088000 0.100000
v -1.534000 0.088000 -0.100000
v -1.534000 0.000000 0.100000
v -1.534000 -0.000000 -0.100000
v -1.138000 0.000000 0.100000
v -1.138000 -0.000000 -0.100000
v -1.138000 0.682000 0.100000
v -1.138000 0.682000 -0.100000
v -1.525000 0.682000 0.100000
v -1.525000 0.682000 -0.100000
v -1.525000 0.594000 0.100000
v -1.525000 0.594000 -0.100000
vn -0.0000 -0.0000 -1.0000
vn -0.0000 -0.0000 1.0000
vn 0.6451 -0.7641 -0.0000
vn 0.5982 -0.8014 -0.0000
vn 0.5472 -0.8370 -0.0000
vn 0.4924 -0.8703 -0.0000
vn 0.4344 -0.9007 -0.0000
vn 0.3738 -0.9275 -0.0000
vn 0.3113 -0.9503 -0.0000
vn 0.2478 -0.9688 -0.0000
vn 0.1842 -0.9829 -0.0000
vn 0.1212 -0.9926 -0.0000
vn 0.0598 -0.9982 -0.0000
vn -0.0072 -1.0000 -0.0000
vn -0.0900 -0.9959 -0.0000
vn -0.1842 -0.9829 -0.0000
vn -0.2828 -0.9592 -0.0000
vn -0.3856 -0.9227 -0.0000
vn -0.4915 -0.8709 -0.0000
vn -0.5986 -0.8011 -0.0000
vn -0.7033 -0.7109 -0.0000
vn -0.8007 -0.5990 -0.0000
vn -0.8845 -0.4665 -0.0000
vn -0.9482 -0.3175 -0.0000
vn -0.9872 -0.1593 -0.0000
vn -0.9985 0.0556 -0.0000
vn -0.9314 0.3641 -0.0000
vn -0.7737 0.6335 -0.0000
vn -0.6274 0.7787 -0.0000
vn -0.5367 0.8438 -0.0000
vn -0.5005 0.8657 -0.0000
vn -0.5106 0.8598 -0.0000
vn -0.5617 0.8274 -0.0000
vn -0.6501 0.7599 -0.0000
vn -0.7661 0.6427 -0.0000
vn -0.8854 0.4648 -0.0000
vn -0.9712 0.2381 -0.0000
vn -0.9997 0.0262 -0.0000
vn -0.9918 -0.1282 -0.0000
vn -0.9663 -0.2574 -0.0000
vn -0.9231 -0.3845 -0.0000
vn -0.8626 -0.5058 -0.0000
vn -0.7860 -0.6182 -0.0000
vn -0.6952 -0.7188 -0.0000
vn -0.5927 -0.8055 -0.0000
vn -0.4810 -0.8767 -0.0000
vn -0.3632 -0.9317 -0.0000
vn -0.2420 -0.9703 -0.0000
vn -0.1202 -0.9928 -0.0000
vn -0.0182 -0.9998 -0.0000
vn 0.0471 -0.9989 -0.0000
vn 0.0968 -0.9953 -0.0000
vn 0.1491 -0.9888 -0.0000
vn 0.2033 -0.9791 -0.0000
vn 0.2586 -0.9660 -0.0000
vn 0.3140 -0.9494 -0.0000
vn 0.3686 -0.9296 -0.0000
vn 0.4214 -0.9069 -0.0000
vn 0.4717 -0.8817 -0.0000
vn 0.5189 -0.8549 -0.0000
vn 0.5623 -0.8269 -0.0000
vn 0.8896 -0.4567 -0.0000
vn 0.3393 0.9407 -0.0000
vn -0.7500 0.6614 -0.0000
vn -0.7074 0.7068 -0.0000
vn -0.6596 0.7516 -0.0000
vn -0.6063 0.7953 -0.0000
vn -0.5473 0.8370 -0.0000
vn -0.4825 0.8759 -0.0000
vn -0.4122 0.9111 -0.0000
vn -0.3367 0.9416 -0.0000
vn -0.2566 0.9665 -0.0000
vn -0.1730 0.9849 -0.0000
vn -0.0870 0.9962 -0.0000
vn 0.0048 1.0000 -0.0000
vn 0.1096 0.9940 -0.0000
vn 0.2246 0.9744 -0.0000
vn 0.3426 0.9395 -0.0000
vn 0.4598 0.8880 -0.0000
vn 0.5721 0.8202 -0.0000
vn 0.6758 0.7371 -0.0000
vn 0.7680 0.6404 -0.0000
vn 0.8467 0.5321 -0.0000
vn 0.9105 0.4135 -0.0000
vn 0.9584 0.2853 -0.0000
vn 0.9891 0.1473 -0.0000
vn 0.9988 -0.0497 -0.0000
vn 0.9418 -0.3362 -0.0000
vn 0.8047 -0.5937 -0.0000
vn 0.6690 -0.7433 -0.0000
vn 0.5764 -0.8172 -0.0000
vn 0.5308 -0.8475 -0.0000
vn 0.5272 -0.8497 -0.0000
vn 0.5624 -0.8268 -0.0000
vn 0.6354 -0.7722 -0.0000
vn 0.7422 -0.6702 -0.0000
vn 0.8648 -0.5021 -0.0000
vn 0.9638 -0.2666 -0.0000
vn 0.9994 -0.0352 -0.0000
vn 0.9917 0.1285 -0.0000
vn 0.9650 0.2624 -0.0000
vn 0.9175 0.3977 -0.0000
vn 0.8490 0.5283 -0.0000
vn 0.7616 0.6481 -0.0000
vn 0.6592 0.7519 -0.0000
vn 0.5474 0.8369 -0.0000
vn 0.4315 0.9021 -0.0000
vn 0.3162 0.9487 -0.0000
vn 0.2047 0.9788 -0.0000
vn 0.0992 0.9951 -0.0000
vn 0.0112 0.9999 -0.0000
vn -0.0512 0.9987 -0.0000
vn -0.1022 0.9948 -0.0000
vn -0.1527 0.9883 -0.0000
vn -0.2026 0.9793 -0.0000
vn -0.2515 0.9679 -0.0000
vn -0.2993 0.9542 -0.0000
vn -0.3458 0.9383 -0.0000
vn -0.3909 0.9204 -0.0000
vn -0.4344 0.9007 -0.0000
vn -0.4763 0.8793 -0.0000
vn -0.5164 0.8564 -0.0000
vn -0.8763 0.4818 -0.0000
vn -0.4078 -0.9131 -0.0000
vn -0.1053 0.9944 -0.0000
vn -0.2200 0.9755 -0.0000
vn -0.3427 0.9395 -0.0000
vn -0.4688 0.8833 -0.0000
vn -0.5921 0.8058 -0.0000
vn -0.7056 0.7086 -0.0000
vn -0.8030 0.5960 -0.0000
vn -0.8804 0.4742 -0.0000
vn -0.9370 0.3494 -0.0000
vn -0.9739 0.2269 -0.0000
vn -0.9939 0.1102 -0.0000
vn -1.0000 -0.0019 -0.0000
vn -0.9930 -0.1183 -0.0000
vn -0.9698 -0.2437 -0.0000
vn -0.9273 -0.3743 -0.0000
vn -0.8631 -0.5050 -0.0000
vn -0.7775 -0.6289 -0.0000
vn -0.6734 -0.7393 -0.0000
vn -0.5568 -0.8307 -0.0000
vn -0.4348 -0.9005 -0.0000
vn -0.3142 -0.9494 -0.0000
vn -0.2000 -0.9798 -0.0000
vn -0.0952 -0.9955 -0.0000
vn -0.0227 -0.9997 -0.0000
vn -0.7071 -0.7071 -0.0000
vn 0.7071 -0.7071 -0.0000
vn 0.7071 0.7071 -0.0000
vn -0.0252 0.9997 -0.0000
vn 0.0228 0.9997 -0.0000
vn 0.0946 0.9955 -0.0000
vn 0.1970 0.9804 -0.0000
vn 0.3075 0.9516 -0.0000
vn 0.4241 0.9056 -0.0000
vn 0.5431 0.8397 -0.0000
vn 0.6588 0.7523 -0.0000
vn 0.7645 0.6446 -0.0000
vn 0.8536 0.5209 -0.0000
vn 0.9218 0.3876 -0.0000
vn 0.9676 0.2525 -0.0000
vn 0.9925 0.1222 -0.0000
vn 1.0000 0.0063 -0.0000
vn 0.9954 -0.0956 -0.0000
vn 0.9801 -0.1986 -0.0000
vn 0.9505 -0.3106 -0.0000
vn 0.9028 -0.4300 -0.0000
vn 0.8333 -0.5528 -0.0000
vn 0.7405 -0.6721 -0.0000
vn 0.6264 -0.7795 -0.0000
vn 0.4975 -0.8674 -0.0000
vn 0.3629 -0.9318 -0.0000
vn 0.2314 -0.9729 -0.0000
vn 0.1098 -0.9940 -0.0000
vn 0.0260 -0.9997 -0.0000
vn -0.7071 0.7071 -0.0000
vn 0.5420 -0.8404 -0.0000
vn -0.5507 -0.8347 -0.0000
vn 0.8345 -0.5510 -0.0000
vn 0.5510 0.8345 -0.0000
vn -0.5449 0.8385 -0.0000
vn -0.8385 -0.5449 -0.0000
vn 0.8387 0.5446 -0.0000
vn -0.0137 -0.9999 -0.0000
vn -0.8312 0.5560 -0.0000
vn 0.4763 -0.8793 -0.0000
vn 0.4457 -0.8952 -0.0000
vn 0.4117 -0.9113 -0.0000
vn 0.3742 -0.9273 -0.0000
vn 0.3334 -0.9428 -0.0000
vn 0.2897 -0.9571 -0.0000
vn 0.2434 -0.9699 -0.0000
vn 0.1952 -0.9808 -0.0000
vn 0.1460 -0.9893 -0.0000
vn 0.0965 -0.9953 -0.0000
vn 0.0477 -0.9989 -0.0000
vn -0.0180 -0.9998 -0.0000
vn -0.1203 -0.9927 -0.0000
vn -0.2418 -0.9703 -0.0000
vn -0.3623 -0.9320 -0.0000
vn -0.4793 -0.8776 -0.0000
vn -0.5902 -0.8073 -0.0000
vn -0.6922 -0.7217 -0.0000
vn -0.7829 -0.6221 -0.0000
vn -0.8599 -0.5105 -0.0000
vn -0.9212 -0.3892 -0.0000
vn -0.9652 -0.2614 -0.0000
vn -0.9915 -0.1305 -0.0000
vn -1.0000 -0.0015 -0.0000
vn -0.9921 0.1257 -0.0000
vn -0.9670 0.2546 -0.0000
vn -0.9234 0.3838 -0.0000
vn -0.8609 0.5087 -0.0000
vn -0.7808 0.6248 -0.0000
vn -0.6854 0.7282 -0.0000
vn -0.5784 0.8158 -0.0000
vn -0.4637 0.8860 -0.0000
vn -0.3454 0.9385 -0.0000
vn -0.2270 0.9739 -0.0000
vn -0.1113 0.9938 -0.0000
vn -0.0128 0.9999 -0.0000
vn 0.0569 0.9984 -0.0000
vn 0.1116 0.9938 -0.0000
vn 0.1639 0.9865 -0.0000
vn 0.2138 0.9769 -0.0000
vn 0.2616 0.9652 -0.0000
vn 0.3072 0.9516 -0.0000
vn 0.3509 0.9364 -0.0000
vn 0.3927 0.9196 -0.0000
vn 0.4329 0.9014 -0.0000
vn 0.4716 0.8818 -0.0000
vn 0.5088 0.8609 -0.0000
vn -0.4864 0.8738 -0.0000
vn -0.8517 -0.5240 -0.0000
vn -0.4374 -0.8993 -0.0000
vn -0.4081 -0.9129 -0.0000
vn -0.3749 -0.9271 -0.0000
vn -0.3381 -0.9411 -0.0000
vn -0.2984 -0.9544 -0.0000
vn -0.2565 -0.9666 -0.0000
vn -0.2131 -0.9770 -0.0000
vn -0.1690 -0.9856 -0.0000
vn -0.1251 -0.9922 -0.0000
vn -0.0819 -0.9966 -0.0000
vn -0.0401 -0.9992 -0.0000
vn 0.0226 -0.9997 -0.0000
vn 0.1330 -0.9911 -0.0000
vn 0.2704 -0.9628 -0.0000
vn 0.4061 -0.9138 -0.0000
vn 0.5336 -0.8457 -0.0000
vn 0.6474 -0.7621 -0.0000
vn 0.7446 -0.6675 -0.0000
vn 0.8243 -0.5661 -0.0000
vn 0.8876 -0.4607 -0.0000
vn 0.9358 -0.3524 -0.0000
vn 0.9705 -0.2409 -0.0000
vn 0.9923 -0.1241 -0.0000
vn 1.0000 -0.0004 -0.0000
vn 0.9918 0.1279 -0.0000
vn 0.9664 0.2571 -0.0000
vn 0.9232 0.3844 -0.0000
vn 0.8625 0.5061 -0.0000
vn 0.7855 0.6188 -0.0000
vn 0.6942 0.7198 -0.0000
vn 0.5911 0.8066 -0.0000
vn 0.4790 0.8778 -0.0000
vn 0.3610 0.9325 -0.0000
vn 0.2401 0.9708 -0.0000
vn 0.1190 0.9929 -0.0000
vn 0.0192 0.9998 -0.0000
vn -0.0408 0.9992 -0.0000
vn -0.0816 0.9967 -0.0000
vn -0.1217 0.9926 -0.0000
vn -0.1606 0.9870 -0.0000
vn -0.1976 0.9803 -0.0000
vn -0.2325 0.9726 -0.0000
vn -0.2648 0.9643 -0.0000
vn -0.2945 0.9556 -0.0000
vn -0.3214 0.9469 -0.0000
vn -0.3457 0.9384 -0.0000
vn -0.3673 0.9301 -0.0000
vn -0.8299 0.5579 -0.0000
vn -0.5046 -0.8633 -0.0000
vt 0.727273 0.000000
vt 0.000000 0.000000
vt 0.818182 0.000000
vt 0.909091 0.000000
vt 1.000000 0.000000
vt 0.090909 0.000000
vt 0.363636 0.000000
vt 0.181818 0.000000
vt 0.272727 0.000000
vt 0.454545 0.000000
vt 0.545455 0.000000
vt 0.636364 0.000000
vt 0.855670 0.000000
vt 0.876289 0.000000
vt 0.865979 0.000000
vt 0.886598 0.000000
vt 0.896907 0.000000
vt 0.845361 0.000000
vt 0.907216 0.000000
vt 0.917526 0.000000
vt 0.927835 0.000000
vt 0.835052 0.000000
vt 0.938144 0.000000
vt 0.948454 0.000000
vt 0.958763 0.000000
vt 0.824742 0.000000
vt 0.969072 0.000000
vt 0.979381 0.000000
vt 0.989691 0.000000
vt 0.814433 0.000000
vt 0.092784 0.000000
vt 0.082474 0.000000
vt 0.072165 0.000000
vt 0.061856 0.000000
vt 0.051546 0.000000
vt 0.041237 0.000000
vt 0.030928 0.000000
vt 0.020619 0.000000
vt 0.010309 0.000000
vt 0.804124 0.000000
vt 0.113402 0.000000
vt 0.103093 0.000000
vt 0.123711 0.000000
vt 0.134021 0.000000
vt 0.144330 0.000000
vt 0.793814 0.000000
vt 0.154639 0.000000
vt 0.164948 0.000000
vt 0.783505 0.000000
vt 0.175258 0.000000
vt 0.185567 0.000000
vt 0.773196 0.000000
vt 0.195876 0.000000
vt 0.762887 0.000000
vt 0.206186 0.000000
vt 0.216495 0.000000
vt 0.752577 0.000000
vt 0.226804 0.000000
vt 0.742268 0.000000
vt 0.237113 0.000000
vt 0.247423 0.000000
vt 0.731959 0.000000
vt 0.257732 0.000000
vt 0.721649 0.000000
vt 0.268041 0.000000
vt 0.711340 0.000000
vt 0.278351 0.000000
vt 0.701031 0.000000
vt 0.288660 0.000000
vt 0.690722 0.000000
vt 0.298969 0.000000
vt 0.474227 0.000000
vt 0.494845 0.000000
vt 0.484536 0.000000
vt 0.309278 0.000000
vt 0.463918 0.000000
vt 0.680412 0.000000
vt 0.453608 0.000000
vt 0.319588 0.000000
vt 0.443299 0.000000
vt 0.432990 0.000000
vt 0.329897 0.000000
vt 0.422680 0.000000
vt 0.670103 0.000000
vt 0.412371 0.000000
vt 0.340206 0.000000
vt 0.402062 0.000000
vt 0.391753 0.000000
vt 0.350515 0.000000
vt 0.381443 0.000000
vt 0.371134 0.000000
vt 0.360825 0.000000
vt 0.659794 0.000000
vt 0.505155 0.000000
vt 0.649485 0.000000
vt 0.515464 0.000000
vt 0.525773 0.000000
vt 0.536082 0.000000
vt 0.639175 0.000000
vt 0.546392 0.000000
vt 0.556701 0.000000
vt 0.567010 0.000000
vt 0.628866 0.000000
vt 0.577320 0.000000
vt 0.587629 0.000000
vt 0.597938 0.000000
vt 0.618557 0.000000
vt 0.608247 0.000000
vt 0.400000 0.000000
vt 0.600000 0.000000
vt 0.500000 0.000000
vt 0.900000 0.000000
vt 0.700000 0.000000
vt 0.800000 0.000000
vt 0.200000 0.000000
vt 0.100000 0.000000
vt 0.300000 0.000000
vt 0.472727 0.000000
vt 0.981818 0.000000
vt 0.490909 0.000000
vt 0.509091 0.000000
vt 0.018182 0.000000
vt 0.036364 0.000000
vt 0.054545 0.000000
vt 0.072727 0.000000
vt 0.109091 0.000000
vt 0.963636 0.000000
vt 0.127273 0.000000
vt 0.945455 0.000000
vt 0.927273 0.000000
vt 0.145455 0.000000
vt 0.890909 0.000000
vt 0.872727 0.000000
vt 0.854545 0.000000
vt 0.163636 0.000000
vt 0.836364 0.000000
vt 0.781818 0.000000
vt 0.763636 0.000000
vt 0.745455 0.000000
vt 0.218182 0.000000
vt 0.709091 0.000000
vt 0.236364 0.000000
vt 0.690909 0.000000
vt 0.672727 0.000000
vt 0.254545 0.000000
vt 0.654545 0.000000
vt 0.618182 0.000000
vt 0.581818 0.000000
vt 0.563636 0.000000
vt 0.290909 0.000000
vt 0.527273 0.000000
vt 0.436364 0.000000
vt 0.309091 0.000000
vt 0.327273 0.000000
vt 0.345455 0.000000
vt 0.381818 0.000000
vt 0.418182 0.000000
vt 0.884298 0.000000
vt 0.900826 0.000000
vt 0.892562 0.000000
vt 0.917355 0.000000
vt 0.876033 0.000000
vt 0.925620 0.000000
vt 0.933884 0.000000
vt 0.867769 0.000000
vt 0.942149 0.000000
vt 0.950413 0.000000
vt 0.859504 0.000000
vt 0.958678 0.000000
vt 0.966942 0.000000
vt 0.851240 0.000000
vt 0.975207 0.000000
vt 0.983471 0.000000
vt 0.842975 0.000000
vt 0.991736 0.000000
vt 0.057851 0.000000
vt 0.049587 0.000000
vt 0.041322 0.000000
vt 0.033058 0.000000
vt 0.024793 0.000000
vt 0.016529 0.000000
vt 0.008264 0.000000
vt 0.834711 0.000000
vt 0.074380 0.000000
vt 0.066116 0.000000
vt 0.826446 0.000000
vt 0.082645 0.000000
vt 0.099174 0.000000
vt 0.107438 0.000000
vt 0.115702 0.000000
vt 0.123967 0.000000
vt 0.132231 0.000000
vt 0.140496 0.000000
vt 0.809917 0.000000
vt 0.148760 0.000000
vt 0.157025 0.000000
vt 0.165289 0.000000
vt 0.801653 0.000000
vt 0.173554 0.000000
vt 0.793388 0.000000
vt 0.190083 0.000000
vt 0.198347 0.000000
vt 0.785124 0.000000
vt 0.206612 0.000000
vt 0.214876 0.000000
vt 0.776860 0.000000
vt 0.223140 0.000000
vt 0.768595 0.000000
vt 0.231405 0.000000
vt 0.239669 0.000000
vt 0.760331 0.000000
vt 0.247934 0.000000
vt 0.752066 0.000000
vt 0.256198 0.000000
vt 0.743802 0.000000
vt 0.264463 0.000000
vt 0.735537 0.000000
vt 0.719008 0.000000
vt 0.280992 0.000000
vt 0.710744 0.000000
vt 0.702479 0.000000
vt 0.289256 0.000000
vt 0.694215 0.000000
vt 0.487603 0.000000
vt 0.504132 0.000000
vt 0.495868 0.000000
vt 0.297521 0.000000
vt 0.685950 0.000000
vt 0.512397 0.000000
vt 0.677686 0.000000
vt 0.305785 0.000000
vt 0.520661 0.000000
vt 0.669421 0.000000
vt 0.528926 0.000000
vt 0.661157 0.000000
vt 0.652893 0.000000
vt 0.314050 0.000000
vt 0.537190 0.000000
vt 0.644628 0.000000
vt 0.553719 0.000000
vt 0.322314 0.000000
vt 0.628099 0.000000
vt 0.561983 0.000000
vt 0.619835 0.000000
vt 0.570248 0.000000
vt 0.611570 0.000000
vt 0.578512 0.000000
vt 0.603306 0.000000
vt 0.586777 0.000000
vt 0.330579 0.000000
vt 0.595041 0.000000
vt 0.338843 0.000000
vt 0.479339 0.000000
vt 0.471074 0.000000
vt 0.347107 0.000000
vt 0.462810 0.000000
vt 0.355372 0.000000
vt 0.446281 0.000000
vt 0.438017 0.000000
vt 0.429752 0.000000
vt 0.371901 0.000000
vt 0.421488 0.000000
vt 0.413223 0.000000
vt 0.380165 0.000000
vt 0.404959 0.000000
vt 0.396694 0.000000
vt 0.388430 0.000000
vt 0.000000 1.000000
vt 0.008197 1.000000
vt 0.008197 0.000000
vt 0.016393 1.000000
vt 0.016393 0.000000
vt 0.024590 1.000000
vt 0.024590 0.000000
vt 0.032787 1.000000
vt 0.032787 0.000000
vt 0.040984 1.000000
vt 0.040984 0.000000
vt 0.049180 1.000000
vt 0.049180 0.000000
vt 0.057377 1.000000
vt 0.057377 0.000000
vt 0.065574 1.000000
vt 0.065574 0.000000
vt 0.073770 1.000000
vt 0.073770 0.000000
vt 0.081967 1.000000
vt 0.081967 0.000000
vt 0.090164 1.000000
vt 0.090164 0.000000
vt 0.098361 1.000000
vt 0.098361 0.000000
vt 0.106557 1.000000
vt 0.106557 0.000000
vt 0.114754 1.000000
vt 0.114754 0.000000
vt 0.122951 1.000000
vt 0.122951 0.000000
vt 0.131148 1.000000
vt 0.131148 0.000000
vt 0.139344 1.000000
vt 0.139344 0.000000
vt 0.147541 1.000000
vt 0.147541 0.000000
vt 0.155738 1.000000
vt 0.155738 0.000000
vt 0.163934 1.000000
vt 0.163934 0.000000
vt 0.172131 1.000000
vt 0.172131 0.000000
vt 0.180328 1.000000
vt 0.180328 0.000000
vt 0.188525 1.000000
vt 0.188525 0.000000
vt 0.196721 1.000000
vt 0.196721 0.000000
vt 0.204918 1.000000
vt 0.204918 0.000000
vt 0.213115 1.000000
vt 0.213115 0.000000
vt 0.221311 1.000000
vt 0.221311 0.000000
vt 0.229508 1.000000
vt 0.229508 0.000000
vt 0.237705 1.000000
vt 0.237705 0.000000
vt 0.245902 1.000000
vt 0.245902 0.000000
vt 0.254098 1.000000
vt 0.254098 0.000000
vt 0.262295 1.000000
vt 0.262295 0.000000
vt 0.270492 1.000000
vt 0.270492 0.000000
vt 0.278689 1.000000
vt 0.278689 0.000000
vt 0.286885 1.000000
vt 0.286885 0.000000
vt 0.295082 1.000000
vt 0.295082 0.000000
vt 0.303279 1.000000
vt 0.303279 0.000000
vt 0.311475 1.000000
vt 0.311475 0.000000
vt 0.319672 1.000000
vt 0.319672 0.000000
vt 0.327869 1.000000
vt 0.327869 0.000000
vt 0.336066 1.000000
vt 0.336066 0.000000
vt 0.344262 1.000000
vt 0.344262 0.000000
vt 0.352459 1.000000
vt 0.352459 0.000000
vt 0.360656 1.000000
vt 0.360656 0.000000
vt 0.368852 1.000000
vt 0.368852 0.000000
vt 0.377049 1.000000
vt 0.377049 0.000000
vt 0.385246 1.000000
vt 0.385246 0.000000
vt 0.393443 1.000000
vt 0.393443 0.000000
vt 0.401639 1.000000
vt 0.401639 0.000000
vt 0.409836 1.000000
vt 0.409836 0.000000
vt 0.418033 1.000000
vt 0.418033 0.000000
vt 0.426230 1.000000
vt 0.426230 0.000000
vt 0.434426 1.000000
vt 0.434426 0.000000
vt 0.442623 1.000000
vt 0.442623 0.000000
vt 0.450820 1.000000
vt 0.450820 0.000000
vt 0.459016 1.000000
vt 0.459016 0.000000
vt 0.467213 1.000000
vt 0.467213 0.000000
vt 0.475410 1.000000
vt 0.475410 0.000000
vt 0.483607 1.000000
vt 0.483607 0.000000
vt 0.491803 1.000000
vt 0.491803 0.000000
vt 0.500000 1.000000
vt 0.508197 1.000000
vt 0.508197 0.000000
vt 0.516393 1.000000
vt 0.516393 0.000000
vt 0.524590 1.000000
vt 0.524590 0.000000
vt 0.532787 1.000000
vt 0.532787 0.000000
vt 0.540984 1.000000
vt 0.540984 0.000000
vt 0.549180 1.000000
vt 0.549180 0.000000
vt 0.557377 1.000000
vt 0.557377 0.000000
vt 0.565574 1.000000
vt 0.565574 0.000000
vt 0.573770 1.000000
vt 0.573770 0.000000
vt 0.581967 1.000000
vt 0.581967 0.000000
vt 0.590164 1.000000
vt 0.590164 0.000000
vt 0.598361 1.000000
vt 0.598361 0.000000
vt 0.606557 1.000000
vt 0.606557 0.000000
vt 0.614754 1.000000
vt 0.614754 0.000000
vt 0.622951 1.000000
vt 0.622951 0.000000
vt 0.631148 1.000000
vt 0.631148 0.000000
vt 0.639344 1.000000
vt 0.639344 0.000000
vt 0.647541 1.000000
vt 0.647541 0.000000
vt 0.655738 1.000000
vt 0.655738 0.000000
vt 0.663934 1.000000
vt 0.663934 0.000000
vt 0.672131 1.000000
vt 0.672131 0.000000
vt 0.680328 1.000000
vt 0.680328 0.000000
vt 0.688525 1.000000
vt 0.688525 0.000000
vt 0.696721 1.000000
vt 0.696721 0.000000
vt 0.704918 1.000000
vt 0.704918 0.000000
vt 0.713115 1.000000
vt 0.713115 0.000000
vt 0.721311 1.000000
vt 0.721311 0.000000
vt 0.729508 1.000000
vt 0.729508 0.000000
vt 0.737705 1.000000
vt 0.737705 0.000000
vt 0.745902 1.000000
vt 0.745902 0.000000
vt 0.754098 1.000000
vt 0.754098 0.000000
vt 0.762295 1.000000
vt 0.762295 0.000000
vt 0.770492 1.000000
vt 0.770492 0.000000
vt 0.778689 1.000000
vt 0.778689 0.000000
vt 0.786885 1.000000
vt 0.786885 0.000000
vt 0.795082 1.000000
vt 0.795082 0.000000
vt 0.803279 1.000000
vt 0.803279 0.000000
vt 0.811475 1.000000
vt 0.811475 0.000000
vt 0.819672 1.000000
vt 0.819672 0.000000
vt 0.827869 1.000000
vt 0.827869 0.000000
vt 0.836066 1.000000
vt 0.836066 0.000000
vt 0.844262 1.000000
vt 0.844262 0.000000
vt 0.852459 1.000000
vt 0.852459 0.000000
vt 0.860656 1.000000
vt 0.860656 0.000000
vt 0.868852 1.000000
vt 0.868852 0.000000
vt 0.877049 1.000000
vt 0.877049 0.000000
vt 0.885246 1.000000
vt 0.885246 0.000000
vt 0.893443 1.000000
vt 0.893443 0.000000
vt 0.901639 1.000000
vt 0.901639 0.000000
vt 0.909836 1.000000
vt 0.909836 0.000000
vt 0.918033 1.000000
vt 0.918033 0.000000
vt 0.926230 1.000000
vt 0.926230 0.000000
vt 0.934426 1.000000
vt 0.934426 0.000000
vt 0.942623 1.000000
vt 0.942623 0.000000
vt 0.950820 1.000000
vt 0.950820 0.000000
vt 0.959016 1.000000
vt 0.959016 0.000000
vt 0.967213 1.000000
vt 0.967213 0.000000
vt 0.975410 1.000000
vt 0.975410 0.000000
vt 0.983607 1.000000
vt 0.983607 0.000000
vt 0.991803 1.000000
vt 0.991803 0.000000
vt 1.000000 1.000000
vt 0.034483 1.000000
vt 0.034483 0.000000
vt 0.068966 1.000000
vt 0.068966 0.000000
vt 0.103448 1.000000
vt 0.103448 0.000000
vt 0.137931 1.000000
vt 0.137931 0.000000
vt 0.172414 1.000000
vt 0.172414 0.000000
vt 0.206897 1.000000
vt 0.206897 0.000000
vt 0.241379 1.000000
vt 0.241379 0.000000
vt 0.275862 1.000000
vt 0.275862 0.000000
vt 0.310345 1.000000
vt 0.310345 0.000000
vt 0.344828 1.000000
vt 0.344828 0.000000
vt 0.379310 1.000000
vt 0.379310 0.000000
vt 0.413793 1.000000
vt 0.413793 0.000000
vt 0.448276 1.000000
vt 0.448276 0.000000
vt 0.482759 1.000000
vt 0.482759 0.000000
vt 0.517241 1.000000
vt 0.517241 0.000000
vt 0.551724 1.000000
vt 0.551724 0.000000
vt 0.586207 1.000000
vt 0.586207 0.000000
vt 0.620690 1.000000
vt 0.620690 0.000000
vt 0.655172 1.000000
vt 0.655172 0.000000
vt 0.689655 1.000000
vt 0.689655 0.000000
vt 0.724138 1.000000
vt 0.724138 0.000000
vt 0.758621 1.000000
vt 0.758621 0.000000
vt 0.793103 1.000000
vt 0.793103 0.000000
vt 0.827586 1.000000
vt 0.827586 0.000000
vt 0.862069 1.000000
vt 0.862069 0.000000
vt 0.896552 1.000000
vt 0.896552 0.000000
vt 0.931035 1.000000
vt 0.931035 0.000000
vt 0.965517 1.000000
vt 0.965517 0.000000
vt 0.037037 1.000000
vt 0.037037 0.000000
vt 0.074074 1.000000
vt 0.074074 0.000000
vt 0.111111 1.000000
vt 0.111111 0.000000
vt 0.148148 1.000000
vt 0.148148 0.000000
vt 0.185185 1.000000
vt 0.185185 0.000000
vt 0.222222 1.000000
vt 0.222222 0.000000
vt 0.259259 1.000000
vt 0.259259 0.000000
vt 0.296296 1.000000
vt 0.296296 0.000000
vt 0.333333 1.000000
vt 0.333333 0.000000
vt 0.370370 1.000000
vt 0.370370 0.000000
vt 0.407407 1.000000
vt 0.407407 0.000000
vt 0.444444 1.000000
vt 0.444444 0.000000
vt 0.481481 1.000000
vt 0.481481 0.000000
vt 0.518519 1.000000
vt 0.518519 0.000000
vt 0.555556 1.000000
vt 0.555556 0.000000
vt 0.592593 1.000000
vt 0.592593 0.000000
vt 0.629630 1.000000
vt 0.629630 0.000000
vt 0.666667 1.000000
vt 0.666667 0.000000
vt 0.703704 1.000000
vt 0.703704 0.000000
vt 0.740741 1.000000
vt 0.740741 0.000000
vt 0.777778 1.000000
vt 0.777778 0.000000
vt 0.814815 1.000000
vt 0.814815 0.000000
vt 0.851852 1.000000
vt 0.851852 0.000000
vt 0.888889 1.000000
vt 0.888889 0.000000
vt 0.925926 1.000000
vt 0.925926 0.000000
vt 0.962963 1.000000
vt 0.962963 0.000000
vt 0.125000 1.000000
vt 0.125000 0.000000
vt 0.250000 1.000000
vt 0.250000 0.000000
vt 0.375000 1.000000
vt 0.375000 0.000000
vt 0.625000 1.000000
vt 0.625000 0.000000
vt 0.750000 1.000000
vt 0.750000 0.000000
vt 0.875000 1.000000
vt 0.875000 0.000000
vt 0.010204 1.000000
vt 0.010204 0.000000
vt 0.020408 1.000000
vt 0.020408 0.000000
vt 0.030612 1.000000
vt 0.030612 0.000000
vt 0.040816 1.000000
vt 0.040816 0.000000
vt 0.051020 1.000000
vt 0.051020 0.000000
vt 0.061224 1.000000
vt 0.061224 0.000000
vt 0.071429 1.000000
vt 0.071429 0.000000
vt 0.081633 1.000000
vt 0.081633 0.000000
vt 0.091837 1.000000
vt 0.091837 0.000000
vt 0.102041 1.000000
vt 0.102041 0.000000
vt 0.112245 1.000000
vt 0.112245 0.000000
vt 0.122449 1.000000
vt 0.122449 0.000000
vt 0.132653 1.000000
vt 0.132653 0.000000
vt 0.142857 1.000000
vt 0.142857 0.000000
vt 0.153061 1.000000
vt 0.153061 0.000000
vt 0.163265 1.000000
vt 0.163265 0.000000
vt 0.173469 1.000000
vt 0.173469 0.000000
vt 0.183673 1.000000
vt 0.183673 0.000000
vt 0.193878 1.000000
vt 0.193878 0.000000
vt 0.204082 1.000000
vt 0.204082 0.000000
vt 0.214286 1.000000
vt 0.214286 0.000000
vt 0.224490 1.000000
vt 0.224490 0.000000
vt 0.234694 1.000000
vt 0.234694 0.000000
vt 0.244898 1.000000
vt 0.244898 0.000000
vt 0.255102 1.000000
vt 0.255102 0.000000
vt 0.265306 1.000000
vt 0.265306 0.000000
vt 0.275510 1.000000
vt 0.275510 0.000000
vt 0.285714 1.000000
vt 0.285714 0.000000
vt 0.295918 1.000000
vt 0.295918 0.000000
vt 0.306122 1.000000
vt 0.306122 0.000000
vt 0.316327 1.000000
vt 0.316327 0.000000
vt 0.326531 1.000000
vt 0.326531 0.000000
vt 0.336735 1.000000
vt 0.336735 0.000000
vt 0.346939 1.000000
vt 0.346939 0.000000
vt 0.357143 1.000000
vt 0.357143 0.000000
vt 0.367347 1.000000
vt 0.367347 0.000000
vt 0.377551 1.000000
vt 0.377551 0.000000
vt 0.387755 1.000000
vt 0.387755 0.000000
vt 0.397959 1.000000
vt 0.397959 0.000000
vt 0.408163 1.000000
vt 0.408163 0.000000
vt 0.418367 1.000000
vt 0.418367 0.000000
vt 0.428571 1.000000
vt 0.428571 0.000000
vt 0.438776 1.000000
vt 0.438776 0.000000
vt 0.448980 1.000000
vt 0.448980 0.000000
vt 0.459184 1.000000
vt 0.459184 0.000000
vt 0.469388 1.000000
vt 0.469388 0.000000
vt 0.479592 1.000000
vt 0.479592 0.000000
vt 0.489796 1.000000
vt 0.489796 0.000000
vt 0.510204 1.000000
vt 0.510204 0.000000
vt 0.520408 1.000000
vt 0.520408 0.000000
vt 0.530612 1.000000
vt 0.530612 0.000000
vt 0.540816 1.000000
vt 0.540816 0.000000
vt 0.551020 1.000000
vt 0.551020 0.000000
vt 0.561224 1.000000
vt 0.561224 0.000000
vt 0.571429 1.000000
vt 0.571429 0.000000
vt 0.581633 1.000000
vt 0.581633 0.000000
vt 0.591837 1.000000
vt 0.591837 0.000000
vt 0.602041 1.000000
vt 0.602041 0.000000
vt 0.612245 1.000000
vt 0.612245 0.000000
vt 0.622449 1.000000
vt 0.622449 0.000000
vt 0.632653 1.000000
vt 0.632653 0.000000
vt 0.642857 1.000000
vt 0.642857 0.000000
vt 0.653061 1.000000
vt 0.653061 0.000000
vt 0.663265 1.000000
vt 0.663265 0.000000
vt 0.673469 1.000000
vt 0.673469 0.000000
vt 0.683673 1.000000
vt 0.683673 0.000000
vt 0.693878 1.000000
vt 0.693878 0.000000
vt 0.704082 1.000000
vt 0.704082 0.000000
vt 0.714286 1.000000
vt 0.714286 0.000000
vt 0.724490 1.000000
vt 0.724490 0.000000
vt 0.734694 1.000000
vt 0.734694 0.000000
vt 0.744898 1.000000
vt 0.744898 0.000000
vt 0.755102 1.000000
vt 0.755102 0.000000
vt 0.765306 1.000000
vt 0.765306 0.000000
vt 0.775510 1.000000
vt 0.775510 0.000000
vt 0.785714 1.000000
vt 0.785714 0.000000
vt 0.795918 1.000000
vt 0.795918 0.000000
vt 0.806122 1.000000
vt 0.806122 0.000000
vt 0.816327 1.000000
vt 0.816327 0.000000
vt 0.826531 1.000000
vt 0.826531 0.000000
vt 0.836735 1.000000
vt 0.836735 0.000000
vt 0.846939 1.000000
vt 0.846939 0.000000
vt 0.857143 1.000000
vt 0.857143 0.000000
vt 0.867347 1.000000
vt 0.867347 0.000000
vt 0.877551 1.000000
vt 0.877551 0.000000
vt 0.887755 1.000000
vt 0.887755 0.000000
vt 0.897959 1.000000
vt 0.897959 0.000000
vt 0.908163 1.000000
vt 0.908163 0.000000
vt 0.918367 1.000000
vt 0.918367 0.000000
vt 0.928571 1.000000
vt 0.928571 0.000000
vt 0.938776 1.000000
vt 0.938776 0.000000
vt 0.948980 1.000000
vt 0.948980 0.000000
vt 0.959184 1.000000
vt 0.959184 0.000000
vt 0.969388 1.000000
vt 0.969388 0.000000
vt 0.979592 1.000000
vt 0.979592 0.000000
vt 0.989796 1.000000
vt 0.989796 0.000000
vt 0.083333 1.000000
vt 0.083333 0.000000
vt 0.166667 1.000000
vt 0.166667 0.000000
vt 0.416667 1.000000
vt 0.416667 0.000000
vt 0.583333 1.000000
vt 0.583333 0.000000
vt 0.833333 1.000000
vt 0.833333 0.000000
vt 0.916667 1.000000
vt 0.916667 0.000000
s 0
f 9/1/1 1/2/1 10/3/1
f 1/2/1 11/4/1 10/3/1
f 1/2/1 12/5/1 11/4/1
f 9/1/1 2/6/1 1/2/1
f 9/1/1 5/7/1 2/6/1
f 5/7/1 3/8/1 2/6/1
f 5/7/1 4/9/1 3/8/1
f 9/1/1 6/10/1 5/7/1
f 9/1/1 7/11/1 6/10/1
f 9/1/1 8/12/1 7/11/1
f 96/13/1 98/14/1 97/15/1
f 96/13/1 99/16/1 98/14/1
f 96/13/1 100/17/1 99/16/1
f 95/18/1 100/17/1 96/13/1
f 95/18/1 101/19/1 100/17/1
f 95/18/1 102/20/1 101/19/1
f 95/18/1 103/21/1 102/20/1
f 94/22/1 103/21/1 95/18/1
f 94/22/1 104/23/1 103/21/1
f 94/22/1 105/24/1 104/23/1
f 94/22/1 106/25/1 105/24/1
f 93/26/1 106/25/1 94/22/1
f 93/26/1 107/27/1 106/25/1
f 93/26/1 108/28/1 107/27/1
f 93/26/1 109/29/1 108/28/1
f 92/30/1 109/29/1 93/26/1
f 92/30/1 22/31/1 109/29/1
f 22/31/1 21/32/1 109/29/1
f 21/32/1 20/33/1 109/29/1
f 20/33/1 19/34/1 109/29/1
f 19/34/1 18/35/1 109/29/1
f 18/35/1 17/36/1 109/29/1
f 17/36/1 16/37/1 109/29/1
f 16/37/1 15/38/1 109/29/1
f 15/38/1 14/39/1 109/29/1
f 14/39/1 13/2/1 109/29/1
f 13/2/1 110/5/1 109/29/1
f 91/40/1 24/41/1 92/30/1
f 24/41/1 23/42/1 92/30/1
f 23/42/1 22/31/1 92/30/1
f 91/40/1 25/43/1 24/41/1
f 91/40/1 26/44/1 25/43/1
f 91/40/1 27/45/1 26/44/1
f 90/46/1 27/45/1 91/40/1
f 90/46/1 28/47/1 27/45/1
f 90/46/1 29/48/1 28/47/1
f 89/49/1 29/48/1 90/46/1
f 89/49/1 30/50/1 29/48/1
f 89/49/1 31/51/1 30/50/1
f 88/52/1 31/51/1 89/49/1
f 88/52/1 32/53/1 31/51/1
f 87/54/1 32/53/1 88/52/1
f 87/54/1 33/55/1 32/53/1
f 87/54/1 34/56/1 33/55/1
f 86/57/1 34/56/1 87/54/1
f 86/57/1 35/58/1 34/56/1
f 85/59/1 35/58/1 86/57/1
f 85/59/1 36/60/1 35/58/1
f 85/59/1 37/61/1 36/60/1
f 84/62/1 37/61/1 85/59/1
f 84/62/1 38/63/1 37/61/1
f 83/64/1 38/63/1 84/62/1
f 83/64/1 39/65/1 38/63/1
f 82/66/1 39/65/1 83/64/1
f 82/66/1 40/67/1 39/65/1
f 81/68/1 40/67/1 82/66/1
f 81/68/1 41/69/1 40/67/1
f 80/70/1 41/69/1 81/68/1
f 80/70/1 42/71/1 41/69/1
f 59/72/1 61/73/1 60/74/1
f 80/70/1 43/75/1 42/71/1
f 58/76/1 61/73/1 59/72/1
f 79/77/1 43/75/1 80/70/1
f 57/78/1 61/73/1 58/76/1
f 79/77/1 44/79/1 43/75/1
f 56/80/1 61/73/1 57/78/1
f 55/81/1 61/73/1 56/80/1
f 79/77/1 45/82/1 44/79/1
f 54/83/1 61/73/1 55/81/1
f 78/84/1 45/82/1 79/77/1
f 53/85/1 61/73/1 54/83/1
f 78/84/1 46/86/1 45/82/1
f 52/87/1 61/73/1 53/85/1
f 51/88/1 61/73/1 52/87/1
f 78/84/1 47/89/1 46/86/1
f 50/90/1 61/73/1 51/88/1
f 49/91/1 61/73/1 50/90/1
f 78/84/1 48/92/1 47/89/1
f 48/92/1 61/73/1 49/91/1
f 78/84/1 61/73/1 48/92/1
f 77/93/1 61/73/1 78/84/1
f 77/93/1 62/94/1 61/73/1
f 76/95/1 62/94/1 77/93/1
f 76/95/1 63/96/1 62/94/1
f 76/95/1 64/97/1 63/96/1
f 76/95/1 65/98/1 64/97/1
f 75/99/1 65/98/1 76/95/1
f 75/99/1 66/100/1 65/98/1
f 75/99/1 67/101/1 66/100/1
f 75/99/1 68/102/1 67/101/1
f 74/103/1 68/102/1 75/99/1
f 74/103/1 69/104/1 68/102/1
f 74/103/1 70/105/1 69/104/1
f 74/103/1 71/106/1 70/105/1
f 73/107/1 71/106/1 74/103/1
f 73/107/1 72/108/1 71/106/1
f 115/109/1 117/110/1 116/111/1
f 115/109/1 120/112/1 117/110/1
f 120/112/1 118/113/1 117/110/1
f 115/109/1 121/5/1 120/112/1
f 119/114/1 118/113/1 120/112/1
f 115/109/1 113/115/1 121/5/1
f 113/115/1 119/114/1 121/5/1
f 113/115/1 112/116/1 119/114/1
f 112/116/1 118/113/1 119/114/1
f 115/109/1 114/117/1 113/115/1
f 111/2/1 118/113/1 112/116/1
f 148/118/1 176/119/1 149/120/1
f 176/119/1 150/121/1 149/120/1
f 176/119/1 122/2/1 150/121/1
f 176/119/1 123/122/1 122/2/1
f 176/119/1 124/123/1 123/122/1
f 176/119/1 125/124/1 124/123/1
f 176/119/1 126/125/1 125/124/1
f 176/119/1 127/6/1 126/125/1
f 176/119/1 128/126/1 127/6/1
f 176/119/1 175/127/1 128/126/1
f 175/127/1 129/128/1 128/126/1
f 148/118/1 177/5/1 176/119/1
f 174/129/1 129/128/1 175/127/1
f 173/130/1 129/128/1 174/129/1
f 172/4/1 129/128/1 173/130/1
f 172/4/1 130/131/1 129/128/1
f 171/132/1 130/131/1 172/4/1
f 170/133/1 130/131/1 171/132/1
f 169/134/1 130/131/1 170/133/1
f 169/134/1 131/135/1 130/131/1
f 168/136/1 131/135/1 169/134/1
f 167/3/1 131/135/1 168/136/1
f 166/114/1 131/135/1 167/3/1
f 166/114/1 132/8/1 131/135/1
f 165/137/1 132/8/1 166/114/1
f 164/138/1 132/8/1 165/137/1
f 164/138/1 133/115/1 132/8/1
f 163/139/1 133/115/1 164/138/1
f 162/1/1 133/115/1 163/139/1
f 162/1/1 134/140/1 133/115/1
f 161/141/1 134/140/1 162/1/1
f 161/141/1 135/142/1 134/140/1
f 160/143/1 135/142/1 161/141/1
f 159/144/1 135/142/1 160/143/1
f 159/144/1 136/145/1 135/142/1
f 158/146/1 136/145/1 159/144/1
f 157/12/1 136/145/1 158/146/1
f 157/12/1 137/9/1 136/145/1
f 156/147/1 137/9/1 157/12/1
f 155/110/1 137/9/1 156/147/1
f 154/148/1 137/9/1 155/110/1
f 153/149/1 137/9/1 154/148/1
f 153/149/1 138/150/1 137/9/1
f 152/11/1 138/150/1 153/149/1
f 151/151/1 138/150/1 152/11/1
f 148/118/1 146/152/1 177/5/1
f 146/152/1 151/151/1 177/5/1
f 146/152/1 138/150/1 151/151/1
f 146/152/1 139/153/1 138/150/1
f 146/152/1 140/154/1 139/153/1
f 146/152/1 141/155/1 140/154/1
f 146/152/1 142/7/1 141/155/1
f 146/152/1 143/156/1 142/7/1
f 146/152/1 144/109/1 143/156/1
f 146/152/1 145/157/1 144/109/1
f 148/118/1 147/10/1 146/152/1
f 285/158/1 287/159/1 286/160/1
f 285/158/1 288/4/1 287/159/1
f 285/158/1 289/161/1 288/4/1
f 284/162/1 289/161/1 285/158/1
f 284/162/1 290/163/1 289/161/1
f 284/162/1 291/164/1 290/163/1
f 283/165/1 291/164/1 284/162/1
f 283/165/1 292/166/1 291/164/1
f 283/165/1 293/167/1 292/166/1
f 282/168/1 293/167/1 283/165/1
f 282/168/1 294/169/1 293/167/1
f 282/168/1 295/170/1 294/169/1
f 281/171/1 295/170/1 282/168/1
f 281/171/1 296/172/1 295/170/1
f 281/171/1 297/173/1 296/172/1
f 280/174/1 297/173/1 281/171/1
f 280/174/1 298/175/1 297/173/1
f 280/174/1 185/176/1 298/175/1
f 185/176/1 184/177/1 298/175/1
f 184/177/1 183/178/1 298/175/1
f 183/178/1 182/179/1 298/175/1
f 182/179/1 181/180/1 298/175/1
f 181/180/1 180/181/1 298/175/1
f 180/181/1 179/182/1 298/175/1
f 179/182/1 178/2/1 298/175/1
f 178/2/1 299/5/1 298/175/1
f 279/183/1 187/184/1 280/174/1
f 187/184/1 186/185/1 280/174/1
f 186/185/1 185/176/1 280/174/1
f 278/186/1 189/6/1 279/183/1
f 189/6/1 188/187/1 279/183/1
f 188/187/1 187/184/1 279/183/1
f 277/3/1 190/188/1 278/186/1
f 190/188/1 189/6/1 278/186/1
f 277/3/1 191/189/1 190/188/1
f 277/3/1 192/190/1 191/189/1
f 277/3/1 193/191/1 192/190/1
f 277/3/1 194/192/1 193/191/1
f 277/3/1 195/193/1 194/192/1
f 276/194/1 195/193/1 277/3/1
f 276/194/1 196/195/1 195/193/1
f 276/194/1 197/196/1 196/195/1
f 276/194/1 198/197/1 197/196/1
f 275/198/1 198/197/1 276/194/1
f 275/198/1 199/199/1 198/197/1
f 275/198/1 200/8/1 199/199/1
f 274/200/1 200/8/1 275/198/1
f 274/200/1 201/201/1 200/8/1
f 274/200/1 202/202/1 201/201/1
f 273/203/1 202/202/1 274/200/1
f 273/203/1 203/204/1 202/202/1
f 273/203/1 204/205/1 203/204/1
f 272/206/1 204/205/1 273/203/1
f 272/206/1 205/207/1 204/205/1
f 271/208/1 205/207/1 272/206/1
f 271/208/1 206/209/1 205/207/1
f 271/208/1 207/210/1 206/209/1
f 270/211/1 207/210/1 271/208/1
f 270/211/1 208/212/1 207/210/1
f 269/213/1 208/212/1 270/211/1
f 269/213/1 209/214/1 208/212/1
f 268/215/1 209/214/1 269/213/1
f 268/215/1 210/216/1 209/214/1
f 267/217/1 210/216/1 268/215/1
f 267/217/1 211/9/1 210/216/1
f 266/1/1 211/9/1 267/217/1
f 265/218/1 211/9/1 266/1/1
f 265/218/1 212/219/1 211/9/1
f 264/220/1 212/219/1 265/218/1
f 263/221/1 212/219/1 264/220/1
f 263/221/1 213/222/1 212/219/1
f 262/223/1 213/222/1 263/221/1
f 237/224/1 239/225/1 238/226/1
f 262/223/1 214/227/1 213/222/1
f 261/228/1 214/227/1 262/223/1
f 237/224/1 240/229/1 239/225/1
f 260/230/1 214/227/1 261/228/1
f 260/230/1 215/231/1 214/227/1
f 237/224/1 241/232/1 240/229/1
f 259/233/1 215/231/1 260/230/1
f 237/224/1 242/234/1 241/232/1
f 258/235/1 215/231/1 259/233/1
f 257/236/1 215/231/1 258/235/1
f 257/236/1 216/237/1 215/231/1
f 237/224/1 243/238/1 242/234/1
f 256/239/1 216/237/1 257/236/1
f 237/224/1 244/11/1 243/238/1
f 255/12/1 216/237/1 256/239/1
f 237/224/1 245/240/1 244/11/1
f 255/12/1 217/241/1 216/237/1
f 254/242/1 217/241/1 255/12/1
f 237/224/1 246/243/1 245/240/1
f 253/244/1 217/241/1 254/242/1
f 237/224/1 247/245/1 246/243/1
f 252/246/1 217/241/1 253/244/1
f 237/224/1 248/247/1 247/245/1
f 251/248/1 217/241/1 252/246/1
f 237/224/1 249/249/1 248/247/1
f 251/248/1 218/250/1 217/241/1
f 250/251/1 218/250/1 251/248/1
f 237/224/1 250/251/1 249/249/1
f 237/224/1 218/250/1 250/251/1
f 237/224/1 219/252/1 218/250/1
f 236/253/1 219/252/1 237/224/1
f 235/254/1 219/252/1 236/253/1
f 235/254/1 220/255/1 219/252/1
f 234/256/1 220/255/1 235/254/1
f 234/256/1 221/257/1 220/255/1
f 233/10/1 221/257/1 234/256/1
f 232/258/1 221/257/1 233/10/1
f 232/258/1 222/7/1 221/257/1
f 231/259/1 222/7/1 232/258/1
f 230/260/1 222/7/1 231/259/1
f 230/260/1 223/261/1 222/7/1
f 229/262/1 223/261/1 230/260/1
f 228/263/1 223/261/1 229/262/1
f 228/263/1 224/264/1 223/261/1
f 227/265/1 224/264/1 228/263/1
f 226/266/1 224/264/1 227/265/1
f 226/266/1 225/267/1 224/264/1
f 308/1/2 309/3/2 300/2/2
f 300/2/2 309/3/2 310/4/2
f 300/2/2 310/4/2 311/5/2
f 308/1/2 300/2/2 301/6/2
f 308/1/2 301/6/2 304/7/2
f 304/7/2 301/6/2 302/8/2
f 304/7/2 302/8/2 303/9/2
f 308/1/2 304/7/2 305/10/2
f 308/1/2 305/10/2 306/11/2
f 308/1/2 306/11/2 307/12/2
f 395/13/2 396/15/2 397/14/2
f 395/13/2 397/14/2 398/16/2
f 395/13/2 398/16/2 399/17/2
f 394/18/2 395/13/2 399/17/2
f 394/18/2 399/17/2 400/19/2
f 394/18/2 400/19/2 401/20/2
f 394/18/2 401/20/2 402/21/2
f 393/22/2 394/18/2 402/21/2
f 393/22/2 402/21/2 403/23/2
f 393/22/2 403/23/2 404/24/2
f 393/22/2 404/24/2 405/25/2
f 392/26/2 393/22/2 405/25/2
f 392/26/2 405/25/2 406/27/2
f 392/26/2 406/27/2 407/28/2
f 392/26/2 407/28/2 408/29/2
f 391/30/2 392/26/2 408/29/2
f 391/30/2 408/29/2 321/31/2
f 321/31/2 408/29/2 320/32/2
f 320/32/2 408/29/2 319/33/2
f 319/33/2 408/29/2 318/34/2
f 318/34/2 408/29/2 317/35/2
f 317/35/2 408/29/2 316/36/2
f 316/36/2 408/29/2 315/37/2
f 315/37/2 408/29/2 314/38/2
f 314/38/2 408/29/2 313/39/2
f 313/39/2 408/29/2 312/2/2
f 312/2/2 408/29/2 409/5/2
f 390/40/2 391/30/2 323/41/2
f 323/41/2 391/30/2 322/42/2
f 322/42/2 391/30/2 321/31/2
f 390/40/2 323/41/2 324/43/2
f 390/40/2 324/43/2 325/44/2
f 390/40/2 325/44/2 326/45/2
f 389/46/2 390/40/2 326/45/2
f 389/46/2 326/45/2 327/47/2
f 389/46/2 327/47/2 328/48/2
f 388/49/2 389/46/2 328/48/2
f 388/49/2 328/48/2 329/50/2
f 388/49/2 329/50/2 330/51/2
f 387/52/2 388/49/2 330/51/2
f 387/52/2 330/51/2 331/53/2
f 386/54/2 387/52/2 331/53/2
f 386/54/2 331/53/2 332/55/2
f 386/54/2 332/55/2 333/56/2
f 385/57/2 386/54/2 333/56/2
f 385/57/2 333/56/2 334/58/2
f 384/59/2 385/57/2 334/58/2
f 384/59/2 334/58/2 335/60/2
f 384/59/2 335/60/2 336/61/2
f 383/62/2 384/59/2 336/61/2
f 383/62/2 336/61/2 337/63/2
f 382/64/2 383/62/2 337/63/2
f 382/64/2 337/63/2 338/65/2
f 381/66/2 382/64/2 338/65/2
f 381/66/2 338/65/2 339/67/2
f 380/68/2 381/66/2 339/67/2
f 380/68/2 339/67/2 340/69/2
f 379/70/2 380/68/2 340/69/2
f 379/70/2 340/69/2 341/71/2
f 358/72/2 359/74/2 360/73/2
f 379/70/2 341/71/2 342/75/2
f 357/76/2 358/72/2 360/73/2
f 378/77/2 379/70/2 342/75/2
f 356/78/2 357/76/2 360/73/2
f 378/77/2 342/75/2 343/79/2
f 355/80/2 356/78/2 360/73/2
f 354/81/2 355/80/2 360/73/2
f 378/77/2 343/79/2 344/82/2
f 353/83/2 354/81/2 360/73/2
f 377/84/2 378/77/2 344/82/2
f 352/85/2 353/83/2 360/73/2
f 377/84/2 344/82/2 345/86/2
f 351/87/2 352/85/2 360/73/2
f 350/88/2 351/87/2 360/73/2
f 377/84/2 345/86/2 346/89/2
f 349/90/2 350/88/2 360/73/2
f 348/91/2 349/90/2 360/73/2
f 377/84/2 346/89/2 347/92/2
f 347/92/2 348/91/2 360/73/2
f 377/84/2 347/92/2 360/73/2
f 376/93/2 377/84/2 360/73/2
f 376/93/2 360/73/2 361/94/2
f 375/95/2 376/93/2 361/94/2
f 375/95/2 361/94/2 362/96/2
f 375/95/2 362/96/2 363/97/2
f 375/95/2 363/97/2 364/98/2
f 374/99/2 375/95/2 364/98/2
f 374/99/2 364/98/2 365/100/2
f 374/99/2 365/100/2 366/101/2
f 374/99/2 366/101/2 367/102/2
f 373/103/2 374/99/2 367/102/2
f 373/103/2 367/102/2 368/104/2
f 373/103/2 368/104/2 369/105/2
f 373/103/2 369/105/2 370/106/2
f 372/107/2 373/103/2 370/106/2
f 372/107/2 370/106/2 371/108/2
f 414/109/2 415/111/2 416/110/2
f 414/109/2 416/110/2 419/112/2
f 419/112/2 416/110/2 417/113/2
f 414/109/2 419/112/2 420/5/2
f 418/114/2 419/112/2 417/113/2
f 414/109/2 420/5/2 412/115/2
f 412/115/2 420/5/2 418/114/2
f 412/115/2 418/114/2 411/116/2
f 411/116/2 418/114/2 417/113/2
f 414/109/2 412/115/2 413/117/2
f 410/2/2 411/116/2 417/113/2
f 447/118/2 448/120/2 475/119/2
f 475/119/2 448/120/2 449/121/2
f 475/119/2 449/121/2 421/2/2
f 475/119/2 421/2/2 422/122/2
f 475/119/2 422/122/2 423/123/2
f 475/119/2 423/123/2 424/124/2
f 475/119/2 424/124/2 425/125/2
f 475/119/2 425/125/2 426/6/2
f 475/119/2 426/6/2 427/126/2
f 475/119/2 427/126/2 474/127/2
f 474/127/2 427/126/2 428/128/2
f 447/118/2 475/119/2 476/5/2
f 473/129/2 474/127/2 428/128/2
f 472/130/2 473/129/2 428/128/2
f 471/4/2 472/130/2 428/128/2
f 471/4/2 428/128/2 429/131/2
f 470/132/2 471/4/2 429/131/2
f 469/133/2 470/132/2 429/131/2
f 468/134/2 469/133/2 429/131/2
f 468/134/2 429/131/2 430/135/2
f 467/136/2 468/134/2 430/135/2
f 466/3/2 467/136/2 430/135/2
f 465/114/2 466/3/2 430/135/2
f 465/114/2 430/135/2 431/8/2
f 464/137/2 465/114/2 431/8/2
f 463/138/2 464/137/2 431/8/2
f 463/138/2 431/8/2 432/115/2
f 462/139/2 463/138/2 432/115/2
f 461/1/2 462/139/2 432/115/2
f 461/1/2 432/115/2 433/140/2
f 460/141/2 461/1/2 433/140/2
f 460/141/2 433/140/2 434/142/2
f 459/143/2 460/141/2 434/142/2
f 458/144/2 459/143/2 434/142/2
f 458/144/2 434/142/2 435/145/2
f 457/146/2 458/144/2 435/145/2
f 456/12/2 457/146/2 435/145/2
f 456/12/2 435/145/2 436/9/2
f 455/147/2 456/12/2 436/9/2
f 454/110/2 455/147/2 436/9/2
f 453/148/2 454/110/2 436/9/2
f 452/149/2 453/148/2 436/9/2
f 452/149/2 436/9/2 437/150/2
f 451/11/2 452/149/2 437/150/2
f 450/151/2 451/11/2 437/150/2
f 447/118/2 476/5/2 445/152/2
f 445/152/2 476/5/2 450/151/2
f 445/152/2 450/151/2 437/150/2
f 445/152/2 437/150/2 438/153/2
f 445/152/2 438/153/2 439/154/2
f 445/152/2 439/154/2 440/155/2
f 445/152/2 440/155/2 441/7/2
f 445/152/2 441/7/2 442/156/2
f 445/152/2 442/156/2 443/109/2
f 445/152/2 443/109/2 444/157/2
f 447/118/2 445/152/2 446/10/2
f 584/158/2 585/160/2 586/159/2
f 584/158/2 586/159/2 587/4/2
f 584/158/2 587/4/2 588/161/2
f 583/162/2 584/158/2 588/161/2
f 583/162/2 588/161/2 589/163/2
f 583/162/2 589/163/2 590/164/2
f 582/165/2 583/162/2 590/164/2
f 582/165/2 590/164/2 591/166/2
f 582/165/2 591/166/2 592/167/2
f 581/168/2 582/165/2 592/167/2
f 581/168/2 592/167/2 593/169/2
f 581/168/2 593/169/2 594/170/2
f 580/171/2 581/168/2 594/170/2
f 580/171/2 594/170/2 595/172/2
f 580/171/2 595/172/2 596/173/2
f 579/174/2 580/171/2 596/173/2
f 579/174/2 596/173/2 597/175/2
f 579/174/2 597/175/2 484/176/2
f 484/176/2 597/175/2 483/177/2
f 483/177/2 597/175/2 482/178/2
f 482/178/2 597/175/2 481/179/2
f 481/179/2 597/175/2 480/180/2
f 480/180/2 597/175/2 479/181/2
f 479/181/2 597/175/2 478/182/2
f 478/182/2 597/175/2 477/2/2
f 477/2/2 597/175/2 598/5/2
f 578/183/2 579/174/2 486/184/2
f 486/184/2 579/174/2 485/185/2
f 485/185/2 579/174/2 484/176/2
f 577/186/2 578/183/2 488/6/2
f 488/6/2 578/183/2 487/187/2
f 487/187/2 578/183/2 486/184/2
f 576/3/2 577/186/2 489/188/2
f 489/188/2 577/186/2 488/6/2
f 576/3/2 489/188/2 490/189/2
f 576/3/2 490/189/2 491/190/2
f 576/3/2 491/190/2 492/191/2
f 576/3/2 492/191/2 493/192/2
f 576/3/2 493/192/2 494/193/2
f 575/194/2 576/3/2 494/193/2
f 575/194/2 494/193/2 495/195/2
f 575/194/2 495/195/2 496/196/2
f 575/194/2 496/196/2 497/197/2
f 574/198/2 575/194/2 497/197/2
f 574/198/2 497/197/2 498/199/2
f 574/198/2 498/199/2 499/8/2
f 573/200/2 574/198/2 499/8/2
f 573/200/2 499/8/2 500/201/2
f 573/200/2 500/201/2 501/202/2
f 572/203/2 573/200/2 501/202/2
f 572/203/2 501/202/2 502/204/2
f 572/203/2 502/204/2 503/205/2
f 571/206/2 572/203/2 503/205/2
f 571/206/2 503/205/2 504/207/2
f 570/208/2 571/206/2 504/207/2
f 570/208/2 504/207/2 505/209/2
f 570/208/2 505/209/2 506/210/2
f 569/211/2 570/208/2 506/210/2
f 569/211/2 506/210/2 507/212/2
f 568/213/2 569/211/2 507/212/2
f 568/213/2 507/212/2 508/214/2
f 567/215/2 568/213/2 508/214/2
f 567/215/2 508/214/2 509/216/2
f 566/217/2 567/215/2 509/216/2
f 566/217/2 509/216/2 510/9/2
f 565/1/2 566/217/2 510/9/2
f 564/218/2 565/1/2 510/9/2
f 564/218/2 510/9/2 511/219/2
f 563/220/2 564/218/2 511/219/2
f 562/221/2 563/220/2 511/219/2
f 562/221/2 511/219/2 512/222/2
f 561/223/2 562/221/2 512/222/2
f 536/224/2 537/226/2 538/225/2
f 561/223/2 512/222/2 513/227/2
f 560/228/2 561/223/2 513/227/2
f 536/224/2 538/225/2 539/229/2
f 559/230/2 560/228/2 513/227/2
f 559/230/2 513/227/2 514/231/2
f 536/224/2 539/229/2 540/232/2
f 558/233/2 559/230/2 514/231/2
f 536/224/2 540/232/2 541/234/2
f 557/235/2 558/233/2 514/231/2
f 556/236/2 557/235/2 514/231/2
f 556/236/2 514/231/2 515/237/2
f 536/224/2 541/234/2 542/238/2
f 555/239/2 556/236/2 515/237/2
f 536/224/2 542/238/2 543/11/2
f 554/12/2 555/239/2 515/237/2
f 536/224/2 543/11/2 544/240/2
f 554/12/2 515/237/2 516/241/2
f 553/242/2 554/12/2 516/241/2
f 536/224/2 544/240/2 545/243/2
f 552/244/2 553/242/2 516/241/2
f 536/224/2 545/243/2 546/245/2
f 551/246/2 552/244/2 516/241/2
f 536/224/2 546/245/2 547/247/2
f 550/248/2 551/246/2 516/241/2
f 536/224/2 547/247/2 548/249/2
f 550/248/2 516/241/2 517/250/2
f 549/251/2 550/248/2 517/250/2
f 536/224/2 548/249/2 549/251/2
f 536/224/2 549/251/2 517/250/2
f 536/224/2 517/250/2 518/252/2
f 535/253/2 536/224/2 518/252/2
f 534/254/2 535/253/2 518/252/2
f 534/254/2 518/252/2 519/255/2
f 533/256/2 534/254/2 519/255/2
f 533/256/2 519/255/2 520/257/2
f 532/10/2 533/256/2 520/257/2
f 531/258/2 532/10/2 520/257/2
f 531/258/2 520/257/2 521/7/2
f 530/259/2 531/258/2 521/7/2
f 529/260/2 530/259/2 521/7/2
f 529/260/2 521/7/2 522/261/2
f 528/262/2 529/260/2 522/261/2
f 527/263/2 528/262/2 522/261/2
f 527/263/2 522/261/2 523/264/2
f 526/265/2 527/263/2 523/264/2
f 525/266/2 526/265/2 523/264/2
f 525/266/2 523/264/2 524/267/2
s 1
f 600/268/3 602/269/4 601/270/4 599/2/3
f 602/269/4 604/271/5 603/272/5 601/270/4
f 604/271/5 606/273/6 605/274/6 603/272/5
f 606/273/6 608/275/7 607/276/7 605/274/6
f 608/275/7 610/277/8 609/278/8 607/276/7
f 610/277/8 612/279/9 611/280/9 609/278/8
f 612/279/9 614/281/10 613/282/10 611/280/9
f 614/281/10 616/283/11 615/284/11 613/282/10
f 616/283/11 618/285/12 617/286/12 615/284/11
f 618/285/12 620/287/13 619/288/13 617/286/12
f 620/287/13 622/289/14 621/290/14 619/288/13
f 622/289/14 624/291/15 623/292/15 621/290/14
f 624/291/15 626/293/16 625/294/16 623/292/15
f 626/293/16 628/295/17 627/296/17 625/294/16
f 628/295/17 630/297/18 629/298/18 627/296/17
f 630/297/18 632/299/19 631/300/19 629/298/18
f 632/299/19 634/301/20 633/302/20 631/300/19
f 634/301/20 636/303/21 635/304/21 633/302/20
f 636/303/21 638/305/22 637/306/22 635/304/21
f 638/305/22 640/307/23 639/308/23 637/306/22
f 640/307/23 642/309/24 641/310/24 639/308/23
f 642/309/24 644/311/25 643/312/25 641/310/24
f 644/311/25 646/313/26 645/314/26 643/312/25
f 646/313/26 648/315/27 647/316/27 645/314/26
f 648/315/27 650/317/28 649/318/28 647/316/27
f 650/317/28 652/319/29 651/320/29 649/318/28
f 652/319/29 654/321/30 653/322/30 651/320/29
f 654/321/30 656/323/31 655/324/31 653/322/30
f 656/323/31 658/325/32 657/326/32 655/324/31
f 658/325/32 660/327/33 659/328/33 657/326/32
f 660/327/33 662/329/34 661/330/34 659/328/33
f 662/329/34 664/331/35 663/332/35 661/330/34
f 664/331/35 666/333/36 665/334/36 663/332/35
f 666/333/36 668/335/37 667/336/37 665/334/36
f 668/335/37 670/337/38 669/338/38 667/336/37
f 670/337/38 672/339/39 671/340/39 669/338/38
f 672/339/39 674/341/40 673/342/40 671/340/39
f 674/341/40 676/343/41 675/344/41 673/342/40
f 676/343/41 678/345/42 677/346/42 675/344/41
f 678/345/42 680/347/43 679/348/43 677/346/42
f 680/347/43 682/349/44 681/350/44 679/348/43
f 682/349/44 684/351/45 683/352/45 681/350/44
f 684/351/45 686/353/46 685/354/46 683/352/45
f 686/353/46 688/355/47 687/356/47 685/354/46
f 688/355/47 690/357/48 689/358/48 687/356/47
f 690/357/48 692/359/49 691/360/49 689/358/48
f 692/359/49 694/361/50 693/362/50 691/360/49
f 694/361/50 696/363/51 695/364/51 693/362/50
f 696/363/51 698/365/52 697/366/52 695/364/51
f 698/365/52 700/367/53 699/368/53 697/366/52
f 700/367/53 702/369/54 701/370/54 699/368/53
f 702/369/54 704/371/55 703/372/55 701/370/54
f 704/371/55 706/373/56 705/374/56 703/372/55
f 706/373/56 708/375/57 707/376/57 705/374/56
f 708/375/57 710/377/58 709/378/58 707/376/57
f 710/377/58 712/379/59 711/380/59 709/378/58
f 712/379/59 714/381/60 713/382/60 711/380/59
f 714/381/60 716/383/61 715/384/61 713/382/60
f 716/383/61 718/385/62 717/386/62 715/384/61
f 718/385/62 720/387/63 719/388/63 717/386/62
f 720/387/63 722/389/64 721/111/64 719/388/63
f 722/389/64 724/390/65 723/391/65 721/111/64
f 724/390/65 726/392/66 725/393/66 723/391/65
f 726/392/66 728/394/67 727/395/67 725/393/66
f 728/394/67 730/396/68 729/397/68 727/395/67
f 730/396/68 732/398/69 731/399/69 729/397/68
f 732/398/69 734/400/70 733/401/70 731/399/69
f 734/400/70 736/402/71 735/403/71 733/401/70
f 736/402/71 738/404/72 737/405/72 735/403/71
f 738/404/72 740/406/73 739/407/73 737/405/72
f 740/406/73 742/408/74 741/409/74 739/407/73
f 742/408/74 744/410/75 743/411/75 741/409/74
f 744/410/75 746/412/76 745/413/76 743/411/75
f 746/412/76 748/414/77 747/415/77 745/413/76
f 748/414/77 750/416/78 749/417/78 747/415/77
f 750/416/78 752/418/79 751/419/79 749/417/78
f 752/418/79 754/420/80 753/421/80 751/419/79
f 754/420/80 756/422/81 755/423/81 753/421/80
f 756/422/81 758/424/82 757/425/82 755/423/81
f 758/424/82 760/426/83 759/427/83 757/425/82
f 760/426/83 762/428/84 761/429/84 759/427/83
f 762/428/84 764/430/85 763/431/85 761/429/84
f 764/430/85 766/432/86 765/433/86 763/431/85
f 766/432/86 768/434/87 767/435/87 765/433/86
f 768/434/87 770/436/88 769/437/88 767/435/87
f 770/436/88 772/438/89 771/439/89 769/437/88
f 772/438/89 774/440/90 773/441/90 771/439/89
f 774/440/90 776/442/91 775/443/91 773/441/90
f 776/442/91 778/444/92 777/445/92 775/443/91
f 778/444/92 780/446/93 779/447/93 777/445/92
f 780/446/93 782/448/94 781/449/94 779/447/93
f 782/448/94 784/450/95 783/451/95 781/449/94
f 784/450/95 786/452/96 785/453/96 783/451/95
f 786/452/96 788/454/97 787/455/97 785/453/96
f 788/454/97 790/456/98 789/457/98 787/455/97
f 790/456/98 792/458/99 791/459/99 789/457/98
f 792/458/99 794/460/100 793/461/100 791/459/99
f 794/460/100 796/462/101 795/463/101 793/461/100
f 796/462/101 798/464/102 797/465/102 795/463/101
f 798/464/102 800/466/103 799/467/103 797/465/102
f 800/466/103 802/468/104 801/469/104 799/467/103
f 802/468/104 804/470/105 803/471/105 801/469/104
f 804/470/105 806/472/106 805/473/106 803/471/105
f 806/472/106 808/474/107 807/475/107 805/473/106
f 808/474/107 810/476/108 809/477/108 807/475/107
f 810/476/108 812/478/109 811/479/109 809/477/108
f 812/478/109 814/480/110 813/481/110 811/479/109
f 814/480/110 816/482/111 815/483/111 813/481/110
f 816/482/111 818/484/112 817/485/112 815/483/111
f 818/484/112 820/486/113 819/487/113 817/485/112
f 820/486/113 822/488/114 821/489/114 819/487/113
f 822/488/114 824/490/115 823/491/115 821/489/114
f 824/490/115 826/492/116 825/493/116 823/491/115
f 826/492/116 828/494/117 827/495/117 825/493/116
f 828/494/117 830/496/118 829/497/118 827/495/117
f 830/496/118 832/498/119 831/499/119 829/497/118
f 832/498/119 834/500/120 833/501/120 831/499/119
f 834/500/120 836/502/121 835/503/121 833/501/120
f 836/502/121 838/504/122 837/505/122 835/503/121
f 838/504/122 840/506/123 839/507/123 837/505/122
f 840/506/123 842/508/124 841/509/124 839/507/123
f 842/508/124 600/510/3 599/5/3 841/509/124
f 844/268/125 846/511/126 845/512/126 843/2/125
f 846/511/126 848/513/127 847/514/127 845/512/126
f 848/513/127 850/515/128 849/516/128 847/514/127
f 850/515/128 852/517/129 851/518/129 849/516/128
f 852/517/129 854/519/130 853/520/130 851/518/129
f 854/519/130 856/521/131 855/522/131 853/520/130
f 856/521/131 858/523/132 857/524/132 855/522/131
f 858/523/132 860/525/133 859/526/133 857/524/132
f 860/525/133 862/527/134 861/528/134 859/526/133
f 862/527/134 864/529/135 863/530/135 861/528/134
f 864/529/135 866/531/136 865/532/136 863/530/135
f 866/531/136 868/533/137 867/534/137 865/532/136
f 868/533/137 870/535/138 869/536/138 867/534/137
f 870/535/138 872/537/139 871/538/139 869/536/138
f 872/537/139 874/539/140 873/540/140 871/538/139
f 874/539/140 876/541/141 875/542/141 873/540/140
f 876/541/141 878/543/142 877/544/142 875/542/141
f 878/543/142 880/545/143 879/546/143 877/544/142
f 880/545/143 882/547/144 881/548/144 879/546/143
f 882/547/144 884/549/145 883/550/145 881/548/144
f 884/549/145 886/551/146 885/552/146 883/550/145
f 886/551/146 888/553/147 887/554/147 885/552/146
f 888/553/147 890/555/148 889/556/148 887/554/147
f 890/555/148 892/557/149 891/558/149 889/556/148
f 892/557/149 894/559/149 893/560/149 891/558/149
f 894/559/149 896/561/150 895/562/150 893/560/149
f 896/561/150 898/563/151 897/564/151 895/562/150
f 898/563/151 900/565/152 899/566/152 897/564/151
f 900/565/152 844/510/125 843/5/125 899/566/152
f 902/268/153 904/567/154 903/568/154 901/2/153
f 904/567/154 906/569/155 905/570/155 903/568/154
f 906/569/155 908/571/156 907/572/156 905/570/155
f 908/571/156 910/573/157 909/574/157 907/572/156
f 910/573/157 912/575/158 911/576/158 909/574/157
f 912/575/158 914/577/159 913/578/159 911/576/158
f 914/577/159 916/579/160 915/580/160 913/578/159
f 916/579/160 918/581/161 917/582/161 915/580/160
f 918/581/161 920/583/162 919/584/162 917/582/161
f 920/583/162 922/585/163 921/586/163 919/584/162
f 922/585/163 924/587/164 923/588/164 921/586/163
f 924/587/164 926/589/165 925/590/165 923/588/164
f 926/589/165 928/591/166 927/592/166 925/590/165
f 928/591/166 930/593/167 929/594/167 927/592/166
f 930/593/167 932/595/168 931/596/168 929/594/167
f 932/595/168 934/597/169 933/598/169 931/596/168
f 934/597/169 936/599/170 935/600/170 933/598/169
f 936/599/170 938/601/171 937/602/171 935/600/170
f 938/601/171 940/603/172 939/604/172 937/602/171
f 940/603/172 942/605/173 941/606/173 939/604/172
f 942/605/173 944/607/174 943/608/174 941/606/173
f 944/607/174 946/609/175 945/610/175 943/608/174
f 946/609/175 948/611/176 947/612/176 945/610/175
f 948/611/176 950/613/177 949/614/177 947/612/176
f 950/613/177 952/615/149 951/616/149 949/614/177
f 952/615/149 954/617/178 953/618/178 951/616/149
f 954/617/178 902/510/153 901/5/153 953/618/178
f 956/268/179 958/619/179 957/620/179 955/2/179
f 958/619/179 960/621/180 959/622/180 957/620/179
f 960/621/180 962/623/180 961/624/180 959/622/180
f 962/623/180 964/389/181 963/111/181 961/624/180
f 964/389/181 966/625/182 965/626/182 963/111/181
f 966/625/182 968/627/183 967/628/183 965/626/182
f 968/627/183 970/629/184 969/630/184 967/628/183
f 970/629/184 956/510/179 955/5/179 969/630/184
f 972/268/185 974/583/186 973/584/186 971/2/185
f 974/583/186 976/601/187 975/602/187 973/584/186
f 976/601/187 972/510/185 971/5/185 975/602/187
f 978/268/188 980/631/189 979/632/189 977/2/188
f 980/631/189 982/633/190 981/634/190 979/632/189
f 982/633/190 984/635/191 983/636/191 981/634/190
f 984/635/191 986/637/192 985/638/192 983/636/191
f 986/637/192 988/639/193 987/640/193 985/638/192
f 988/639/193 990/641/194 989/642/194 987/640/193
f 990/641/194 992/643/195 991/644/195 989/642/194
f 992/643/195 994/645/196 993/646/196 991/644/195
f 994/645/196 996/647/197 995/648/197 993/646/196
f 996/647/197 998/649/198 997/650/198 995/648/197
f 998/649/198 1000/651/199 999/652/199 997/650/198
f 1000/651/199 1002/653/200 1001/654/200 999/652/199
f 1002/653/200 1004/655/201 1003/656/201 1001/654/200
f 1004/655/201 1006/657/202 1005/658/202 1003/656/201
f 1006/657/202 1008/659/203 1007/660/203 1005/658/202
f 1008/659/203 1010/661/204 1009/662/204 1007/660/203
f 1010/661/204 1012/663/205 1011/664/205 1009/662/204
f 1012/663/205 1014/665/206 1013/666/206 1011/664/205
f 1014/665/206 1016/667/207 1015/668/207 1013/666/206
f 1016/667/207 1018/669/208 1017/670/208 1015/668/207
f 1018/669/208 1020/671/209 1019/672/209 1017/670/208
f 1020/671/209 1022/673/210 1021/674/210 1019/672/209
f 1022/673/210 1024/675/211 1023/676/211 1021/674/210
f 1024/675/211 1026/677/212 1025/678/212 1023/676/211
f 1026/677/212 1028/679/213 1027/680/213 1025/678/212
f 1028/679/213 1030/681/214 1029/682/214 1027/680/213
f 1030/681/214 1032/683/215 1031/684/215 1029/682/214
f 1032/683/215 1034/685/216 1033/686/216 1031/684/215
f 1034/685/216 1036/687/217 1035/688/217 1033/686/216
f 1036/687/217 1038/689/218 1037/690/218 1035/688/217
f 1038/689/218 1040/691/219 1039/692/219 1037/690/218
f 1040/691/219 1042/693/220 1041/694/220 1039/692/219
f 1042/693/220 1044/695/221 1043/696/221 1041/694/220
f 1044/695/221 1046/697/222 1045/698/222 1043/696/221
f 1046/697/222 1048/699/223 1047/700/223 1045/698/222
f 1048/699/223 1050/701/224 1049/702/224 1047/700/223
f 1050/701/224 1052/703/225 1051/704/225 1049/702/224
f 1052/703/225 1054/705/226 1053/706/226 1051/704/225
f 1054/705/226 1056/707/227 1055/708/227 1053/706/226
f 1056/707/227 1058/709/228 1057/710/228 1055/708/227
f 1058/709/228 1060/711/229 1059/712/229 1057/710/228
f 1060/711/229 1062/713/230 1061/714/230 1059/712/229
f 1062/713/230 1064/715/231 1063/716/231 1061/714/230
f 1064/715/231 1066/717/232 1065/718/232 1063/716/231
f 1066/717/232 1068/719/233 1067/720/233 1065/718/232
f 1068/719/233 1070/721/234 1069/722/234 1067/720/233
f 1070/721/234 1072/723/235 1071/724/235 1069/722/234
f 1072/723/235 1074/725/236 1073/726/236 1071/724/235
f 1074/725/236 1076/389/237 1075/111/237 1073/726/236
f 1076/389/237 1078/727/238 1077/728/238 1075/111/237
f 1078/727/238 1080/729/239 1079/730/239 1077/728/238
f 1080/729/239 1082/731/240 1081/732/240 1079/730/239
f 1082/731/240 1084/733/241 1083/734/241 1081/732/240
f 1084/733/241 1086/735/242 1085/736/242 1083/734/241
f 1086/735/242 1088/737/243 1087/738/243 1085/736/242
f 1088/737/243 1090/739/244 1089/740/244 1087/738/243
f 1090/739/244 1092/741/245 1091/742/245 1089/740/244
f 1092/741/245 1094/743/246 1093/744/246 1091/742/245
f 1094/743/246 1096/745/247 1095/746/247 1093/744/246
f 1096/745/247 1098/747/248 1097/748/248 1095/746/247
f 1098/747/248 1100/749/249 1099/750/249 1097/748/248
f 1100/749/249 1102/751/250 1101/752/250 1099/750/249
f 1102/751/250 1104/753/251 1103/754/251 1101/752/250
f 1104/753/251 1106/755/252 1105/756/252 1103/754/251
f 1106/755/252 1108/757/253 1107/758/253 1105/756/252
f 1108/757/253 1110/759/254 1109/760/254 1107/758/253
f 1110/759/254 1112/761/255 1111/762/255 1109/760/254
f 1112/761/255 1114/763/256 1113/764/256 1111/762/255
f 1114/763/256 1116/765/257 1115/766/257 1113/764/256
f 1116/765/257 1118/767/258 1117/768/258 1115/766/257
f 1118/767/258 1120/769/259 1119/770/259 1117/768/258
f 1120/769/259 1122/771/260 1121/772/260 1119/770/259
f 1122/771/260 1124/773/261 1123/774/261 1121/772/260
f 1124/773/261 1126/775/262 1125/776/262 1123/774/261
f 1126/775/262 1128/777/263 1127/778/263 1125/776/262
f 1128/777/263 1130/779/264 1129/780/264 1127/778/263
f 1130/779/264 1132/781/265 1131/782/265 1129/780/264
f 1132/781/265 1134/783/266 1133/784/266 1131/782/265
f 1134/783/266 1136/785/267 1135/786/267 1133/784/266
f 1136/785/267 1138/787/268 1137/788/268 1135/786/267
f 1138/787/268 1140/789/269 1139/790/269 1137/788/268
f 1140/789/269 1142/791/270 1141/792/270 1139/790/269
f 1142/791/270 1144/793/271 1143/794/271 1141/792/270
f 1144/793/271 1146/795/272 1145/796/272 1143/794/271
f 1146/795/272 1148/797/273 1147/798/273 1145/796/272
f 1148/797/273 1150/799/274 1149/800/274 1147/798/273
f 1150/799/274 1152/801/275 1151/802/275 1149/800/274
f 1152/801/275 1154/803/276 1153/804/276 1151/802/275
f 1154/803/276 1156/805/277 1155/806/277 1153/804/276
f 1156/805/277 1158/807/278 1157/808/278 1155/806/277
f 1158/807/278 1160/809/279 1159/810/279 1157/808/278
f 1160/809/279 1162/811/280 1161/812/280 1159/810/279
f 1162/811/280 1164/813/281 1163/814/281 1161/812/280
f 1164/813/281 1166/815/282 1165/816/282 1163/814/281
f 1166/815/282 1168/817/283 1167/818/283 1165/816/282
f 1168/817/283 1170/819/284 1169/820/284 1167/818/283
f 1170/819/284 1172/821/285 1171/822/285 1169/820/284
f 1172/821/285 978/510/188 977/5/188 1171/822/285
f 1174/268/149 1176/823/178 1175/824/178 1173/2/149
f 1176/823/178 1178/825/178 1177/826/178 1175/824/178
f 1178/825/178 1180/621/149 1179/622/149 1177/826/178
f 1180/621/149 1182/583/149 1181/584/149 1179/622/149
f 1182/583/149 1184/827/178 1183/828/178 1181/584/149
f 1184/827/178 1186/389/178 1185/111/178 1183/828/178
f 1186/389/178 1188/829/149 1187/830/149 1185/111/178
f 1188/829/149 1190/601/150 1189/602/150 1187/830/149
f 1190/601/150 1192/627/151 1191/628/151 1189/602/150
f 1192/627/151 1194/831/178 1193/832/178 1191/628/151
f 1194/831/178 1196/833/149 1195/834/149 1193/832/178
f 1196/833/149 1174/510/149 1173/5/149 1195/834/149
